<svg width="1418" height="937" viewBox="0 0 1418 937" fill="none" xmlns="http://www.w3.org/2000/svg">
<path d="M0.999992 15C0.999992 6.71575 7.71572 0 16 0H1403C1411.28 0 1418 6.71573 1418 15V697C1418 705.284 1411.28 712 1403 712H16C7.71569 712 0.999992 705.284 0.999992 697V15Z" fill="#F7F3F0"/>
<mask id="mask0_29_2" style="mask-type:alpha" maskUnits="userSpaceOnUse" x="0" y="188" width="1417" height="749">
<path d="M0 203C0 194.716 6.71573 188 15 188H1402C1410.28 188 1417 194.716 1417 203V922C1417 930.284 1410.28 937 1402 937H15C6.7157 937 0 930.284 0 922V203Z" fill="#F7F3F0"/>
</mask>
<g mask="url(#mask0_29_2)">
<path d="M1666.61 512.228C1665.55 511.922 1662.05 509.667 1659.71 508.592C1663.56 508.317 1670.39 513.334 1666.61 512.228ZM1389.92 567.076C1391.84 567.161 1393.83 567.265 1395.73 567.341C1390.93 565.579 1384.3 563.927 1380.02 562.146C1379.31 561.851 1381.85 561.19 1380.13 560.599C1378.41 560.01 1377.93 561.828 1375.33 561.241C1372.36 560.563 1360.15 555.441 1355.72 554.111C1339.1 549.129 1322.06 545.007 1306.03 539.372C1323.57 543.218 1307.14 536.769 1302.16 535.913C1301.05 535.738 1299.62 538.902 1283.19 533.17C1272.79 529.586 1284.74 527.796 1266.01 525.101C1278.06 532.119 1264.77 528.043 1254.36 525.39C1252.61 524.913 1238.37 520.716 1234.03 520.103C1233.73 520.054 1233.4 520.071 1233.06 520.133C1230.96 520.234 1228.01 520.87 1225.63 520.495C1223.66 520.183 1222.41 518.975 1219.36 518.519C1204.97 516.37 1190.19 514.328 1175.19 511.983C1185.42 508.744 1168.84 509.164 1168.19 508.872C1164.96 507.191 1181.38 509.009 1175.17 507.401C1166.1 506.336 1156.99 505.32 1147.87 504.352C1155.16 505.803 1136.9 506.889 1134.13 505.081C1134.41 509.089 1093.68 497.077 1087.04 497.963C1085.87 498.101 1091.45 500.044 1081.36 499.057C1079.39 498.87 1076.94 498.594 1074.08 498.232C1071.91 497.965 1073.03 496.84 1071.87 496.867C1071.17 496.884 1066.31 500.371 1062.79 498.056C1062.16 497.634 1064.28 496.933 1064.01 496.318C1063.92 495.742 1060.44 495.027 1051.5 495.363C1053.03 496.352 1052.17 496.946 1050.33 497.295C1048.42 497.632 1045.42 497.843 1045.04 497.869C1054.44 496.002 1017.81 502.473 1014.65 501.197C1017.25 501.537 1019.62 501.855 1022.54 502.055C1008.98 501.948 1008.08 502.926 1005.4 503.013C995.494 503.024 984.313 501.401 977.02 501.233C968.458 501.014 967.906 503.409 958.264 501.908C960.544 502.581 962.749 503.241 964.884 503.889C958.178 503.403 951.552 502.85 945.005 502.259C961.076 500.137 941.741 501.893 940.584 501.857C938.593 501.827 941.743 500.742 938.4 500.657C938.143 500.657 938.188 501.324 936.221 501.588C936.22 501.744 936.232 501.863 936.12 501.896C935.893 501.958 935.394 501.914 934.993 501.821C934.594 501.726 934.261 501.576 933.991 501.417C933.449 501.1 933.189 500.734 932.092 500.825C931.807 500.87 932.808 501.816 928.278 502.551C911.437 505.636 928.794 501.56 928.956 501.489C929.341 501.348 928.273 500.275 928.711 499.265C928.927 498.76 929.572 498.261 930.81 497.941C932.038 497.623 934.036 497.478 935.711 497.855C933.309 497.403 932.535 495.488 932.228 495.453C932.111 495.36 924.171 496.555 923.444 496.772C919.029 498.093 922.95 498.903 922.086 499.275C921.605 499.493 909.692 499.667 906.803 504.389C900.429 501.764 910.488 500.139 919.601 498.136C921.031 497.102 910.584 498.062 909.857 498.225C895.411 500.883 903.566 502.545 900.521 505.123C898.878 506.488 892.643 505.552 898.451 507.25C884.781 510.217 892.954 506.986 892.067 506.915C890.697 506.827 885.853 508.6 885.208 508.622C884.28 508.647 887.394 507.047 883.752 507.43C883.169 507.496 877.492 510.316 885.021 509.615C874.991 511.382 875.87 512.645 872.22 510.482C865.557 517.29 866.872 508.315 864.049 508.571C856.548 509.252 859.003 513.059 858.629 513.344C856.053 515.217 834.963 517.803 829.711 519.351C831.62 515.924 846.441 516.189 849.64 514.954C860.338 510.889 834.25 516.364 841.877 511.011C838.624 512.697 835.401 514.37 832.098 516.047C825.854 514.687 834.5 512.058 818.033 515.912C815.449 518.534 829.689 513.488 826.899 515.684C825.238 516.99 815.67 518.901 815.512 519.447C815.338 520.115 824.001 517.831 822.673 519.038C820.849 520.702 807.564 522.706 803.947 522.596C803.063 522.538 802.898 522.325 803.923 521.912C805.137 521.474 807.686 520.815 812.067 519.854C808.795 520.434 806.275 519.882 803.836 519.428C801.687 518.876 799.694 518.438 797.286 519.542C794.454 520.957 811.17 523.45 786.44 527.232C785.701 525.376 796.164 524.68 796.494 524.508C796.877 524.218 794.682 520.173 794.33 520.021C792.803 519.351 768.465 527.306 762.314 527.097C765.166 528.776 742.023 533.696 739.348 535.472C738.706 535.902 741.637 536.554 740.935 536.952C736.61 539.353 723.315 540.936 717.289 542.936C710.572 545.153 711.734 546.153 711.359 546.278C708.379 547.228 710.52 545.545 708.721 546.168C708.18 546.356 707.006 546.754 705.426 547.292C699.272 549.374 687.024 553.598 686.316 554.011C686.053 554.165 689.526 554.533 685.485 556.265C684.768 556.574 684.801 554.656 672.796 559.754C658.377 565.892 683.585 558.257 677.978 562.243C667.861 563.028 668.832 565.485 666.242 566.193C665.345 566.434 658.134 566.642 650.997 569.37C656.037 567.164 661.11 564.951 666.147 562.759C660.983 564.191 651.291 568.2 646.986 569.287C644.891 569.815 646.078 567.429 641.653 569.084C640.722 569.445 638.209 575.117 649.258 568.982C650.61 570.195 644.83 571.176 642.381 572.545C642.013 572.754 641.218 575.885 637.491 575.47C636.593 575.364 643.037 564.715 622.493 578.197C621.831 578.631 624.571 578.672 623.931 579.121C623.493 579.426 617.747 581.1 617.162 581.462C616.566 581.837 619.58 581.872 618.88 582.351C615.286 584.813 609.016 582.601 617.131 579.982C614.303 580.458 611.484 580.931 608.652 581.409C612.398 583.433 604.694 583.81 600.995 585.268C577.352 594.596 593.871 590.753 590.073 593.286C583.977 597.355 587.479 590.262 578.155 595.429C577.303 595.906 589.764 593.794 566.29 601.024C569.685 599.681 573.092 598.333 576.451 597.004C573.663 594.744 564.171 601.739 563.406 602.066C554.423 605.817 560.269 602.487 547.198 608.978C546.071 609.544 543.149 609.806 540.719 611.102C530.376 616.563 555.149 606.816 556.121 607.786C556.655 608.243 529.83 617.927 528.808 617.985C524.537 618.18 540.833 612.976 537.31 612.565C536.827 612.489 529.847 615.122 521.42 618.317C509.948 622.654 496.038 628.158 491.825 629.405C483.468 631.847 478.61 629.323 480.035 633.795C476.334 630.319 475.381 634.092 474.399 634.458C462.454 638.943 462.568 638.858 453.548 643.502C451.582 644.533 449.31 644.091 448.676 644.662C448.31 645 449.711 645.967 447.829 647.405C446.531 648.386 441.381 650.728 435.477 653.323C428.661 656.402 420.855 659.449 419.687 659.52C417.456 659.709 430.768 653.794 427.81 653.706C418.635 658.126 408.787 662.95 398.216 666.81C393.813 668.397 395.807 666.63 393.908 667.31C393.099 667.703 378.262 673.491 378.974 673.552C380.695 674.918 426.925 655.494 415.299 661.977C413.132 663.341 404.098 664.747 406.281 666.707C387.593 674.106 368.686 679.259 351.267 682.781C329.608 687.147 309.326 689.648 289.526 691.407C308.291 687.531 329.512 685.992 351.125 681.359C353.111 680.933 355.062 680.488 357.028 680.009C360.262 679.283 371.658 676.523 370.046 675.525C363.917 677.111 357.485 678.684 351.002 680.115C335.743 683.496 320.327 686.12 307.834 687.13C307.269 687.175 309.35 685.648 307.236 685.729C303.276 685.916 290.49 689.399 288.391 689.067C288.033 688.99 295.299 686.552 293.139 685.738C287.633 683.646 285.98 689.77 281.161 690.161C277.358 690.557 252.962 689.502 246.788 691.573C240.114 693.925 264.712 691.622 262.808 693.281C245.915 696.099 229.415 695.099 213.984 695.668C213.712 695.679 215.897 696.88 212.442 697.137C206.42 697.575 205.091 695.809 202.239 695.568C201.996 695.547 201.702 695.53 201.368 695.517C195.339 695.446 184.577 695.141 183.376 694.458C183.2 694.364 185.997 692.716 186.39 692.681C191.91 692.187 193.689 694.499 194.226 694.544C196.317 694.672 198.563 693.81 200.702 693.844C201.016 693.85 201.317 693.86 201.608 693.875C203.636 694.036 204.962 694.693 207.91 694.704C210.169 694.713 208.214 693.194 210.362 693.222C211.141 693.247 219.308 696.596 220.587 692.925C220.712 692.529 212.699 692.367 201.859 692.153C173.775 691.422 146.236 687.476 141.052 687.756C146.67 688.754 152.277 689.728 158.074 690.676C146.373 688.585 131.837 690.058 131.976 685.673C89.3896 680.898 48.0375 675.512 6.49253 670.225C6.09041 670.157 5.72432 670.085 5.38973 670.011C-0.831924 668.648 3.12563 666.701 -9.47349 665.769C-6.37348 667.114 -3.25941 668.438 -0.113087 669.743C-6.77973 668.425 -35.8604 662.624 -40.6918 662.206C-41.3238 662.165 -43.0808 664.495 -50.4265 663.328C-56.9328 662.276 -57.246 660.222 -60.5231 659.179C-63.2693 658.307 -66.659 658.112 -67.4628 657.831C-68.0791 657.612 -67.8887 656.439 -69.3657 655.909C-74.0244 654.244 -71.3318 658.259 -74.719 653.576C-73.481 653.7 -72.2485 653.821 -71.0104 653.94C-76.7103 652.134 -84.0042 648.665 -75.0557 649.808C-73.5139 649.999 -75.2312 650.796 -74.1214 651.041C-30.2668 659.99 -64.5455 650.803 -80.3174 648.961C-83.5867 646.527 -105.509 642.217 -106.047 641.68C-106.83 640.974 -102.624 640.638 -106.911 638.316C-107.876 637.889 -136.401 631.154 -125.31 631.798C-123.043 631.948 -109.742 636.012 -106.412 636.779C-112.644 631.457 -132.688 631.378 -134.625 630.673C-142.437 627.9 -117.787 632.089 -135.748 626.633C-149.494 622.395 -137.519 628.331 -143.31 627.765C-146.592 627.453 -160.999 620.446 -162.102 623.741C-162.857 623.571 -163.434 623.41 -163.869 623.259L-165.546 622.726C-168.16 621.689 -165.346 621.169 -165.835 620.881C-166.367 620.571 -176.815 618.158 -179.658 616.451C-180.003 616.241 -177.929 615.009 -178.26 614.743C-178.933 614.241 -188.576 611.484 -189.007 611.521C-189.303 611.538 -187.778 613.698 -188.882 613.749C-190.196 613.778 -198.925 610.662 -199.551 610.968C-200.59 611.344 -189.443 614.348 -192.061 615.399C-197.003 613.339 -205.557 612.012 -209.005 612.578C-208.148 612.378 -203.607 613.611 -202.008 614.25C-204.092 616.293 -213.4 613.683 -209.349 612.674C-211.798 613.157 -210.689 614.056 -212.219 614.725C-212.498 614.846 -213.982 614.549 -215.131 614.471L-218.811 613.428C-220.031 613.114 -221.134 612.824 -221.683 612.761C-221.791 612.76 -220.494 613.421 -219.155 614.095L-215.425 615.153C-214.764 615.674 -214.073 616.347 -214.542 616.557C-214.812 616.679 -215.345 616.69 -216.058 616.623L-219.898 615.535C-223.869 614.524 -231.844 611.496 -238.353 607.003C-244.899 602.605 -248.976 597.868 -249.602 597.049C-251.735 593.991 -248.606 597.401 -243.423 601.289C-238.265 605.283 -230.977 608.682 -229.691 608.649C-229.453 608.668 -234.447 605.548 -238.748 601.399C-243.118 597.305 -246.155 592.776 -246.167 592.618C-245.708 591.469 -242.069 595.611 -237.303 599.14C-232.593 602.73 -227.471 605.155 -228.205 603.717C-233.376 600.473 -238.233 596.176 -241.784 591.784C-235.91 597.438 -223.917 604.382 -215.286 606.593L-212.125 607.49C-206.767 608.417 -201.073 610 -198.332 609.457C-203.419 608.22 -207.956 607.106 -211.422 605.857L-214.461 604.996C-225.59 601.213 -233.897 592.538 -231.472 590.979C-230.117 589.88 -218.292 595.836 -218.431 594.797C-218.693 593.648 -223.025 591.548 -226.934 588.809C-230.877 586.131 -234.029 583.212 -234.175 582.972C-234.403 582.531 -234.453 582.29 -234.364 582.221C-234.364 582.221 -234.364 582.221 -234.364 582.221C-233.925 581.836 -229.925 586.032 -224.35 589.376C-218.79 592.817 -213.016 594.535 -212.498 594.483C-210.429 594.474 -217.272 587.515 -216.64 586.674C-216.334 586.917 -208.295 589.965 -206.463 589.49L-204.603 590.018C-204.275 589.872 -204.137 589.656 -204.312 589.341L-206.122 588.828C-206.211 588.733 -206.331 588.626 -206.487 588.505C-209.863 586.533 -220.949 579.378 -220.757 578.695C-221.211 577.753 -218.644 579.816 -214.876 581.773C-211.104 583.793 -206.521 585.201 -204.454 585.595L-202.89 586.038C-202.393 586.066 -202.055 586.063 -201.979 586.001C-201.911 585.953 -202.186 585.731 -202.626 585.426L-204.145 584.995C-206.302 583.837 -211.22 580.459 -211.167 579.995C-211.158 579.646 -205.664 581.578 -202.316 581.45L-201.067 581.804C-200.599 581.706 -200.154 581.589 -199.788 581.442C-198.807 581.059 -199.564 580.329 -200.206 579.805L-201.306 579.493C-201.959 579.022 -202.526 578.636 -202.116 578.712C-202.013 578.731 -201.631 578.852 -201.065 579.024L-200 579.326C-197.619 579.798 -190.475 581.764 -189.967 581.772C-189.13 581.734 -190.89 579.949 -190.426 579.764C-189.763 579.489 -186.769 580.826 -186.986 580.29C-187.118 579.907 -195.177 574.229 -196.955 572.254L-197.494 572.101C-197.787 571.771 -197.917 571.524 -197.838 571.402C-197.712 571.211 -197.423 571.164 -197.031 571.205L-196.561 571.338C-193.965 571.301 -185.77 576.267 -194.124 567.162C-194.142 567.145 -194.386 567.113 -194.726 567.077L-194.88 567.034C-195.893 566.862 -197.791 566.415 -197.835 566.345C-198.401 565.32 -195.925 565.409 -194.904 565.032C-193.793 564.556 -194.503 564.521 -199.623 561.638C-197.059 562.976 -194.835 563.441 -193.171 563.72L-193.269 563.692C-184.672 564.57 -189.894 562.48 -191.925 560.57L-191.594 560.664C-192.161 559.924 -192.226 559.227 -191.23 558.752C-191.054 558.668 -190.814 558.615 -190.521 558.584L-191.01 558.446C-188.101 558.12 -180.736 559.704 -180.648 559.574C-180.815 557.875 -184.23 558.202 -184.885 557.231C-185.23 556.663 -176.445 557.394 -177.781 555.892C-178.41 555.088 -187.282 552.913 -187.615 552.762C-187.94 552.57 -188.18 552.399 -188.341 552.248L-187.392 552.517C-187.688 551.933 -187.247 551.589 -186.76 551.293L-187.803 550.997C-187.097 550.711 -186.22 550.506 -186.438 550.11C-186.5 549.987 -186.809 549.825 -187.225 549.654L-186.082 549.978C-186.95 549.446 -187.843 548.949 -187.797 548.881C-187.734 548.775 -186.692 548.419 -185.119 548.112L-186.404 547.748C-184.726 547.684 -183.121 547.638 -182.436 547.546C-181.035 547.351 -185.118 545.451 -184.203 545.445C-178.57 545.372 -169.856 551.619 -177.672 544.227C-178.153 543.771 -182.098 542.874 -182.193 542.795C-184.041 540.869 -176.754 542.599 -175.031 541.903C-171.97 540.664 -182.762 538.892 -173.586 539.93C-176.493 538.44 -179.024 537.465 -181.655 536.719L-179.55 537.316C-180.083 537.031 -179.334 537.334 -178.6 538.175C-179.261 537.398 -179.993 536.881 -179.263 536.758L-181.41 536.149C-168.23 537.858 -164.049 535.706 -179.329 531.314L-176.821 532.025C-176.903 531.965 -176.676 532.012 -176.174 532.262C-176.795 531.992 -176.803 531.85 -176.622 531.638L-179.158 530.919C-175.681 530.975 -175.015 529.427 -173.255 529.845C-171.655 530.187 -162.373 535.902 -164.355 528.538C-164.563 527.611 -171.751 526.7 -168.931 525.751C-153.265 530.648 -168.012 524.867 -168.054 524.666C-165.149 521.156 -131.234 535.283 -125.534 536.89C-123.812 537.341 -122.131 537.622 -120.437 537.836L-122.151 537.292C-117.076 537.682 -112.664 537.157 -111.57 537.472C-106.831 538.848 -111.437 539.11 -110.625 539.934C-109.786 540.775 -95.0461 541.925 -94.4562 542.243C-92.1335 543.568 -95.5578 544.497 -95.3273 544.657C-92.5734 546.619 -73.9302 550.214 -69.0691 551.863C-68.743 550.742 -78.8157 547.998 -71.7158 547.911C-63.4649 547.787 -65.1762 552.674 -65.0738 552.94C-32.0829 561.29 0.92265 567.901 34.4065 571.832C35.2406 571.93 36.0726 572.028 36.9024 572.126C36.9616 571.619 36.1244 571.177 34.7151 570.787C29.1869 569.233 14.0945 568.376 13.7774 568.003C12.4756 566.581 24.1101 567.884 35.1985 569.152C44.2437 570.205 52.8107 571.466 54.8712 572.122C51.2142 571.101 47.6557 570.091 43.994 569.069C51.3868 566.83 64.5246 572.445 74.265 572.217C77.4075 572.141 71.9566 570.294 72.0917 570.228C75.8604 569.462 80.9694 570.997 76.4753 572.094C85.2269 571.566 83.4465 573.076 89.8183 573.952C90.1404 573.995 87.7853 572.461 92.9367 572.541C95.3548 572.583 107.932 574.037 109.867 573.157C110.69 572.789 105.746 567.342 103.751 571.308C90.718 567.748 98.8405 572.652 93.5816 571.943C92.7792 571.826 95.3174 569.783 81.6501 569.281C85.3801 565.494 99.9001 570.353 102.633 570.155C108.375 569.772 86.5837 565.053 81.5599 567.751C84.4307 564.79 80.0783 567.133 75.1425 566.415C69.6801 565.622 72.3651 564.957 69.4144 564.602C61.3057 563.617 64.0151 566.268 57.9324 563.445C62.6128 570.504 46.2058 562.91 41.4951 560.644C50.0832 561.337 58.7284 562.036 67.3214 562.724C66.931 562.336 66.5398 561.948 66.1477 561.56C68.3892 561.875 70.6083 562.186 72.8146 562.495C72.3625 562.769 71.9165 563.043 71.4666 563.317C83.6326 562.628 85.7699 565.267 86.6935 565.402C98.6816 567.088 112.738 568.7 124.87 570.077C126.688 570.281 126.068 568.1 138.869 571.181C142.991 572.163 138.529 573.326 143.387 573.609C150.626 569.909 149.523 573.364 151.278 573.558C156.437 574.107 159.797 573.343 160.286 573.383C166.61 573.868 175.718 574.959 182.508 575.409C182.638 575.404 179.495 573.745 183.75 574.539C185.206 574.81 197.835 581.844 209.086 580.494C206.346 579.969 203.608 579.409 200.655 578.811C202.956 579.396 215.935 579.502 218.445 578.453C221.046 578.019 222.227 577.536 220.329 577.096C219.858 576.986 219.292 576.949 218.663 576.962C216.851 577.058 209.58 579.235 209.549 576.07C211.24 576.431 215.852 576.734 218.701 576.703C236.084 576.621 263.312 574.49 265.95 574.853C266.449 574.939 263.22 576.289 263.908 576.392C264.452 576.488 275.269 575.469 276.651 575.779C277.484 575.977 272.677 577.047 273.029 577.43C273.362 577.73 286.759 577.1 287.571 575.555C284.279 576.461 275.056 576.712 279.983 575.097C280.613 574.896 283.782 575.546 284.545 575.285C291.639 572.911 270.709 575.149 267.392 575.27C280.813 572.6 300.973 572.846 315.411 569.459C321.293 569.79 306.705 572.535 313.378 572.566C327.199 572.531 317.001 570.38 317.447 570.165C320.81 568.501 332.461 572.87 332.12 567.982C336.276 567.811 335.711 568.483 339.769 567.315C340.352 567.144 341.024 566.933 341.801 566.674C341.099 566.55 340.388 566.425 339.668 566.3C339.52 566.274 339.371 566.249 339.223 566.224C339.358 566.138 339.495 566.056 339.636 565.977C346.531 562.201 360.26 565.011 359.494 565.732C357.179 568.031 349.492 567.874 348.86 568.062C348.108 568.309 346.796 571.973 340.273 572.378C338.651 572.478 336.695 572.379 334.388 571.961C332.19 574.035 336.621 573.758 340.371 573.36C344.169 572.967 347.322 572.491 342.431 574.798C349.676 573.299 374.574 567.215 377.484 563.772C377.86 563.381 374.608 561.414 381.358 560.017C384.629 559.306 377.54 562.74 379.177 562.76C380.316 562.784 383.845 561.503 389.733 558.681C413.946 545.655 467.47 524.074 477.871 520.315C478.825 519.956 478.755 521.048 479.699 520.688C481.762 519.901 487.064 517.184 492.042 515.057C494.124 514.156 496.295 513.313 497.84 512.9C486.916 514.927 507.114 507.385 512.329 505.682C520.251 503.104 520.3 504.959 523.751 504.09C537.217 500.678 556.367 489.196 567.63 489.23C566.013 485.695 585.781 484.608 594.084 481.622C600.581 479.283 609.319 473.381 600.116 475.064C611.384 471.155 623.018 466.174 633.536 462.146C635.28 461.477 633.174 463.451 636.135 462.278C636.401 462.164 636.475 460.944 638.999 459.915C659.955 451.388 650.274 457.388 654.43 456.651C656.75 456.244 658.446 455.851 659.679 455.484C647.316 460.085 633.223 465.623 629.447 467.017C633.332 468.243 656.658 456.755 663.954 454.912C664.209 454.848 663.696 456.479 663.952 456.399C663.957 456.397 663.962 456.395 663.968 456.393C666.196 455.693 678.016 451.212 679.959 449.462C680.361 449.104 680.355 448.856 679.78 448.774C679.74 448.768 679.696 448.762 679.649 448.758C678.64 448.645 670.695 451.4 661.507 454.804C663.915 453.63 661.66 452.801 662.081 452.583C665.71 450.741 673.378 448.65 679.338 447.075C681.966 446.376 684.122 445.822 685.598 445.379C686.689 445.05 686.364 444.123 686.54 444.06C690.826 442.823 689.825 446.131 693.471 441.827C702.065 442.581 679.112 447.299 681.267 448.973C682.606 450.215 732.498 432.532 732.398 429.98C732.643 430.214 733.457 430.347 735.03 430.306C738.446 430.183 753.615 425.573 756.289 424.41C756.727 424.192 756.133 421.565 756.702 421.391C758.082 420.872 777.796 418.342 784.818 415.481C780.916 415.853 776.96 416.285 772.981 416.777C796.667 411.799 792.812 412.039 784.989 412.615C784.596 412.684 784.206 412.655 783.83 412.717C777.692 413.29 769.659 414.515 769.516 414.337C769.105 413.66 792.736 408.37 799.952 408.313C801.945 408.284 802.676 408.598 801.175 409.457C801.048 409.528 800.621 409.619 800.001 409.724C795.797 410.398 783.417 412.084 791.264 412.204C792.203 412.218 796.52 411.35 800.035 410.695C802.231 410.276 804.071 409.922 804.29 409.969C805.629 410.252 803.347 411.219 800.094 412.381C794.096 414.36 785.136 417.191 787.143 417.99C791.008 416.101 795.621 415.246 800.168 414.5C802.47 414.122 804.751 413.755 806.927 413.212C809.686 412.527 810.288 411.037 810.626 410.952C815.636 409.714 812.894 411.644 814.583 411.31C815.499 411.132 825.325 406.261 823.669 410.816C856.638 401.447 832.552 406.155 812.42 409.947C818.714 407.306 831.252 405.738 836.903 404.285C838.931 403.766 837.644 402.593 841.052 401.651C847.947 399.788 882.438 394.413 892.33 392.936C886.539 394.556 888.321 395.758 892.832 394.783C897.327 393.819 893.417 392.498 894.28 392.111C895.042 391.674 917.17 388.689 921.53 387.926C903.947 391.423 907.844 392.286 922.881 390.183C920.692 390.934 918.477 391.71 916.378 392.484C924.705 390.379 945.045 390.567 952.303 390.081C953.366 389.952 949.806 388.695 950.397 388.626C952.973 388.327 958.219 388.382 964.084 389.007C968.362 389.56 972.167 390.144 972.535 389.915C973.117 389.58 968.232 388.116 970.279 387.714C970.7 387.629 975.255 389.756 980.316 389.637C982.137 389.59 981.35 388.285 981.814 388.242C985.525 387.864 983.189 389.849 990.029 389.889C995.139 389.905 999.376 388.057 1005.77 388.921C984.182 385.457 1002.95 387.437 1011.68 386.73C1013.08 386.599 1012.5 384.436 1019.8 385.421C1002.64 389.582 1025.43 387.662 1026.36 387.24C1026.47 387.24 1026.51 388.715 1027.48 388.613C1027.55 388.6 1027.48 387.627 1028.2 387.439C1028.96 387.226 1029.97 386.953 1032.05 386.459C1034.07 385.976 1036.54 385.449 1038.26 385.141C1041.91 384.489 1042.81 384.495 1042.56 384.681C1042.08 385.052 1037.15 386.436 1041.36 386.201C1043.06 386.103 1049.62 384.912 1055.28 384.28C1061.09 383.6 1065.88 383.231 1068.03 383.208C1069.01 383.209 1068.43 384.234 1071.88 384.235C1078.06 384.256 1083.09 383.384 1086.93 383.496C1087.47 383.527 1086.83 385.12 1093.88 385.031C1095.74 385.004 1097.88 384.562 1095.44 383.915C1087.05 381.803 1069.62 383.33 1054.56 382.865C1047.22 382.802 1055.79 381.488 1063.96 381.158C1072.18 380.783 1080 381.103 1081 381.131C1081.59 381.145 1075.2 381.731 1081.47 382.13C1086.62 382.462 1096.2 380.17 1103.3 381.357C1103.76 381.435 1108.73 384.285 1108.47 384.409C1108.13 384.475 1099.57 384.335 1100.55 385.123C1100.83 385.221 1106.08 385.616 1106.71 386.199C1107.29 386.769 1107.94 391.086 1108.8 392.822C1108.98 393.22 1109.17 393.481 1109.37 393.528C1112.19 394.164 1110.65 392.591 1112.54 392.858C1116.58 393.409 1129.97 396.589 1131 394.509C1128.74 394.151 1126.48 393.797 1124.22 393.447C1137.04 394.489 1131.86 393.052 1133.77 392.829C1135.81 392.594 1134.78 394.414 1138.99 395.037C1139.94 395.159 1157.85 396.721 1157.75 395.912C1147.56 396.059 1151.85 394.156 1151.42 394.062C1149.74 393.721 1147.15 394.778 1144.84 394.503C1128.58 392.569 1145.61 392.256 1141.9 391.321C1140.62 391.001 1137.68 391.837 1137.11 391.72C1135.32 391.345 1135.69 389.888 1134.44 389.881C1131.51 389.863 1134.28 392.261 1134.02 392.344C1131.11 393.364 1121.45 390.772 1128.36 389.151C1124.78 387.969 1123.64 390.655 1120.91 389.279C1115.53 386.566 1124.36 387.956 1126.83 387.837C1135.85 387.405 1138.11 388.702 1150.35 389.662C1154.74 390.011 1160.3 389.276 1162.33 389.435C1163.63 389.528 1174.26 395.523 1176.73 388.389C1181.2 389.64 1187.08 395.267 1191.93 395.656C1196.29 396.002 1195.69 393.292 1196.13 393.245C1196.79 393.168 1201.93 394.036 1203.8 393.909C1206 393.756 1205.26 392.65 1208.66 392.689C1217.12 392.794 1216.1 395.366 1216.88 395.645C1226 398.926 1222.91 394.665 1225.17 394.669C1227.26 394.627 1255.07 400.224 1261.6 400.422C1258.92 400.52 1256.33 400.644 1253.66 400.762C1257.52 403.07 1263.11 401.24 1262.17 404.132C1264.72 399.626 1272.87 404.345 1275.76 404.781C1275.8 404.787 1275.84 404.791 1275.88 404.794C1277.08 404.921 1277.32 404.175 1278.92 404.459C1285.56 405.598 1297.31 409.222 1300.22 409.551C1313.32 411.028 1283.2 400.112 1278.56 399.376C1286.01 400.609 1314.08 406.827 1302.2 401.305C1300.39 400.463 1295.72 401.572 1294.6 401.39C1286.17 399.966 1293.39 399.656 1292.82 399.329C1291.92 398.794 1285.53 399.288 1284.1 398.769C1283.54 398.595 1287.74 397.654 1279.19 395.867C1279.06 395.84 1278.93 395.814 1278.79 395.787C1278.93 395.758 1279.08 395.734 1279.25 395.717C1286.43 395.415 1305.54 401.559 1308.12 401.893C1309.09 402.019 1304.93 396.987 1320.29 404.928C1320.25 404.557 1320.21 404.19 1320.16 403.817C1329.52 406.258 1338.63 408.741 1347.68 411.251C1346.33 411.687 1340.57 411.664 1347.1 413.226C1350.81 414.114 1348.91 411.705 1349.26 411.755C1352.97 412.22 1409.65 430.115 1420.47 433.284C1424.24 434.38 1435.09 436.215 1435.93 436.444C1440.67 437.755 1456.73 443.606 1460 444.357C1462.07 444.839 1460.83 442.92 1462.57 443.511C1464.17 444.056 1461.85 444.863 1462.3 445.062C1464.05 445.827 1472.16 447.974 1479.62 449.762C1490.46 452.408 1502.39 455.58 1506.41 457.501C1502.57 456.028 1484.89 452.959 1478.36 452.5C1477.17 452.477 1476.35 452.517 1476.35 452.717C1476.36 452.775 1477.05 453.168 1477.86 453.582C1479.61 454.365 1482.04 455.325 1482.94 455.231C1484.44 456.924 1493.04 455.389 1496.52 457.145C1496.91 457.345 1494.31 458.802 1500.91 461.08C1503.17 461.863 1510 462.108 1515.3 465.611C1524.67 467.241 1569.39 484.476 1573.49 483.621C1573.64 483.54 1567.6 480.678 1572.38 481.291C1578.75 482.12 1571.57 484.137 1578.1 486.745C1579.1 487.113 1597.86 493.201 1598.57 493.204C1605.33 493.081 1589.61 486.504 1589.96 486.353C1590.86 485.919 1604.54 490.303 1604.99 490.652C1605.43 490.991 1592.95 489.869 1606.68 493.513C1605.36 492.637 1604.03 491.765 1602.72 490.896C1609.25 492.455 1608.77 494.603 1610.2 495.26C1610.52 495.409 1610.86 495.542 1611.2 495.663C1615.54 497.176 1621.39 496.561 1626.33 502.391C1627.79 504.077 1623.86 503.924 1624.08 504.177C1625.75 506.339 1630.55 503.933 1632.81 507.883C1632.86 508.017 1630.62 507.71 1630.15 508.029C1629.81 508.416 1630.62 509.108 1638.93 512.317C1637.87 511.6 1636.92 510.935 1635.93 510.258C1637.22 510.438 1641.95 511.858 1648.4 514.612C1654.7 517.37 1657.55 518.847 1658.49 519.37C1663.03 522.099 1657.7 521.752 1662.67 523.903C1661.03 520.043 1676.4 526.962 1674.19 528.54C1675.48 528.079 1677.39 528.512 1679.94 529.556C1685.45 531.813 1692.55 536.305 1697.04 538.449C1701.09 540.38 1710.27 543.22 1711.46 543.948C1712.91 544.837 1711.32 546.358 1713.95 548.095C1714.66 548.572 1724.1 551.344 1730.41 556.691C1731.61 557.713 1732.73 562.108 1729.52 561.544C1724.07 560.603 1716.9 554.117 1715.86 555.907C1714.74 557.805 1727.29 562.285 1730.28 564.035C1744.16 572.132 1734.37 570.058 1734.37 570.843C1734.33 572.729 1742.43 576.559 1742.64 576.838C1743.65 578.088 1737.15 576.473 1736.52 577.338C1735.61 578.417 1741.93 584.211 1739.92 583.754C1737.08 583.108 1731.14 577.969 1730.65 577.844C1724.09 576.184 1730.28 582.648 1731.6 585.007C1731.99 585.726 1728.91 585.12 1729.38 585.5C1736.61 591.338 1733.67 582.626 1739.03 585.698C1743.83 588.458 1736.18 587.066 1736.31 587.257C1736.5 587.485 1742.43 590.485 1742.94 591.555C1743.17 592.062 1725.36 587.96 1724.98 589.801C1730.14 591.829 1735.33 593.893 1740.52 595.973C1739.58 598.145 1733.45 593.236 1732.54 593.07C1730.78 592.764 1734.27 595.778 1733.66 596.315C1733.31 596.674 1727.42 595.713 1731.47 598.446C1732.82 599.371 1736.91 599.505 1741.43 603.609C1721.17 596.143 1733.58 603.666 1733.69 604.65C1733.79 605.629 1723.51 602.822 1734.78 607.922C1732.66 612.011 1733.67 608.995 1730.13 608.175C1725.71 607.14 1733.72 612.69 1720.37 604.963C1719.97 607.153 1731.26 612.459 1731.79 612.916C1732.22 613.301 1729.08 612.95 1729.78 613.692C1737.95 622.331 1731.81 617.203 1733.3 620.902C1733.49 621.251 1742.76 626.963 1735.02 623.551C1720.88 617.359 1716.86 612.088 1710.82 616.416C1719.43 623.687 1734.11 626.213 1737.2 627.689C1741.97 629.962 1736.35 628.637 1736.7 629.232C1736.85 629.438 1740.95 631.376 1740.92 631.483C1740.95 637.046 1722.85 622.56 1715.7 620.119C1717.08 621.615 1718.4 623.084 1719.77 624.58C1717.31 623.418 1714.92 622.289 1712.48 621.149C1723.09 627.947 1712.55 621.805 1707.42 623.813C1706.28 624.27 1714.7 626.599 1704.66 624.562C1710.69 628.11 1708.2 627.822 1714.57 629.645C1713.52 630.925 1699.55 626.201 1693.97 624.472C1710.95 634.621 1704.1 624.74 1717.81 634.892C1721.81 634.617 1714.2 631.334 1715 631.359C1717.82 631.41 1721.82 635.452 1730.3 635.017C1731.68 634.942 1728.7 631.099 1734.84 634.279C1735.48 634.611 1738.41 638.11 1738.27 638.192C1736.91 639.08 1733.34 636.686 1732.86 637.108C1732.38 637.487 1736.87 639.378 1736.83 639.534C1735.92 641.048 1732.85 638.277 1733.05 638.998C1733.56 640.6 1746.79 651.57 1727.24 640.443C1745.21 647.266 1730.57 639.884 1723.48 637.261C1721.64 636.564 1720.69 637.271 1718.02 636.371C1714.68 635.262 1711.25 633.032 1709.58 632.438C1707.71 631.776 1716.18 638.627 1702.31 631.107C1708.22 636.687 1722.47 640.699 1728.44 645.669C1740.38 655.654 1716.26 644.31 1713.4 643.362C1712.67 643.108 1714.13 645.411 1713.63 645.262C1712.85 645.014 1699.42 637.756 1697.36 638.087C1695.35 638.423 1702.45 640.477 1702.21 641.728C1702.02 642.542 1684.46 635.734 1693.23 640.568C1699.21 643.86 1712.53 646.66 1712.4 650.586C1703.18 646.375 1693.9 642.235 1684.5 638.079C1688.79 641.628 1693.04 645.169 1697.26 648.719C1686.78 644.129 1678.74 638.605 1667.79 635.582C1688.93 650.401 1658.22 634.881 1657.55 635.175C1657.22 635.369 1664.58 642.729 1665.71 643.982C1656.7 641.198 1631.3 630.082 1643.53 640.594C1641.41 638.514 1633.57 637.539 1633.59 637.749C1633.35 639.753 1648.11 645.275 1644.83 645.659C1641.09 646.131 1638.87 642.078 1634.64 640.349C1621.3 634.908 1616.33 637.1 1609.63 636.931C1605.23 636.721 1600.45 635.759 1592.03 631.04C1592.28 631.556 1592.5 632.059 1592.75 632.576C1588.42 630.391 1583.39 627.782 1579.67 625.806C1577.77 624.807 1577.15 624.459 1576.32 624.044C1575.48 623.625 1573.95 622.96 1572.13 622.214C1564.54 619.127 1555.4 615.632 1546.56 612.197C1540.44 609.822 1534.31 607.482 1528.18 605.18C1517.51 604.591 1492.11 598.014 1480.11 593.952C1477.7 593.11 1466.37 587.978 1465.58 587.465C1464.13 586.469 1473.49 589.111 1469.75 586.933C1468.97 586.444 1448.74 579.76 1449.46 581.745C1451.68 582.585 1459.26 583.939 1460.25 584.653C1464.72 587.862 1441.05 580.473 1422.04 575.256C1409.27 571.686 1400.11 568.823 1398.62 568.825C1399.91 569.78 1401.09 570.698 1402.42 571.659C1398.23 570.14 1394.09 568.615 1389.92 567.076ZM1644.45 507.24C1646.49 507.141 1649.94 508.45 1653.33 510.105C1656.7 511.743 1658.89 513.099 1660.64 513.691C1665.36 515.306 1676.29 513.176 1669.44 517.266C1666.12 515.962 1663.01 514.721 1659.49 513.259C1656.37 511.971 1649.59 508.972 1644.45 507.24ZM1533.4 466.168C1538.2 468.599 1532.52 470.633 1528.93 467.961C1528.53 467.661 1526.88 462.899 1533.4 466.168ZM1586.72 485.423C1586.48 485.392 1582.11 483.784 1581.98 483.681C1578.72 481.009 1591.89 485.865 1586.72 485.423ZM1328.46 409.011C1334.35 410.527 1331.54 406.302 1327.38 406.531C1327.11 406.546 1328.08 408.91 1328.46 409.011ZM1332.56 410.272C1335.71 414.234 1347.28 411.393 1339.93 409.876C1339.18 409.721 1332.41 410.076 1332.56 410.272ZM1551.27 473.3C1550.17 474.136 1545.07 471.933 1542.91 470.97C1543.44 470.051 1548.98 472.693 1551.27 473.3ZM1418.85 434.285C1418.27 435.039 1436.16 440.487 1437.88 439.782C1434.85 439.379 1419.46 433.637 1418.85 434.285ZM1371.92 421.227C1372.32 421.506 1378.71 423.203 1378.88 422.434C1376.28 420.568 1370.15 419.963 1371.92 421.227ZM1271.56 394.587C1271.15 394.724 1274.66 400.259 1263.29 395.064C1261.62 394.305 1268.59 394.182 1268.01 393.91C1266.74 393.346 1265.7 393.009 1264.86 392.839C1270.81 393.418 1277.09 394.371 1277.62 394.776C1279.96 396.631 1271.75 394.526 1271.56 394.587ZM1216.92 389.953C1215.52 390.56 1208.25 389.163 1206.67 388.63C1206.39 388.533 1208.28 386.679 1204.9 386.395C1202.19 386.173 1205.55 388.756 1200.44 387.754C1195.28 386.749 1202.76 386.175 1202.34 386.012C1201.76 385.791 1193.34 385.685 1193.95 384.517C1194.41 383.647 1202.95 385.358 1205.17 385.455C1208.01 385.572 1205.12 383.649 1209.64 384.574C1212.49 385.157 1210.07 387.553 1210.64 387.766C1211.11 387.933 1221.74 387.805 1216.9 389.943C1216.91 389.946 1216.91 389.95 1216.92 389.953ZM1263.25 392.693C1263.72 392.678 1264.25 392.716 1264.86 392.839C1264.32 392.787 1263.79 392.74 1263.25 392.693ZM1627.99 502.34C1625.82 500.631 1634.06 502.459 1636.66 504.647C1636.24 505.451 1628.25 502.573 1627.99 502.34ZM1257.17 393.933C1248.89 391.941 1255.39 391.997 1263.25 392.693C1260.61 392.773 1259.98 394.616 1257.17 393.933ZM1482.94 455.231C1482.69 454.95 1482.61 454.596 1482.8 454.105C1483.45 454.877 1483.39 455.184 1482.94 455.231ZM1466.4 449.625C1459.98 449.423 1471.66 452.767 1472.11 451.681C1472.22 451.268 1466.76 449.667 1466.4 449.625ZM1321.06 406.765C1321.59 407.079 1310.35 408.968 1325.22 409.351C1318.31 406.816 1326.1 408.453 1326.16 408.032C1326.38 406.814 1313.92 404.566 1311.36 403.356C1308.34 404.792 1319.38 405.747 1321.04 406.761C1321.05 406.762 1321.05 406.764 1321.06 406.765ZM1121.71 377.79C1123.74 376.73 1129.1 377.642 1132.74 378.08C1130.71 379.124 1125.35 378.199 1121.71 377.79ZM188.094 574.526C210.765 575.209 212.187 580.226 192.473 576.806C192.121 576.74 186.571 574.91 188.094 574.526ZM367.209 558.238C369.358 559.614 364.474 561.93 360.865 562.224C360.046 562.303 356.758 561.167 359.845 559.708C360.332 562.219 365.611 561.394 367.209 558.238ZM1251.89 394.541C1248.94 395.576 1241.71 393.41 1237.82 392.621C1240.59 391.789 1248.51 393.536 1251.89 394.541ZM258.884 577.553C261.28 577.583 263.092 575.599 262.687 575.468C260.89 574.866 256.228 576.634 258.884 577.553ZM1276.84 398.999C1276.86 399.888 1266.15 398.847 1266.21 396.648C1268.31 397.152 1276.76 398.402 1276.84 398.999ZM1128.46 379.093C1129.91 379.68 1121.59 379.681 1119.16 379.021C1119.62 378.12 1127.55 378.708 1128.46 379.093ZM297.335 573.776C299.431 573.712 304.632 573.132 305.208 572.3C305.938 571.276 298.341 572.515 297.335 573.776ZM-99.0127 532.218C-99.1118 531.819 -90.0028 531.724 -86.7478 533.302C-80.5508 536.333 -98.8265 532.559 -99.0127 532.218ZM235.741 579.508C229.057 577.915 236.508 579.432 236.442 577.55C231.821 577.641 220.274 577.773 227.965 579.465C229.468 579.791 233.576 579.454 235.741 579.508ZM242.023 579.926C242.856 579.289 248.001 577.166 243.72 577.472C241.725 577.616 238.274 579.868 242.023 579.926ZM-49.3512 544.541C-44.2472 547.626 -70.453 540.111 -71.0947 539.538C-71.4316 539.282 -71.6326 539.071 -71.7293 538.912C-72.9364 539.167 -78.0146 537.906 -78.0024 536.455C-76.5436 536.972 -72.3755 537.961 -71.9644 538.229C-71.7862 538.345 -71.6586 538.443 -71.5792 538.529C-69.2909 537.927 -50.3314 544.014 -49.3512 544.541ZM-6.02752 555.688C-13.5775 556.864 -13.2027 552.496 -12.5784 552.482C-4.74167 552.193 -10.5755 554.317 -10.4101 554.502C-9.99225 554.841 -4.34008 554.394 -6.04836 555.684C-6.04141 555.685 -6.03446 555.686 -6.02752 555.688ZM-40.6227 547.35C-40.9179 547.345 -46.4247 545.908 -46.6276 545.785C-50.5986 543.343 -35.0292 547.393 -40.6227 547.35ZM1176.35 387.814C1171.97 386.865 1176.84 385.857 1179.67 386.769C1179.9 386.853 1180.22 388.655 1176.35 387.814ZM245.463 579.379C246.437 579.719 271.405 579.399 270.051 577.101C267.96 577.646 239.607 577.828 245.463 579.379ZM417.742 537.239C412.453 539.62 417.45 535.036 420.541 534.532C421.681 534.345 419.084 536.635 417.742 537.239ZM1291.59 404.279C1297.3 404.369 1294.58 408.043 1290.6 405.598C1290.44 405.502 1291.36 404.275 1291.59 404.279ZM379.693 554.571C382.496 552.851 384.817 551.858 386.294 551.565C388.536 551.024 388.915 551.896 387.268 553.579C385.542 555.508 381.157 558.491 374.838 560.287C375.183 559.81 375.524 559.332 375.863 558.852C359.302 564.782 374.406 559.181 378.524 556.688C380.073 555.79 378.28 555.423 379.678 554.569C379.683 554.57 379.688 554.57 379.693 554.571ZM444.727 525.999C462.574 524.032 430.432 533.315 420.826 538.472C429.321 532.573 441.186 527.978 424.419 532.913C447.78 522.631 438.478 528.689 439.523 528.376C440.69 528.089 443.925 526.099 444.727 525.999ZM399.525 546.057C398.565 546.675 391.103 549.382 388.854 550.722C391.268 547.632 405.591 541.995 399.525 546.057ZM41.0131 561.577C40.3506 562.453 39.3406 563.111 37.0063 563.035C36.1054 563.013 34.9931 562.862 33.6092 562.538C34.5275 562.279 35.9091 562.104 37.3292 561.942C38.6227 561.822 39.9398 561.713 41.0131 561.577ZM1647.2 516.52C1652.55 519.102 1657.42 522.246 1656.61 520.136C1656.55 520.036 1654.86 519.195 1652.65 518.245C1650.48 517.304 1647.41 516.151 1647.2 516.52ZM316.773 574.114C317.572 574.25 335.063 571.277 328.956 570.914C327.225 570.883 311.037 573.573 316.773 574.114ZM218.945 580.997C220.57 580.994 227.163 580.619 227.347 580.299C227.936 579.214 219.808 579.96 218.945 580.997ZM1662.96 525.831C1663.16 526.11 1672.41 530.195 1671.8 529.136C1670.55 527.123 1661.91 524.773 1662.96 525.831ZM1159.05 388.986C1158.09 388.927 1157.25 387.359 1156.93 387.307C1156.17 387.185 1138.6 385.859 1145.78 384.741C1147 384.523 1171.78 388.039 1174.94 388.636C1175.62 390.74 1165.53 387.625 1162.87 387.536C1162.41 387.522 1161.65 389.128 1159.07 388.978C1159.06 388.981 1159.06 388.983 1159.05 388.986ZM15.3107 559.57C14.2288 560.767 -4.19935 558.526 -3.43395 557.017C2.81147 557.953 9.05888 558.805 15.3107 559.57ZM24.4471 561.123C28.0447 562.541 18.8702 561.569 16.3315 560.76C16.5785 559.932 23.9245 560.927 24.4471 561.123ZM254.962 584.499C256.923 584.094 251.168 582.568 252.536 582.144C253.414 581.884 257.648 582.345 259.076 581.693C259.486 581.491 255.266 580.014 253.994 580.148C252.178 580.337 253.787 581.604 251.818 581.708C245.278 582.05 239.557 581.299 233.397 581.497C232.839 581.517 237.035 582.35 232.291 582.471C231.553 582.49 227.328 581.19 221.619 581.495C220.314 581.95 219.048 582.318 217.838 582.613C210.841 585.204 202.119 581.274 187.937 581.535C188.485 582.024 199.732 584.032 200.33 584.088C205.406 584.746 212.901 585.35 217.431 585.406C228.213 585.435 239.675 585.108 247.75 584.753C251.325 584.597 249.698 583.741 251.232 583.636C252.446 583.551 250.821 585.353 254.962 584.499ZM1644.06 516.244C1644.67 517.51 1647.38 518.916 1649.83 520.062C1652.3 521.215 1654.43 521.989 1655.98 522.807C1655.86 521.811 1654.47 521.015 1652.24 519.98C1650.09 518.981 1646.5 517.513 1644.06 516.244ZM111.923 572.941C113.882 573.099 119.671 574.292 120.327 573.833C121.147 573.231 112.684 571.826 111.923 572.941ZM1049.46 382.266C1049.07 382.281 1040.1 383.45 1039.74 383.532C1035.81 383.583 1040.3 382.388 1045.11 381.781C1049.76 381.199 1053.71 381.272 1049.46 382.266ZM935.586 384.451C930.631 385.145 926.123 386.283 924.601 385.104C927.344 384.905 936.169 383.401 935.586 384.451ZM767.561 415.227C768.632 416.763 755.699 418.747 753.319 419.27C754.016 418.223 766.743 414.055 767.561 415.227ZM40.0903 567.383C38.0641 567.107 36.7166 567.202 35.7129 567.411C33.6805 567.888 33.1438 568.894 30.7903 567.709C30.2328 567.415 29.9818 561.444 35.8814 564.397C36.6903 564.797 34.0014 565.358 36.0399 566.305C36.7629 566.617 38.0201 566.973 40.0903 567.383ZM372.495 561.247C371.752 562.833 368.071 563.968 365.622 564.76C365.939 563.744 370.815 562.082 372.495 561.247ZM1678.69 534.865C1680.35 537.654 1693.38 542.194 1691.01 539.756C1690.71 539.438 1680.39 535.724 1678.69 534.865ZM1233.02 397.446C1226.67 397.926 1238.81 400.107 1243.16 399.409C1241.38 399.224 1233.46 397.413 1233.02 397.446ZM809.668 408.166C809.388 408.272 803.296 409.186 803.024 409.163C797.984 408.63 815.215 406.036 809.668 408.166ZM982.429 387.279C980.448 388.134 969.976 386.889 964.926 385.603C963.442 385.346 962.251 385.13 961.459 384.935C962.24 384.762 963.518 384.663 965.159 384.662C971.401 384.317 985.019 386.229 982.429 387.279ZM67.0386 569.775C62.3647 569.281 58.1276 568.426 53.9659 567.438C55.1706 566.622 66.7459 569.024 67.0386 569.775ZM784.989 412.615C784.596 412.684 784.206 412.655 783.83 412.717C784.224 412.679 784.611 412.649 784.989 412.615ZM169.779 581.962C173.431 582.696 173.139 580.916 172.906 580.84C170.255 580.019 165.565 581.119 169.779 581.962ZM1648.24 521.166C1649.16 523.448 1655.25 525.072 1657.94 526.818C1657.72 525.267 1652.02 522.81 1648.24 521.166ZM463.033 522.124C468.646 521.682 448.312 531.475 443.416 532.402C442.852 531.507 462.253 522.14 463.033 522.124ZM1250.81 402.532C1250.78 403.777 1259.94 403.74 1258.3 402.881C1257.27 402.326 1250.8 401.744 1250.81 402.532ZM432.304 536.247C430.369 537.437 425.135 538.456 426.591 537.071C428.478 535.281 432.803 535.926 432.304 536.247ZM282.303 583.682C283.086 583.817 293.566 581.567 289.321 580.759C286.388 580.195 285.821 581.976 285.116 582.047C284.348 582.143 267.639 581.386 282.303 583.682ZM576.255 481.523C572.189 483.485 566.974 484.843 562.616 486.474C564.187 485.134 574.212 481.255 576.255 481.523ZM1217.7 398.022C1218.54 398.598 1246.52 402.951 1231.05 399.149C1230.13 398.913 1215.04 396.118 1217.7 398.022ZM40.0903 567.383C40.9061 567.495 41.8332 567.664 42.8886 567.913C41.8195 567.737 40.8977 567.543 40.0903 567.383ZM113.663 576.219C111.915 576.924 119.361 578.016 121.685 577.797C122.695 576.808 113.88 576.119 113.663 576.219ZM562.61 487.73C560.203 489.127 555.5 490.303 552.387 491.505C552.698 490.555 561.284 487.367 562.61 487.73ZM744.771 425.412C738.968 426.57 732.22 428.865 732.307 429.849C732.162 429.736 731.85 429.664 731.384 429.639C730.916 429.612 725.132 431.883 722.579 432.36C706.262 434.984 782.893 413.504 738.847 428.986C740.806 427.788 742.761 426.601 744.771 425.412ZM1000.58 390.592C1002.97 391.928 1010.35 390.554 1008.59 390.031C1007.43 389.704 998.252 389.276 1000.58 390.592ZM875.617 399.756C876.525 399.788 884.594 397.339 884.767 396.671C879.949 396.946 871.559 399.565 875.617 399.756ZM1019.07 392.255C1020.47 392.405 1022.17 390.371 1022.06 390.29C1021.04 389.637 1016.83 391.212 1019.07 392.255ZM51.9727 574.244C54.4756 575.121 63.2184 574.695 65.4386 573.623C65.7032 573.912 66.522 574.346 68.0684 574.933C68.0634 574.932 68.0584 574.932 68.0533 574.931C70.2186 575.761 137.441 584.144 92.9514 576.416C91.5633 576.172 93.1767 577.559 87.4593 576.679C87.0799 576.619 87.1682 575.651 85.9932 575.466C83.3667 575.056 69.0152 572.748 65.9356 573.17C65.9625 572.991 65.8245 572.803 65.4705 572.602C62.2723 570.813 50.0822 573.573 51.9727 574.244ZM859.823 403.092C861.468 403.114 866.452 401.783 866.943 400.851C864.373 400.96 856.095 403.021 859.823 403.092ZM1217.49 401.555C1220.47 402.674 1229.05 402.554 1226.8 401.524C1225.43 400.885 1214.02 400.256 1217.49 401.555ZM912.727 392.52C891.954 395.134 907.751 393.451 904.633 395.211C907.302 394.302 909.964 393.408 912.727 392.52ZM-25.4501 558.945C-22.9177 559.77 -26.9608 561.508 -29.3589 559.597C-30.1067 558.994 -26.8672 558.487 -25.4501 558.945ZM-144.203 527.232C-142.814 530.052 -154.046 525.093 -148.714 525.145C-148.447 525.17 -144.34 527.094 -144.203 527.232ZM-61.9824 552.247C-59.567 551.273 -58.3348 551.404 -53.4471 552.985C-61.081 551.555 -54.705 554.526 -61.9824 552.247ZM732.398 429.98C732.351 429.935 732.312 429.902 732.307 429.849C732.357 429.888 732.385 429.931 732.398 429.98ZM1028.52 391.167C1028.94 391.712 1029.74 391.849 1031.09 391.532C1032.41 391.22 1033.97 390.544 1032.74 390.192C1032.62 390.16 1030.94 390.327 1030.08 390.433C1029.14 390.554 1028.67 390.686 1028.52 391.167ZM65.4386 573.623C65.2034 573.366 65.3989 573.241 65.9356 573.17C65.9102 573.337 65.7356 573.478 65.4386 573.623ZM1004.3 392.789C1004.85 391.891 995.825 391.19 995.501 391.268C989.889 392.631 1000.86 392.774 1004.3 392.789ZM1284.33 414.015C1284.97 414.059 1282.28 410.879 1279.66 411.318C1277.62 411.653 1282.18 413.896 1284.33 414.015ZM-79.381 548.367C-82.1821 547.616 -86.1299 546.539 -86.3497 545.243C-84.5498 545.93 -78.9567 547.58 -79.381 548.367ZM-140.412 530.19C-136.271 530.051 -128.394 532.671 -123.567 534.552C-124.324 536.25 -136.888 530.861 -140.412 530.19ZM43.8769 572.607C44.1253 572.71 51.6289 574.142 50.9224 572.847C49.9284 570.954 41.8895 571.711 43.8769 572.607ZM1267.95 409.361C1264.83 409.488 1268.94 411.999 1273.04 412.449C1274.22 412.589 1275.4 412.604 1276.45 412.407C1277.68 412.183 1275.95 411.437 1273.67 410.755C1271.36 410.022 1268.28 409.342 1267.95 409.361ZM1054.78 388.678C1058.28 388.139 1055.97 387.75 1051.81 387.862C1047.81 387.933 1041.59 388.871 1040.28 389.74C1044.16 389.084 1052.34 389.02 1054.78 388.678ZM889.354 400.213C905.044 400.734 896.215 395.999 893.489 397.078C893.1 397.231 888.959 400.206 889.354 400.213ZM1705.35 555.686C1707.39 556.055 1701.96 551.389 1700.36 552.038C1699.4 552.465 1704.06 555.457 1705.35 555.686ZM659.679 455.484C660.296 455.254 660.905 455.027 661.507 454.804C661.068 455.018 660.476 455.246 659.679 455.484ZM1103.15 394.868C1093.69 389.026 1093.8 393.01 1092.92 392.917C1090.75 392.715 1086.53 391.072 1082.18 391.094C1087.11 390.757 1091.75 390.479 1096.13 390.216C1093.39 389.385 1060.72 386.322 1057.81 387.82C1057.19 388.428 1059.98 388.476 1063.1 388.489C1065.84 388.499 1069.03 388.457 1069.06 388.509C1069.49 388.657 1070.63 391.898 1071.63 392.041C1073.75 392.069 1099.64 393.642 1103.15 394.868ZM923.201 393.804C920.434 393.814 919.593 392.684 918.326 393.177C917.898 393.346 917.852 394.556 916.395 395.095C918.599 394.656 920.924 394.215 923.201 393.804ZM1123.3 392.068C1125.88 393.827 1112.72 392.011 1112.31 391.821C1110.3 390.61 1121.19 390.612 1123.3 392.068ZM1008.5 393.974C1008.9 394.098 1017.37 394.582 1017.24 393.725C1015.32 393.191 1003.9 392.802 1008.5 393.974ZM914.582 395.466C910.554 395.961 903.125 396.073 904.089 397.719C904.095 397.718 904.1 397.717 904.106 397.716C907.529 396.949 911.032 396.191 914.582 395.466ZM1254.34 411.085C1259.96 415.059 1258.05 410.885 1252.56 409.015C1250.34 410.023 1253.44 410.443 1254.34 411.085ZM1275.37 417.118C1277.63 417.999 1296.94 422.156 1294.59 419.94C1293.97 419.157 1282.17 417.763 1281.72 417.586C1280.95 417.248 1285.44 416.426 1278.94 415.34C1279.1 415.985 1274.75 416.8 1275.37 417.118ZM1259.15 413.833C1264.94 417.14 1267.94 413.404 1262.93 412.511C1261.01 412.171 1258.3 413.356 1259.15 413.833ZM1232.73 409.331C1234.9 410.049 1240.96 411.54 1245.67 410.862C1239.98 409.855 1234.3 408.889 1228.63 407.951C1227.72 408.619 1230.81 408.694 1232.75 409.333C1232.74 409.332 1232.74 409.332 1232.73 409.331ZM-174.947 531.685C-176.398 531.648 -175.991 532.276 -175.1 533.128C-174.125 534.037 -173.307 535.033 -173.172 534.952C-172.607 534.805 -172.378 534.222 -172.778 533.416C-173.156 532.612 -174.26 531.728 -174.947 531.685ZM1717.04 605.527C1717.93 606.507 1717.85 608.287 1720.96 608.834C1718.98 606.533 1717.02 604.248 1714.99 601.934C1711.36 603.273 1716.04 604.435 1717.04 605.527ZM1721.46 618.922C1721.07 618.805 1720.63 623.336 1717.46 618.632C1715.3 615.436 1734.09 622.488 1736.24 625.71C1732.23 624.69 1724.96 620.008 1721.46 618.922ZM1741.34 649.595C1741.38 649.983 1734.73 647.078 1734.04 646.474C1730.85 643.416 1741.51 647.566 1741.34 649.595ZM1720.95 638.34C1723.59 640.566 1716.39 637.612 1714.56 636.196C1714.83 635.441 1720.57 638.012 1720.95 638.34ZM-161.981 598.519C-159.67 602.295 -153.517 597.911 -159.718 597.122C-160.02 597.082 -162.071 598.342 -161.981 598.519ZM1732.6 649.912C1730 647.647 1737.11 650.675 1738.71 652.087C1738.41 652.819 1733.01 650.245 1732.6 649.912ZM-162.617 605.454C-158.737 608.925 -157.212 602.189 -157.665 601.743C-159.643 599.913 -169.468 599.469 -171.513 599.507C-158.271 602.82 -164.43 603.834 -162.617 605.454ZM-136.677 609.022C-131.66 609.706 -143.062 604.984 -146.172 606.047C-143.806 606.646 -138.109 608.833 -136.677 609.022ZM-108.833 619.001C-106.369 619.916 -98.928 622.452 -97.1938 621.787C-100.104 621.25 -107.291 618.278 -108.833 619.001ZM-104.332 623.499C-100.883 625.896 -98.1691 622.228 -103.351 622.186C-103.552 622.184 -104.447 623.386 -104.332 623.499ZM-82.0479 630.642C-80.0145 632.85 -75.3308 629.757 -79.6496 628.626C-80.9322 628.296 -82.2571 630.394 -82.0479 630.642ZM-158.714 614.517C-155.332 616.272 -149.257 614.982 -157.02 612.362C-154.047 612.769 -151.071 613.172 -148.088 613.571C-153.686 610.941 -156.37 611.158 -158.215 611.608L-159.433 611.222C-160.767 611.503 -161.66 611.923 -162.799 611.462C-166.666 609.899 -164.732 606.97 -163.426 606.284C-167.695 607.033 -181.502 602.46 -189.481 600.418C-183.04 603.315 -172.38 608.426 -165.733 611.259C-163.941 612.023 -161.739 611.892 -160.088 612.456L-158.822 612.858C-158.73 612.886 -158.639 612.915 -158.551 612.947C-155.799 613.937 -158.9 614.412 -158.729 614.513C-158.724 614.515 -158.719 614.516 -158.714 614.517ZM-51.4301 637.482C-44.0299 640.891 -47.6695 636.018 -52.4847 635.774C-52.7008 635.787 -51.6151 637.397 -51.4301 637.482ZM1733.09 664.816C1726.37 659.227 1733.8 660.313 1713.32 654.068C1722.58 655.84 1714.8 652.771 1716.91 652.675C1718.6 652.61 1722.78 655.456 1721.07 652.777C1723.2 655.698 1740.13 664.182 1736.26 662.41C1736.27 662.417 1736.28 662.425 1736.3 662.432C1736.09 662.342 1735.86 662.53 1735.75 662.941C1735.64 663.344 1735.62 663.938 1735.4 664.369C1734.99 665.242 1734.01 665.649 1733.09 664.816ZM-113.311 628.952C-112.79 634.258 -108.468 627.207 -105.035 632.369C-95.7176 628.606 -123.934 627.409 -124.792 621.822C-97.4254 629.916 -140.855 612.171 -124.861 624.473C-139.52 617.524 -130.462 623.894 -133.328 624.104C-136.395 624.324 -144.822 620.743 -145.18 622.579C-145.175 622.581 -145.17 622.582 -145.165 622.584C-139.662 624.031 -134.135 625.461 -128.58 626.865C-132.228 621.678 -121.544 625.901 -119.077 629.943C-117.155 629.616 -115.232 629.286 -113.311 628.952ZM-142.728 616.865C-142.243 617.112 -130.147 619.96 -130.56 618.996C-131.941 618.095 -148.966 613.846 -142.728 616.865ZM-194.074 601.594C-190.211 602.768 -184.454 605.436 -181.585 604.763C-185.575 603.454 -191.3 600.835 -194.074 601.594ZM31.2644 653.376C37.2676 652.869 19.9709 650.451 24.5917 652.446C24.8207 652.542 30.9555 653.397 31.2644 653.376ZM-100.399 631.535C-95.3617 634.382 -96.0613 629.207 -100.757 629.314C-101.03 629.321 -100.632 631.404 -100.399 631.535ZM1726.26 661.892C1725.31 662.751 1713.11 655.643 1710.73 654.508C1712.74 654.193 1727.55 660.923 1726.26 661.892ZM-202.67 603.735C-197.364 609.667 -184.332 608.658 -183.216 609.134C-182.101 609.613 -184.806 610.72 -184.561 610.853C-184.031 611.118 -171.462 615.106 -170.776 615.211C-170.297 615.264 -171.288 612.127 -168.326 612.238C-174.14 611.81 -196.427 603.655 -197.496 603.757C-198.449 603.729 -193.232 608.128 -202.657 603.739C-202.661 603.738 -202.666 603.737 -202.67 603.735ZM-180.543 610.613C-183.156 608.585 -174.324 611.335 -172.391 612.423C-168.116 614.816 -180.219 610.844 -180.543 610.613ZM-158.261 618.998C-157.318 619.54 -147.829 622.541 -146.464 621.647C-150.323 618.876 -160.407 617.764 -158.261 618.998ZM-48.0772 646.631C-45.3633 647.014 -38.316 649.277 -37.5196 648.339C-40.2697 648.004 -47.281 645.713 -48.0772 646.631ZM1676.53 648.264C1679.67 650.784 1670.95 647.047 1668.69 645.488C1668.98 644.811 1676.27 648.05 1676.53 648.264ZM-103.631 641.276C-102.316 642.064 -70.3431 648.831 -65.5594 649.194C-69.7648 647.619 -101.045 640.129 -102.53 640.044C-102.988 640.05 -103.806 641.179 -103.631 641.276ZM-171.404 622.612C-174.767 623.163 -175.542 620.887 -175.865 620.753C-178.967 619.453 -185.716 617.617 -183.564 616.708C-178.25 619.085 -164.73 621.519 -171.404 622.612ZM-48.3075 653.783C-37.0546 655.353 -57.6633 649.702 -55.4617 651.768C-55.3258 651.901 -49.4722 653.627 -48.3075 653.783ZM-107.311 640.81C-110.26 641.468 -140.643 632.063 -145.423 630.603C-140.027 629.689 -137.277 632.333 -131.303 633.865C-129.689 634.275 -129.697 633.255 -129.524 633.301C-126.735 634.022 -129.292 634.493 -127.59 634.978C-126.552 635.323 -103.315 640.024 -107.311 640.81ZM-173.412 623.103C-175.464 623.348 -193.172 617.939 -193.682 617.566C-198.109 614.219 -174.692 622.276 -173.412 623.103ZM-105.301 643.481C-109.815 645.175 -124.507 639.396 -113.364 640.924C-112.304 641.075 -108.508 643.287 -105.301 643.481ZM-50.4089 655.999C-49.9107 656.198 -38.4883 658.874 -37.9768 658.074C-39.5721 657.495 -56.2972 653.975 -50.4089 655.999ZM-57.4448 657.576C-57.16 657.61 -59.2561 655.503 -53.93 656.779C-53.484 656.882 -53.3279 658.839 -46.2336 659.487C-44.7954 659.615 -42.2083 658.839 -42.3375 658.737C-48.4602 654.713 -71.7227 655.632 -57.4448 657.576ZM-174.468 624.378C-173.9 625.418 -177.307 626.791 -178.811 625.014C-179.448 624.252 -177.111 623.519 -174.468 624.378ZM-13.5702 663.049C-20.9226 663.421 0.697715 666.761 1.95347 666.478C1.48714 665.576 -12.8506 663.051 -13.5702 663.049ZM1661.48 653.726C1661.48 653.728 1661.49 653.73 1661.49 653.732C1657.08 651.278 1660.61 651.59 1660.43 651.458C1651.54 645.268 1652.56 648.833 1650.84 648.382C1647.18 647.446 1649.49 644.796 1643.15 643.376C1653.58 645.978 1644.64 642.745 1645.06 641.617C1646.73 636.978 1656.16 649.354 1661.34 650.675C1662.08 650.865 1658.17 647.285 1660.08 647.696C1666.26 649.011 1678.6 663.276 1661.48 653.726ZM-180.504 624.672C-183.469 625.137 -199.702 618.48 -194.694 618.87C-193.958 618.864 -176.232 623.901 -180.504 624.672ZM750.728 525.697C746.699 528.11 756.842 526.345 758.404 525.003C759.224 524.303 752.53 524.615 750.728 525.697ZM820.173 515.073C826.074 513.793 832.104 507.893 824.749 509.976C823.983 510.197 819.469 514.535 820.173 515.073ZM470.373 629.451C476.011 628.927 474.739 626.14 470.983 627.716C469.65 628.279 470.2 629.466 470.373 629.451ZM686.44 549.499C687.016 549.407 693.55 546.899 693.106 546.307C690.599 546.734 682.572 550.083 686.44 549.499ZM468.917 630.526C471.75 628.757 465.778 628.812 463 632.37C464.742 631.423 468.607 630.713 468.917 630.526ZM-96.4516 653.303C-93.04 652.726 -85.0615 655.043 -80.2448 655.883C-80.4358 657.676 -93.0132 653.832 -96.4516 653.303ZM796.295 517.269C800.841 515.245 790.916 516.095 791.948 517.496C792.071 517.552 796.112 517.348 796.295 517.269ZM262.4 689.413C266.679 688.106 253.456 687.654 256.975 689.19C257.145 689.254 262.162 689.489 262.4 689.413ZM204.918 691.249C207.965 691.565 221.304 691.127 216.245 690.262C215.467 690.141 205.279 690.322 204.918 691.249ZM1649.83 649.368C1650.12 651.587 1642.67 647.595 1641.8 646.825C1641.43 646.498 1649.53 646.511 1649.83 649.368ZM505.288 616.185C508.077 614.919 515.719 612.531 516.776 611.209C513.312 612.665 503.806 614.86 505.288 616.185ZM776.036 521.599C780.098 522.475 786.529 520.895 784.699 518.822C777.476 520.613 785.831 520.726 776.036 521.599ZM453.673 639.335C455.625 638.581 456.25 635.798 455.996 635.795C453.492 635.802 451.453 639.392 453.673 639.335ZM625.717 572.305C626.121 573.199 633.617 570.002 632.428 569.764C632.038 569.679 625.389 571.581 625.717 572.305ZM7.74178 672.875C9.43131 673.581 7.22463 673.816 4.30982 673.665C1.46691 673.505 -1.95485 673.005 -3.4197 672.281C-4.21212 671.085 1.04537 671.748 4.70928 672.313C6.33897 672.572 7.60865 672.824 7.74178 672.875ZM379.486 671.195C379.302 672.883 395.101 666.674 388.5 667.645C386.853 667.923 379.559 670.684 379.486 671.195ZM244.301 693.604C253.27 691.43 216.491 691.727 225.925 693.565C226.57 693.735 243.489 693.834 244.301 693.604ZM181.033 693.291C182.573 693.571 180.59 698.648 174.535 696.265C173.762 695.957 177.99 694.864 177.385 694.512C176.964 694.342 163.45 692.622 162.866 692.669C162.18 692.751 162.535 694.442 161.825 694.57C161.015 694.718 153.197 692.586 149.046 692.177C141.18 691.412 139.991 692.669 139.345 692.614C137.44 692.436 134.639 691.171 130.825 690.781C111.918 688.875 83.1904 686.786 69.3699 682.216C82.0833 684.879 94.8839 685.08 108.111 686.145C103.469 688.555 128.046 686.061 113.563 687.854C119.769 687.946 174.794 692.707 181.015 693.29C181.021 693.29 181.027 693.291 181.033 693.291ZM843.591 512.166C840.101 514.57 858.542 510.614 859.935 508.325C857.485 508.542 844.072 511.888 843.591 512.166ZM767.707 531.377C766.371 532.058 765.763 535.583 758.042 536.152C758.035 536.154 758.028 536.156 758.021 536.158C755.728 536.342 758.071 534.803 757.614 534.644C757.473 534.558 750.181 535.086 755.903 533.064C764.479 530.081 757.211 535.206 761.79 533.891C762.37 533.701 770.455 529.601 769.883 529.372C769.837 529.335 767.375 530.396 766.938 530.351C765.257 530.187 765.843 528.961 765.612 528.974C764.939 528.979 751.48 534.809 748.976 534.051C748.403 533.61 770.829 525.802 771.48 526.058C772.035 526.08 772.242 528.97 772.828 529.107C773.149 529.14 781.459 525.995 782.586 526.043C782.913 526.047 783.165 526.074 783.351 526.102C781.962 525.489 789.685 523.888 789.542 524.96C789.429 525.374 784.118 526.27 783.929 526.253C783.844 526.242 783.768 526.218 783.698 526.205C784.914 526.922 767.085 531.341 771.17 531.983C766.059 534.271 771.558 529.443 767.707 531.377ZM740.99 541.357C741.533 540.867 742.085 540.374 742.624 539.886C732.513 543.927 719.801 546.738 707.296 551.079C706.955 551.197 706.695 551.309 706.499 551.415C704.929 552.281 707.764 552.785 703.992 553.625C700.552 554.399 696.503 554.031 698.197 553.039C698.515 552.849 702.977 551.995 706.405 551.053C707.373 550.783 708.261 550.509 708.975 550.237C718.892 546.463 715.947 545.835 716.531 545.588C717.191 545.313 723.666 544.261 727.049 543.071C735.429 540.128 739.177 537.84 750.466 535.593C744.32 538.615 748.337 539.679 740.99 541.357ZM316.908 689.409C316.411 690.509 307.919 690.808 304.879 691.328C305.361 690.263 313.794 690.036 316.908 689.409ZM1358.48 554.519C1361.34 553.551 1346.14 548.416 1349.53 550.999C1350.27 551.566 1356.57 553.919 1358.48 554.519ZM1290.35 532.706C1288.11 532.553 1295.7 536.12 1296.29 534.875C1296.49 534.473 1290.62 532.718 1290.35 532.706ZM600.402 589.485C600.007 589.683 593.799 591.575 593.593 591.564C589.083 591.395 609.406 585.006 600.402 589.485ZM1211.4 515.985C1218.98 516.011 1197.39 512.2 1203.58 514.605C1203.89 514.718 1211.02 515.976 1211.4 515.985ZM1180.7 511.835C1182.51 512.017 1190.19 513.654 1190.44 513.163C1190.88 512.364 1182.05 510.55 1180.7 511.835ZM454.75 645.509C456.146 646.823 447.288 649.559 444.06 651.485C442.641 650.165 452.03 646.996 454.75 645.509ZM516.296 622.301C473.134 640.03 481.337 632.698 518.676 620.487C519.05 621.589 519.054 621.192 516.296 622.301ZM462.953 643.007C463.85 641.342 468.25 639.815 471.299 638.654C471.011 639.636 464.87 641.92 462.953 643.007ZM1375.69 562.668C1372.23 563.297 1361.28 557.853 1363.7 557.9C1364.22 557.912 1377.08 562.169 1375.69 562.668ZM597.001 592.383C598.548 593.693 584.644 598.024 583.469 598.039C578.793 598.076 596.011 593.158 597.001 592.383ZM380.602 679.473C377.549 681.896 368.028 683.863 362.168 685.261C364.647 683.457 375.419 681.095 380.602 679.473ZM424.514 663.486C424.231 663.71 416.082 667.317 415.647 667.408C408.561 669.177 431.412 659.041 424.514 663.486ZM1659.55 669.308C1659.32 669.253 1655.47 667.317 1655.35 667.196C1652.66 664.267 1664.35 670.16 1659.55 669.308Z" fill="#F3EDE9"/>
</g>
</svg>
