<svg width="1418" height="1127" viewBox="0 0 1418 1127" fill="none" xmlns="http://www.w3.org/2000/svg">
<path d="M1 15C1 6.71576 7.71573 0 16 0H1403C1411.28 0 1418 6.71573 1418 15V841.376C1418 849.66 1411.28 856.376 1403 856.376H16C7.7157 856.376 1 849.66 1 841.376V15Z" fill="#F7F3F0"/>
<mask id="mask0_67_51" style="mask-type:alpha" maskUnits="userSpaceOnUse" x="0" y="226" width="1417" height="901">
<path d="M0 241.122C0 232.837 6.71573 226.122 15 226.122H1402C1410.28 226.122 1417 232.837 1417 241.122V1112C1417 1120.28 1410.28 1127 1402 1127H15C6.7157 1127 0 1120.28 0 1112V241.122Z" fill="#F7F3F0"/>
</mask>
<g mask="url(#mask0_67_51)">
<path d="M1665.52 629.191C1664.45 628.779 1661.02 626.19 1658.49 624.776C1662.57 624.95 1669.26 630.632 1665.52 629.191ZM1388.97 668.555C1390.92 668.763 1392.78 668.933 1394.79 669.156C1389.95 667.075 1383.19 664.966 1378.85 662.889C1378.15 662.548 1380.64 661.998 1378.92 661.301C1377.19 660.6 1376.75 662.44 1374.09 661.672C1371.18 660.836 1358.7 654.822 1354.21 653.192C1337.42 647.115 1320.17 641.886 1303.99 635.226C1321.65 640.136 1305.02 632.6 1299.98 631.446C1298.88 631.216 1297.56 634.386 1280.96 627.644C1270.51 623.462 1282.31 622.159 1263.63 618.542C1275.81 626.3 1262.43 621.463 1252.22 618.403C1250.96 618.006 1240.09 614.328 1236.28 613.509C1235.07 613.231 1233.88 612.977 1232.88 612.784C1230.76 612.376 1226.85 613.405 1223.87 612.855C1221.79 612.471 1220.53 611.213 1217.36 610.654C1202.74 608.086 1187.7 605.626 1172.48 602.889C1182.56 599.792 1165.91 599.855 1165.24 599.543C1161.87 597.745 1178.52 599.975 1172.16 598.186C1162.97 596.891 1153.74 595.656 1144.51 594.48C1151.93 596.114 1133.64 596.863 1130.76 594.964C1131.27 598.725 1096.77 588.186 1085.89 587.109C1084.73 586.982 1083.84 586.942 1083.24 587.006C1082 587.209 1089.72 589.836 1070.73 587.27C1068.68 587.012 1069.65 585.857 1068.59 585.894C1068 585.922 1063.59 589.512 1060.35 587.233C1059.73 586.815 1061.63 586.06 1061.34 585.439C1061.19 585.129 1060.4 584.841 1058.75 584.682C1057.07 584.522 1054.02 584.501 1051.94 584.874C1052.75 585.819 1052.28 586.459 1051.57 586.874C1051.28 587.077 1051.08 587.228 1051.39 587.254C1051.52 587.271 1051.79 587.246 1051.93 587.226C1052.07 587.208 1052.06 587.201 1051.37 587.367C1048.73 588.196 1032.11 591.804 1024.34 592.036C1015.64 592.649 1009.92 592.403 1007.18 592.229C1009.18 592.721 1011.71 593.171 1013.91 593.594C1002.56 592.607 1001.13 593.744 998.817 593.698C989.67 593.348 978.739 591.458 971.18 591.099C962.723 590.688 962.312 593.136 952.505 591.386C954.836 592.125 957.099 592.85 959.299 593.563C952.978 592.961 947.055 592.336 940.652 591.63C940.767 591.63 940.861 591.627 940.933 591.622C940.874 591.499 940.798 591.382 940.714 591.272C948.849 590.346 945.24 590.449 940.823 590.651C941.349 591.081 941.077 591.514 941.019 591.545C940.914 591.604 940.948 591.301 940.979 591.004C940.997 590.708 941.051 590.415 940.718 590.504C940.681 590.519 940.672 590.838 940.538 591.175C940.391 591.515 940.161 591.862 939.276 591.994C937.28 592.287 935.806 592.17 934.98 591.921C934.127 591.682 933.676 591.353 932.252 591.58C931.935 591.651 933.209 592.521 927.823 593.732C909.097 598.272 928.101 592.735 928.472 592.592C928.905 592.412 927.471 591.434 927.831 590.372C928.043 589.358 930.946 587.969 936.772 588.108C932.934 588.031 931.902 586.159 931.453 586.166C931.159 586.118 922.101 588.066 921.456 588.306C916.737 589.983 921.177 590.508 920.275 590.95C919.712 591.233 906.953 592.168 904.509 597.102C897.514 594.758 907.769 592.638 917.403 589.975C918.758 588.848 907.676 590.487 906.993 590.669C892.09 594.145 900.911 595.386 898.001 598.17C896.427 599.643 889.849 598.973 896.082 600.433C882.208 604.073 890.343 600.412 889.408 600.382C887.98 600.353 883.16 602.362 882.506 602.407C881.553 602.47 884.583 600.717 880.872 601.252C880.258 601.348 874.727 604.44 882.423 603.425C872.274 605.621 873.35 606.858 869.321 604.8C863.277 611.955 863.573 602.788 860.75 603.135C853.102 604.086 856.069 607.87 855.702 608.176C853.23 610.185 831.962 613.443 826.761 615.149C828.359 611.611 843.542 611.458 846.677 610.098C857.209 605.63 831.053 612.002 838.325 606.312C835.218 608.116 832.005 609.931 828.877 611.715C822.349 610.496 830.894 607.6 814.519 611.94C812.131 614.682 826.153 609.176 823.515 611.486C821.997 612.855 812.405 615.047 812.28 615.609C812.199 616.291 820.759 613.755 819.545 615.014C818.655 615.901 814.817 616.957 810.658 617.779C803.697 619.17 796.247 619.596 809.092 616.054C803.686 617.198 800.291 613.604 796.052 615.984C793.485 617.569 810.087 619.238 786.567 624.329C785.605 622.48 795.734 621.217 795.985 621.047C796.313 620.737 793.629 616.744 793.262 616.608C791.944 615.898 768.375 625.614 761.78 625.9C764.916 627.429 741.656 634.011 739.162 635.956C738.552 636.435 741.659 636.908 740.985 637.359C736.841 640.078 723.473 642.469 717.578 644.844C714.376 646.128 713.028 647.031 712.469 647.62C711.928 648.21 712.17 648.489 711.99 648.563C709.143 649.669 711.065 647.856 709.329 648.585C706.74 649.652 688.436 657.207 687.622 657.779C687.375 657.95 690.937 658.136 687.063 660.115C686.378 660.467 686.163 658.52 674.654 664.347C660.82 671.365 685.378 662.248 680.201 666.602C670.044 667.951 671.373 670.379 668.812 671.25C667.937 671.542 660.674 672.136 653.787 675.295C658.619 672.778 663.475 670.258 668.289 667.764C663.261 669.488 653.934 674.092 649.717 675.426C647.662 676.075 648.567 673.585 644.305 675.501C643.4 675.92 641.569 681.819 651.984 674.992C653.508 676.15 647.767 677.463 645.47 678.982C645.123 679.214 644.699 682.443 640.886 682.216C639.965 682.157 645.154 670.989 626.056 685.789C625.441 686.266 628.216 686.162 627.625 686.652C627.221 686.985 621.616 688.994 621.069 689.393C620.513 689.806 623.567 689.681 622.917 690.206C619.59 692.899 612.981 690.981 620.855 687.89C618.06 688.521 615.256 689.157 612.46 689.791C616.5 691.649 608.74 692.449 605.201 694.12C582.445 704.865 598.677 700.076 595.151 702.854C589.469 707.326 592.167 699.911 583.362 705.668C582.545 706.205 594.909 703.384 572.061 711.986C575.34 710.434 578.569 708.905 581.845 707.355C578.705 705.224 570.018 712.821 569.284 713.195C560.669 717.485 566.149 713.796 553.756 721.082C552.649 721.734 549.778 722.133 547.455 723.592C537.686 729.688 561.505 718.471 562.615 719.403C563.211 719.84 537.3 731.104 536.271 731.219C531.972 731.645 547.82 725.483 544.198 725.256C543.7 725.205 536.968 728.252 528.843 731.947C517.769 736.969 504.42 743.292 500.278 744.803C492.081 747.755 486.87 745.441 488.841 749.924C484.702 746.57 484.185 750.467 483.199 750.91C471.581 756.15 471.608 756.095 462.927 761.348C461.048 762.505 458.693 762.175 458.126 762.785C457.8 763.146 459.325 764.063 457.607 765.617C456.152 766.913 448.964 770.692 442.279 774.13C437.679 776.539 433.431 778.538 432.577 778.656C430.463 778.944 442.335 772.355 439.468 772.417C431.368 777.238 422.573 782.75 412.573 787.523C408.403 789.49 410.12 787.543 408.314 788.389C407.603 788.844 393.344 795.998 394.062 795.995C396.447 797.079 439.231 773.949 428.709 781.389C426.835 782.883 418.13 784.964 420.608 786.78C400.426 797.171 378.32 804.914 358.056 809.851C339.143 814.495 321.09 817.457 303.454 819.632C319.973 815.603 338.659 813.157 357.761 808.454C362.599 807.26 367.457 805.912 372.263 804.364C375.555 803.383 386.955 799.644 385.144 798.762C376.395 801.81 366.887 804.814 357.518 807.307C344.842 810.693 332.394 813.254 321.876 814.552C321.296 814.623 323.266 812.979 321.088 813.156C317.013 813.53 304.216 817.564 302.013 817.292C301.635 817.229 308.851 814.483 306.527 813.734C300.607 811.809 299.61 818.093 294.68 818.65C290.789 819.204 265.606 818.783 259.487 820.997C252.876 823.545 277.901 820.642 276.128 822.361C259.06 825.671 242 824.945 226.286 825.72C226.007 825.735 228.377 826.933 224.839 827.239C218.712 827.76 217.183 825.969 214.259 825.751C212.769 825.643 209.533 825.694 206.378 825.696C200.696 825.724 196.523 825.444 195.528 825.059C195.314 824.967 198.295 823.25 198.748 823.206C202.364 822.872 204.923 823.422 206.482 823.975C207.277 824.405 207.687 824.846 207.879 824.856C209.553 824.916 211.249 823.984 212.775 824.003C215.303 824.035 216.647 824.833 219.97 824.809C222.274 824.793 220.115 823.266 222.343 823.268C223.115 823.287 231.846 826.597 232.768 822.833C232.912 822.345 220.989 822.374 206.589 822.194C177.708 821.49 155.378 817.606 150.469 817.833C156.282 818.951 162.138 820.038 168.166 821.077C155.958 818.798 141.222 820.029 141.066 815.538C97.4643 809.849 55.3454 803.309 13.0944 796.924C10.7997 796.478 9.65066 795.959 8.80193 795.427C6.70552 794.189 6.25529 792.968 -3.2181 792.031C0.0340955 793.487 3.32221 794.919 6.62925 796.325C-0.297871 794.87 -30.3731 788.086 -35.3142 787.459C-35.9618 787.393 -37.6079 789.739 -45.1641 788.274C-51.8608 786.953 -52.3026 784.82 -55.6905 783.622C-58.5415 782.615 -61.991 782.279 -62.8282 781.955C-63.4673 781.704 -63.3414 780.503 -64.8703 779.897C-69.6917 777.988 -66.7435 782.237 -70.436 777.268C-69.1753 777.448 -67.9126 777.625 -66.6477 777.8C-72.5368 775.701 -80.1209 771.802 -70.9774 773.37C-69.4015 773.633 -71.1025 774.381 -69.964 774.68C-24.8919 785.646 -60.2823 774.874 -76.3609 772.268C-79.8132 769.629 -102.225 764.146 -102.784 763.555C-103.609 762.788 -99.3693 762.649 -103.814 760.041C-104.822 759.568 -133.913 751.131 -122.686 752.375C-120.396 752.652 -106.783 757.528 -103.379 758.479C-109.922 752.689 -130.15 751.557 -132.13 750.72C-140.122 747.439 -115.09 753.079 -133.427 746.488C-147.448 741.367 -135.144 748.146 -141.004 747.247C-144.329 746.749 -159.097 738.713 -160.082 742.052C-161.21 741.733 -161.948 741.454 -162.413 741.211L-164.349 740.472C-166.089 739.446 -163.722 739.113 -164.184 738.81C-164.754 738.444 -175.221 735.329 -178.134 733.389C-178.486 733.15 -176.441 732.005 -176.782 731.709C-177.463 731.151 -187.184 727.732 -187.604 727.751C-187.893 727.754 -186.326 730.065 -187.416 730.058C-188.72 730.011 -197.501 726.312 -198.103 726.603C-199.132 726.926 -187.967 730.636 -190.533 731.581C-195.532 729.165 -204.029 727.363 -207.338 727.82C-206.522 727.643 -202.047 729.114 -200.441 729.859C-202.477 731.838 -211.577 728.776 -207.668 727.906C-210.027 728.307 -208.93 729.272 -210.391 729.902C-210.649 730.011 -211.983 729.686 -213.089 729.552L-217.357 728.097C-218.857 727.601 -220.252 727.107 -220.908 726.967C-221.034 726.953 -219.342 727.927 -217.713 728.832L-213.38 730.31C-212.748 730.856 -212.158 731.51 -212.581 731.7C-212.826 731.808 -213.292 731.809 -213.927 731.73L-218.381 730.211C-222.662 728.868 -231.657 724.69 -238.495 718.946C-245.391 713.311 -249.239 707.799 -249.844 706.88C-251.804 703.501 -248.944 707.294 -243.867 712.017C-238.856 716.846 -231.121 721.499 -229.738 721.618C-229.488 721.678 -234.915 717.661 -239.198 712.713C-243.57 707.812 -246.322 702.816 -246.336 702.652C-245.838 701.512 -242.495 706.156 -237.735 710.504C-233.058 714.9 -227.534 718.193 -228.364 716.555C-233.897 712.412 -238.697 707.196 -242.025 702.255C-236.557 708.783 -223.771 718.198 -214.041 721.258L-210.375 722.508C-205.214 723.638 -199.622 725.521 -196.936 725.11C-201.97 723.581 -206.356 722.265 -209.747 720.878L-213.274 719.675C-225.919 714.598 -234.337 703.875 -231.833 702.604C-230.591 701.582 -218.367 709.45 -218.435 708.314C-218.762 707.07 -223.394 704.263 -227.276 700.875C-231.212 697.544 -234.153 694.189 -234.293 693.926C-234.501 693.445 -234.541 693.19 -234.452 693.129C-234.452 693.129 -234.452 693.129 -234.452 693.129C-233.995 692.774 -230.325 697.526 -224.675 701.8C-219.045 706.184 -212.682 708.688 -212.144 708.67C-209.971 708.907 -217.541 700.748 -216.83 699.912C-216.528 700.313 -206.962 704.755 -205.667 703.984L-203.52 704.716C-203.387 704.614 -203.327 704.484 -203.366 704.316L-205.478 703.596C-205.562 703.443 -205.75 703.246 -206.068 702.987C-209.961 700.676 -221.331 691.615 -220.994 690.967C-221.424 689.904 -218.874 692.484 -214.888 695.079C-210.902 697.753 -205.895 699.678 -203.828 700.191L-202.015 700.809C-201.601 700.846 -201.319 700.851 -201.252 700.797C-201.191 700.754 -201.424 700.549 -201.804 700.262L-203.57 699.66C-205.828 698.37 -211.417 694.031 -211.335 693.511C-211.357 693.148 -205.31 695.952 -201.793 695.994L-200.349 696.486C-199.95 696.409 -199.565 696.319 -199.251 696.198C-198.349 695.866 -198.988 695.15 -199.62 694.593L-200.902 694.155C-201.677 693.553 -202.435 693.007 -201.965 693.132C-201.846 693.165 -201.358 693.36 -200.645 693.625L-199.409 694.046C-196.891 694.672 -189.971 696.97 -189.468 697.007C-188.633 697.012 -190.451 695.08 -189.995 694.913C-189.342 694.662 -186.307 696.201 -186.54 695.637C-186.687 695.238 -194.618 689.186 -196.689 686.986L-197.322 686.77C-197.728 686.329 -197.922 686.004 -197.835 685.868C-197.696 685.651 -197.329 685.649 -196.832 685.761L-196.289 685.947C-193.539 686.208 -185.592 691.347 -194.178 681.743C-194.194 681.726 -194.372 681.692 -194.634 681.651L-194.811 681.591C-195.785 681.367 -197.923 680.693 -197.969 680.606C-198.552 679.491 -196.061 679.8 -195.047 679.475C-193.929 679.04 -194.713 679.049 -199.748 675.531C-197.159 677.247 -194.88 677.882 -193.199 678.267L-193.315 678.227C-185.008 679.471 -189.938 677.191 -192.135 675.164L-191.757 675.293C-192.404 674.455 -192.517 673.684 -191.509 673.231C-191.313 673.142 -191.034 673.1 -190.689 673.089L-191.26 672.894C-188.224 672.766 -181.004 674.724 -180.926 674.598C-181.162 672.833 -184.593 672.988 -185.297 671.952C-185.666 671.342 -176.77 672.577 -178.178 670.954C-178.835 670.082 -187.912 667.366 -188.26 667.202C-188.528 667.035 -188.734 666.885 -188.893 666.75L-187.797 667.123C-188.187 666.397 -187.636 666.039 -187.115 665.718L-188.335 665.302C-187.683 665.076 -186.974 664.904 -187.192 664.523C-187.259 664.407 -187.513 664.252 -187.865 664.082L-186.541 664.534C-187.308 663.954 -187.997 663.475 -187.947 663.409C-187.861 663.314 -187.012 662.894 -185.603 662.599L-187.097 662.089C-185.463 662.104 -183.922 662.135 -183.249 662.079C-181.832 661.95 -186.081 659.776 -185.147 659.819C-179.403 660.024 -170.311 666.99 -178.557 658.907C-179.066 658.406 -183.128 657.27 -183.231 657.185C-185.211 655.098 -177.695 657.266 -175.976 656.652C-172.908 655.542 -184.001 653.105 -174.592 654.694C-177.559 653.02 -180.161 651.884 -182.822 650.992L-180.38 651.824C-180.66 651.571 -179.331 652.259 -178.498 653.379C-179.234 652.353 -180.558 651.416 -180.097 651.24L-182.59 650.39C-169.231 652.813 -165.117 650.852 -180.717 645.527L-177.808 646.519C-177.736 646.51 -177.255 646.677 -176.494 647.134C-177.442 646.611 -177.662 646.37 -177.6 646.09L-180.546 645.085C-177.148 645.259 -176.529 643.76 -174.734 644.282C-173.054 644.72 -163.358 651.185 -165.693 643.449C-165.937 642.474 -173.342 641.111 -170.501 640.294C-154.281 646.292 -169.579 639.431 -169.655 639.221C-166.67 635.745 -131.975 652.45 -126.239 654.487C-124.685 655.001 -123.215 655.357 -121.69 655.672L-123.666 654.917C-118.325 655.702 -113.631 655.356 -112.484 655.754C-107.694 657.424 -112.294 657.451 -111.452 658.344C-110.58 659.26 -95.8009 661.209 -95.2 661.564C-92.8298 663.048 -96.2192 663.832 -95.9831 664.009C-93.1569 666.179 -74.3932 670.794 -69.4762 672.704C-69.1931 671.568 -79.3585 668.27 -72.2737 668.511C-64.0452 668.763 -65.5564 673.715 -65.444 673.995C-33.1813 683.771 -0.962791 691.489 31.6266 696.099C33.5944 696.379 35.5501 696.657 37.4935 696.932C37.5384 696.09 35.2252 695.368 31.9364 694.751C25.2283 693.495 14.1811 692.52 13.8885 692.198C12.6327 690.841 22.1543 692.061 32.2507 693.383C42.5162 694.752 53.2892 696.544 55.6192 697.345C51.9074 696.219 48.1815 695.09 44.4665 693.962C51.7217 691.827 65.3699 697.9 75.1622 697.886C78.3442 697.883 72.7224 695.861 72.8701 695.798C76.5396 695.087 81.9317 696.799 77.4069 697.813C86.136 697.462 84.5901 698.992 90.9544 700.018C91.2907 700.07 88.7816 698.439 94.0351 698.644C96.4677 698.74 109.199 700.504 111.149 699.65C111.967 699.292 106.547 693.583 104.854 697.618C91.4532 693.671 100.013 698.891 94.6513 698.045C93.8294 697.906 96.2519 695.867 82.4362 695.043C86.0029 691.248 100.821 696.542 103.663 696.412C109.407 696.143 87.1893 690.824 82.253 693.472C84.9306 690.493 80.7604 692.809 75.6821 691.951C70.1849 691.022 72.8151 690.395 69.7966 689.961C61.5955 688.769 64.4493 691.545 58.1473 688.509C63.2809 695.858 46.3476 687.697 41.3844 685.252C50.1467 686.171 58.82 687.076 67.5645 687.985C67.1508 687.579 66.7361 687.172 66.3205 686.766C68.5643 687.134 70.8523 687.509 73.1187 687.88C72.6804 688.151 72.2415 688.421 71.8021 688.692C84.0118 688.261 86.3103 691.012 87.2793 691.177C99.5296 693.185 113.684 695.133 126.049 696.808C127.879 697.051 127.121 694.807 140.2 698.223C144.343 699.302 139.974 700.414 144.89 700.8C151.875 697.137 151.044 700.664 152.815 700.895C158.006 701.549 161.324 700.822 161.82 700.871C168.186 701.475 177.365 702.729 184.101 703.256C184.231 703.252 181.02 701.522 185.269 702.377C186.6 702.656 200.146 710.046 209.767 708.422C207.465 707.951 204.813 707.405 202.044 706.813C203.56 707.217 210.93 707.405 213.549 706.815C219.708 706.219 224.558 705.316 221.438 704.623C219.637 704.218 216.506 704.88 213.64 705.306C212.374 705.765 210.002 705.854 209.862 703.907C210.787 704.114 212.585 704.263 213.7 704.299C229.809 704.573 263.809 701.38 266.762 701.648C267.268 701.725 264.193 703.167 264.888 703.258C265.441 703.349 276.098 702.072 277.507 702.349C278.359 702.531 273.686 703.736 274.08 704.117C274.441 704.423 287.702 703.44 288.327 701.838C285.168 702.855 276.016 703.341 280.744 701.572C281.351 701.352 284.563 701.933 285.295 701.645C292.073 699.045 271.551 701.865 268.24 702.042C281.32 699.047 301.352 698.733 315.096 694.729C320.916 694.84 306.919 698.178 313.485 697.96C327.057 697.386 316.773 695.6 317.183 695.366C320.273 693.557 332.235 697.475 331.233 692.532C332.082 692.458 332.725 692.428 333.25 692.416C335.526 692.365 335.63 692.714 340.271 690.776C339.421 690.674 338.579 690.564 337.727 690.451C343.549 685.954 357.939 687.977 357.353 688.734C355.417 691.233 347.888 691.565 347.31 691.785C346.486 692.106 345.519 697.988 334.107 696.472C334.068 696.467 334.028 696.461 333.988 696.456C333.209 697.394 333.522 697.844 334.431 698.007C337.892 698.706 348.951 694.906 342.1 698.948C348.808 697.147 372.542 689.095 375.526 685.065C375.881 684.621 372.138 682.977 379.174 680.779C382.582 679.68 375.433 684.007 377.188 683.842C378.114 683.772 380.503 682.711 384.257 680.626C404.53 667.506 462.003 639.062 472.68 634.596C473.604 634.179 473.666 635.294 474.58 634.876C476.544 633.977 481.588 630.924 486.355 628.499C488.343 627.475 490.446 626.498 491.949 626C481.147 628.642 500.653 619.895 505.702 617.893C513.417 614.841 513.62 616.758 517.052 615.669C530.254 611.481 548.152 598.806 559.552 598.239C557.463 594.736 577.331 592.574 585.342 589.102C591.617 586.38 599.712 579.917 590.624 582.115C601.529 577.542 612.656 571.867 622.79 567.21C624.464 566.44 622.589 568.556 625.426 567.21C625.685 567.078 625.586 565.843 628.033 564.653C648.112 554.886 639.106 561.487 643.204 560.52C645.493 559.986 647.162 559.494 648.358 559.056C636.442 564.393 622.919 570.756 619.262 572.381C623.346 573.418 645.47 560.509 652.6 558.25C652.849 558.171 652.539 559.854 652.786 559.76C652.791 559.758 652.796 559.756 652.801 559.754C655.419 558.743 671.677 551.314 667.67 551.159C666.609 551.111 658.981 554.317 650.118 558.269C652.404 556.947 650.021 556.225 650.42 555.98C655.321 553.024 668.604 549.108 673.278 547.398C673.508 547.313 673.665 547.202 673.773 547.08C674.168 546.642 673.927 546.067 674.06 546.009C678.308 544.494 677.567 547.97 680.782 543.371C686.269 543.574 679.474 545.984 674.195 548.175C671.084 549.464 668.412 550.717 669.312 551.3C669.666 551.534 671.775 550.918 674.824 549.809C687.458 545.114 718.872 531.409 718.225 529.3C718.49 529.528 719.327 529.616 720.902 529.483C724.318 529.17 738.72 523.643 741.249 522.285C741.659 522.035 740.689 519.414 741.231 519.203C742.494 518.614 761.973 514.744 768.946 511.357C764.952 511.999 760.946 512.709 756.963 513.478C780.578 506.817 776.84 507.341 768.723 508.443C768.324 508.539 767.916 508.537 767.534 508.626C761.235 509.629 753.26 511.414 753.087 511.243C752.321 510.065 792.891 499.541 785.423 504.166C784.491 504.634 765.627 508.043 775.208 507.607C776.908 507.479 788.623 504.31 789.224 504.431C793.609 504.766 768.176 512.483 771.704 513.742C777.611 510.317 785.831 509.434 792.694 507.554C793.716 507.274 794.469 506.92 795.034 506.567C796.025 505.874 796.309 505.159 796.533 505.096C801.485 503.717 798.887 505.751 800.547 505.375C801.447 505.176 810.829 499.986 809.636 504.665C841.814 494.294 818.066 499.736 798.251 504.03C804.302 501.207 816.758 499.309 822.275 497.684C824.254 497.103 822.82 495.946 826.144 494.898C832.894 492.843 866.84 486.354 876.389 484.475C870.848 486.322 872.758 487.482 877.109 486.334C881.457 485.189 877.414 483.99 878.225 483.566C878.966 483.111 900.307 479.225 904.307 478.223C887.744 482.535 891.689 483.251 905.946 480.439C903.863 481.321 901.951 482.182 899.942 483.074C907.879 480.603 927.101 479.678 933.439 478.492C934.38 478.274 930.938 477.309 931.474 477.188C936.049 475.719 956.991 476.609 958.842 476.721C959.765 476.323 950.023 474.818 953.73 474.395C954.124 474.352 956.859 474.859 960.957 475.628C962.905 476.17 965.317 476.689 967.693 476.679C969.535 476.671 968.654 475.315 969.122 475.281C972.884 474.977 970.576 476.956 977.59 477.156C982.72 477.283 986.827 475.48 993.646 476.542C971.235 472.456 990.54 474.926 999.675 474.455C1001.03 474.36 1000.39 472.111 1008.38 473.375C989.898 477.068 1013.98 475.859 1016.7 475.515C1016.87 475.519 1016.95 477.042 1018.57 476.965C1018.69 476.954 1018.55 475.951 1019.84 475.767C1022.7 475.307 1022.58 475.159 1023.32 475.037C1023.61 474.98 1023.94 474.931 1024.12 474.933C1024.32 474.934 1024.39 474.984 1024.36 475.073C1024.21 475.444 1023.18 476.243 1024.26 476.489C1024.66 476.648 1026.81 475.672 1033.69 473.788C1040.42 471.959 1047.5 470.867 1050.1 470.653C1051.26 470.568 1050.86 471.612 1055.27 471.339C1062.88 470.923 1068.57 469.968 1072.64 470.005C1073 470.025 1073.22 471.659 1080.36 471.502C1082.42 471.468 1084.89 471.03 1081.98 470.358C1072.98 468.348 1052.83 469.408 1032.47 472.537C1025.26 473.66 1032.3 470.937 1044.15 469.137C1055.27 467.522 1064.6 467.772 1065.63 467.735C1066.43 467.727 1059.03 468.551 1066.31 468.736C1072.4 468.903 1082.76 466.519 1090.03 467.742C1090.82 467.843 1096 470.765 1095.78 470.897C1095.64 470.938 1093.28 470.891 1091.21 470.964C1088.96 471.02 1086.89 471.185 1087.52 471.59C1087.59 471.637 1089.12 471.765 1090.75 471.97C1092.22 472.159 1093.8 472.424 1094.13 472.72C1094.92 473.439 1096.37 479.974 1097.54 480.244C1100.4 480.911 1098.74 479.292 1100.66 479.577C1101.77 479.742 1103.63 480.105 1105.86 480.523C1111.61 481.622 1119.13 483.067 1119.82 481.518C1117.45 481.112 1115.19 480.723 1112.8 480.328C1126.03 481.588 1120.54 480.033 1122.5 479.836C1124.59 479.63 1123.65 481.477 1127.99 482.185C1128.95 482.318 1147.29 484.249 1147.11 483.42C1136.76 483.377 1141.02 481.511 1140.56 481.405C1138.81 481.021 1136.29 482.062 1133.91 481.738C1117.17 479.472 1134.55 479.449 1130.69 478.425C1129.36 478.075 1126.39 478.879 1125.84 478.754C1124 478.342 1124.25 476.851 1122.96 476.823C1119.97 476.759 1122.97 479.26 1122.72 479.343C1119.88 480.344 1109.76 477.546 1116.71 475.983C1112.94 474.72 1112.03 477.461 1109.07 476.012C1103.32 473.166 1112.5 474.695 1115.04 474.615C1124.26 474.307 1126.66 475.67 1139.15 476.87C1143.65 477.31 1149.21 476.658 1151.3 476.862C1152.62 476.981 1163.83 483.348 1165.83 476.078C1170.45 477.455 1176.78 483.354 1181.72 483.861C1186.15 484.312 1185.37 481.517 1185.8 481.478C1186.47 481.413 1191.73 482.42 1193.62 482.332C1195.83 482.225 1195.01 481.073 1198.45 481.19C1207.02 481.493 1206.16 484.113 1206.97 484.417C1216.41 488.002 1212.98 483.551 1215.28 483.611C1217.38 483.61 1245.91 490.06 1252.44 490.424C1249.76 490.46 1247.1 490.512 1244.47 490.577C1248.49 493.041 1254.02 491.304 1253.27 494.253C1255.49 489.677 1264.01 494.733 1266.95 495.252C1268.11 495.446 1268.24 494.618 1269.69 494.896C1270.79 495.107 1272.12 495.405 1273.57 495.751C1281.5 497.616 1290.04 500.562 1292.5 500.931C1302.82 502.644 1287.42 495.348 1274.91 491.512C1272.1 490.579 1269.88 489.908 1269.32 489.745C1270.35 489.978 1272.55 490.416 1275.1 490.908C1288.15 493.533 1304.01 497.554 1293.98 492.493C1291.99 491.519 1287.19 492.458 1285.85 492.19C1276.55 490.313 1284.37 490.33 1283.72 489.964C1282.96 489.516 1278.46 489.481 1275.62 489.262C1274.95 489.231 1274.4 489.169 1274.09 489.047C1273.65 488.88 1277.22 487.814 1269.42 486.087C1270.61 485.845 1273.24 486.163 1276.41 486.779C1287.02 488.917 1298.02 493.053 1300.2 493.403C1301.16 493.579 1296.75 488.175 1312.9 497.175C1312.84 496.79 1312.77 496.405 1312.71 496.02C1322.4 499.035 1331.75 502.102 1341 505.196C1339.68 505.578 1333.91 505.258 1340.5 507.205C1344.31 508.338 1342.28 505.736 1342.64 505.808C1346.48 506.482 1404.17 528.205 1415.12 532.116C1418.89 533.444 1429.96 536.014 1430.73 536.268C1435.59 537.916 1451.81 544.853 1455.14 545.824C1457.23 546.441 1455.9 544.381 1457.72 545.109C1459.4 545.783 1457.04 546.463 1457.52 546.7C1459.37 547.636 1469.12 550.801 1477.28 553.218C1487.56 556.309 1498.15 559.787 1501.95 561.808C1498.49 560.294 1484.19 556.911 1476.29 555.599C1473.88 555.317 1471.83 555.089 1471.9 555.421C1471.85 555.503 1474.04 556.764 1475.52 557.439C1476.63 557.904 1477.65 558.248 1478.16 558.22C1479.75 560.043 1488.36 558.908 1491.95 560.909C1492.36 561.138 1489.79 562.5 1496.54 565.207C1498.87 566.139 1505.77 566.763 1511.25 570.678C1520.79 572.844 1566.51 593.364 1570.59 592.768C1570.74 592.698 1564.54 589.347 1569.39 590.289C1575.82 591.542 1568.68 593.185 1575.33 596.292C1576.35 596.734 1595.41 604.247 1596.13 604.305C1602.93 604.621 1586.91 596.78 1587.26 596.651C1588.15 596.256 1602.05 601.69 1602.52 602.088C1602.97 602.466 1590.38 600.479 1604.3 605.16C1602.94 604.164 1601.6 603.181 1600.23 602.187C1606.86 604.235 1606.43 606.43 1607.89 607.204C1608.48 607.52 1609.1 607.783 1609.76 608.018C1614.04 609.546 1619.53 609.715 1624.24 615.646C1625.75 617.49 1621.88 617.102 1622.07 617.365C1623.74 619.685 1628.55 617.543 1630.89 621.765C1631.29 622.201 1621.09 619.462 1637.19 626.787C1636.08 625.958 1635.06 625.187 1634.12 624.452C1635.41 624.727 1640.13 626.457 1646.91 629.928C1653.72 633.508 1656.6 635.353 1657.51 635.943C1662.03 639.132 1656.77 638.368 1661.69 640.972C1660.02 636.842 1675.29 645.189 1673.13 646.654C1674.44 646.249 1676.49 646.935 1679.17 648.309C1684.66 651.129 1691.62 656.2 1696.05 658.729C1700.12 661.051 1709.33 664.737 1710.53 665.589C1712 666.631 1710.42 668.075 1713.07 670.091C1713.79 670.648 1723.25 674.278 1729.62 680.342C1730.84 681.503 1732.01 686.15 1728.8 685.309C1723.34 683.885 1716.1 676.582 1715.08 678.353C1713.99 680.235 1726.58 685.894 1729.59 687.955C1743.56 697.493 1733.76 694.542 1733.77 695.357C1733.75 697.309 1741.88 701.949 1742.1 702.257C1743.12 703.637 1736.62 701.43 1735.99 702.276C1735.09 703.319 1741.48 709.855 1739.46 709.215C1736.63 708.312 1730.62 702.489 1730.13 702.323C1723.57 700.065 1729.83 707.278 1731.17 709.837C1731.57 710.615 1728.49 709.734 1728.96 710.167C1736.24 716.816 1733.21 707.533 1738.6 711.161C1743.43 714.422 1735.77 712.346 1735.9 712.557C1736.09 712.808 1742.05 716.411 1742.57 717.565C1742.8 718.106 1724.98 712.393 1724.62 714.273C1729.79 716.797 1735.01 719.368 1740.2 721.953C1739.29 724.131 1733.12 718.529 1732.21 718.285C1730.45 717.823 1733.96 721.236 1733.36 721.744C1733.02 722.088 1727.13 720.611 1731.2 723.777C1732.56 724.85 1736.65 725.322 1741.21 729.958C1720.9 720.541 1733.37 729.37 1733.49 730.402C1733.6 731.426 1723.31 727.668 1734.62 733.888C1732.54 737.959 1733.52 734.911 1729.98 733.769C1725.56 732.332 1733.61 738.749 1720.2 729.638C1719.83 731.878 1731.15 738.308 1731.68 738.827C1732.12 739.263 1728.98 738.64 1729.69 739.468C1737.93 749.109 1731.75 743.28 1733.28 747.243C1733.47 747.619 1742.77 754.319 1735.02 750.136C1720.86 742.54 1716.78 736.749 1710.81 740.751C1719.48 748.992 1734.14 752.82 1737.23 754.613C1742.01 757.37 1736.39 755.525 1736.75 756.173C1736.9 756.398 1741 758.753 1740.97 758.862C1741.06 764.637 1722.88 748.098 1715.72 744.99C1717.11 746.655 1718.44 748.286 1719.82 749.951C1717.36 748.544 1714.96 747.177 1712.52 745.797C1723.17 753.715 1712.6 746.485 1707.5 748.151C1706.37 748.533 1714.79 751.632 1704.76 748.706C1710.81 752.875 1708.32 752.375 1714.69 754.783C1713.66 756.028 1699.67 749.988 1694.09 747.751C1711.14 759.651 1704.21 748.843 1717.98 760.493C1721.96 760.535 1714.34 756.506 1715.14 756.598C1717.95 756.881 1721.98 761.401 1730.42 761.649C1731.8 761.685 1728.8 757.449 1734.94 761.258C1735.58 761.657 1738.53 765.533 1738.39 765.607C1737.05 766.416 1733.46 763.631 1732.99 764.031C1732.52 764.383 1737.01 766.722 1736.97 766.88C1736.07 768.376 1732.99 765.243 1733.2 766.009C1733.73 767.715 1746.97 780.197 1727.42 767.028C1745.37 775.598 1730.75 766.719 1723.65 763.416C1721.81 762.542 1720.87 763.198 1718.2 762.046C1714.86 760.623 1711.42 758.028 1709.75 757.278C1707.88 756.439 1716.39 764.235 1702.49 755.307C1708.44 761.575 1722.68 766.897 1728.67 772.551C1740.61 783.897 1716.54 770.136 1713.67 768.924C1712.94 768.601 1714.42 771.109 1713.92 770.914C1713.14 770.591 1699.68 761.973 1697.63 762.15C1695.63 762.336 1702.72 765.041 1702.5 766.319C1702.33 767.15 1684.74 758.668 1693.54 764.392C1699.54 768.289 1712.84 772.274 1712.74 776.338C1703.52 771.218 1694.23 766.173 1684.81 761.109C1689.13 765.134 1693.4 769.15 1697.64 773.173C1687.15 767.565 1679.07 761.192 1668.11 757.181C1689.38 774.246 1658.57 755.69 1657.9 755.946C1657.59 756.125 1665 764.337 1666.15 765.731C1657.12 762.118 1631.67 748.59 1643.99 760.456C1641.85 758.134 1634.02 756.504 1634.04 756.722C1633.82 758.775 1648.62 765.676 1645.35 765.814C1641.62 766.004 1639.37 761.632 1635.12 759.499C1622.02 752.946 1617.02 754.617 1610.54 754.027C1606.03 753.498 1601.18 752.208 1592.34 746.376C1592.64 746.956 1592.86 747.495 1593.11 748.05C1588.8 745.453 1583.71 742.293 1580.16 740.041C1578.37 738.916 1577.98 738.648 1577.3 738.238C1576.62 737.823 1575.15 737.067 1573.39 736.207C1565.99 732.626 1556.82 728.449 1548.02 724.38C1541.61 721.416 1535.19 718.499 1528.75 715.632C1518.11 714.364 1492.59 706.083 1480.5 701.248C1478.08 700.245 1466.62 694.344 1465.8 693.772C1464.32 692.667 1473.75 695.893 1469.94 693.445C1469.16 692.892 1448.73 684.948 1449.52 687.039C1451.77 688.016 1459.37 689.802 1460.4 690.593C1464.76 693.988 1443.08 685.988 1424.35 679.813C1409.9 674.964 1399.38 670.952 1397.71 670.848C1398.94 671.872 1400.37 672.964 1401.65 674.003C1397.31 672.161 1393.11 670.352 1388.97 668.555ZM1642.6 621.916C1644.64 621.953 1648.18 623.564 1651.85 625.671C1655.52 627.788 1657.83 629.453 1659.6 630.223C1664.34 632.306 1675.08 630.904 1668.36 634.629C1665 632.989 1662.04 631.53 1658.44 629.671C1655.24 628.008 1647.74 624.015 1642.6 621.916ZM1529.54 572.285C1534.49 575.078 1528.83 576.85 1525.1 573.879C1524.69 573.549 1522.83 568.527 1529.54 572.285ZM1583.96 595.478C1583.73 595.433 1579.27 593.483 1579.14 593.372C1575.78 590.398 1589.19 596.267 1583.96 595.478ZM1321.45 501.839C1327.51 503.726 1324.49 499.215 1320.21 499.211C1319.94 499.211 1321.05 501.712 1321.45 501.839ZM1325.65 503.355C1329.11 507.647 1340.61 505.322 1333.1 503.349C1332.42 503.172 1325.48 503.14 1325.65 503.355ZM1547.84 580.719C1546.75 581.513 1541.54 578.933 1539.32 577.809C1539.83 576.893 1545.5 579.951 1547.84 580.719ZM1413.52 533.058C1412.92 533.786 1431.11 540.46 1432.81 539.833C1429.78 539.249 1414.06 532.403 1413.52 533.058ZM1365.87 516.871C1366.28 517.181 1372.77 519.295 1372.91 518.512C1370.22 516.43 1364.04 515.467 1365.87 516.871ZM1262.09 484.68C1261.63 484.799 1265.64 490.599 1253.8 484.964C1252.07 484.143 1259.06 484.188 1258.47 483.895C1257.16 483.285 1256.13 482.92 1255.25 482.72C1261.27 483.462 1267.63 484.595 1268.16 485.015C1270.62 486.978 1262.26 484.619 1262.09 484.68ZM1206.63 478.574C1205.25 479.163 1197.8 477.561 1196.17 476.978C1195.89 476.872 1197.67 475.011 1194.23 474.643C1191.47 474.354 1195.04 477.081 1189.81 475.938C1184.51 474.791 1192.05 474.368 1191.61 474.192C1191.01 473.952 1182.47 473.657 1183.02 472.472C1183.42 471.587 1192.19 473.534 1194.44 473.684C1197.33 473.869 1194.27 471.829 1198.91 472.882C1201.82 473.546 1199.53 475.95 1200.13 476.181C1200.63 476.364 1211.36 476.481 1206.61 478.563C1206.62 478.566 1206.62 478.57 1206.63 478.574ZM1253.6 482.525C1254.08 482.523 1254.62 482.577 1255.25 482.72C1254.7 482.651 1254.15 482.589 1253.6 482.525ZM1625.93 615.717C1623.7 613.801 1632 616.232 1634.71 618.692C1634.23 619.463 1626.17 615.96 1625.93 615.717ZM1247.55 483.646C1239.08 481.393 1245.64 481.612 1253.6 482.525C1251 482.552 1250.44 484.419 1247.55 483.646ZM1478.16 558.22C1477.89 557.917 1477.8 557.548 1477.97 557.05C1478.66 557.881 1478.62 558.195 1478.16 558.22ZM1461.82 551.659C1455.19 551.02 1467.29 555.238 1467.58 554.097C1467.77 553.709 1462.07 551.687 1461.82 551.659ZM1313.79 499.119C1314.33 499.467 1302.97 500.827 1318.15 502.009C1311.05 499.043 1319.02 501.134 1319.04 500.695C1319.33 499.486 1306.33 496.449 1303.67 495.091C1300.65 496.421 1312.08 497.987 1313.77 499.113C1313.78 499.115 1313.78 499.117 1313.79 499.119ZM1108.96 464.247C1110.94 463.182 1116.6 464.194 1120.32 464.696C1118.37 465.74 1112.75 464.708 1108.96 464.247ZM189.544 702.4C200.951 702.925 206.201 704.139 206.868 705.062C207.521 705.955 203.959 706.655 194.014 704.761C193.61 704.689 188.099 702.785 189.544 702.4ZM363.96 680.509C366.388 681.696 361.68 684.526 358.147 685.093C357.334 685.24 353.897 684.338 356.719 682.637C357.602 685.136 362.762 683.878 363.96 680.509ZM1242.27 484.137C1239.39 485.133 1231.91 482.719 1227.94 481.816C1230.71 481.033 1238.81 483.022 1242.27 484.137ZM259.994 704.541C262.406 704.524 263.985 702.467 263.573 702.342C261.735 701.763 257.256 703.654 259.994 704.541ZM1267.65 489.336C1267.67 490.24 1256.97 488.931 1256.83 486.663C1259.05 487.248 1267.48 488.711 1267.65 489.336ZM1116.02 465.673C1117.25 466.172 1112.03 466.185 1108.61 465.833C1107.68 465.736 1106.88 465.616 1106.35 465.471C1106.48 465.177 1107.44 465.048 1108.76 465.031C1111.34 464.971 1115.34 465.397 1116.02 465.673ZM297.8 699.74C299.867 699.611 304.935 698.849 305.404 697.982C306.001 696.92 298.654 698.428 297.8 699.74ZM-100.111 650.992C-100.225 650.577 -91.1274 650.946 -87.824 652.732C-81.5266 656.167 -99.9116 651.36 -100.111 650.992ZM237.072 706.908C230.258 705.367 237.828 706.821 237.589 704.901C232.976 705.059 221.438 705.318 229.293 706.96C230.844 707.275 234.92 706.881 237.072 706.908ZM243.399 707.245C244.152 706.585 249.119 704.338 244.852 704.717C242.882 704.894 239.651 707.241 243.399 707.245ZM-50.111 666.027C-44.9006 669.427 -71.3117 660.555 -71.9756 659.914C-72.3214 659.634 -72.5299 659.407 -72.6325 659.239C-73.8277 659.446 -78.9394 657.906 -78.9821 656.41C-77.506 657.014 -73.3141 658.229 -72.8929 658.525C-72.7108 658.652 -72.5798 658.759 -72.4973 658.852C-70.2379 658.35 -51.1077 665.456 -50.111 666.027ZM-6.4991 679.038C-13.9426 680.022 -13.7955 675.538 -13.1737 675.545C-5.39704 675.491 -11.0887 677.492 -10.9158 677.689C-10.4815 678.051 -4.89024 677.758 -6.52005 679.033C-6.51305 679.035 -6.5061 679.036 -6.4991 679.038ZM-41.3028 669.272C-41.595 669.256 -47.1422 667.556 -47.3466 667.42C-51.4011 664.748 -35.7341 669.538 -41.3028 669.272ZM1165.41 475.48C1160.91 474.417 1165.76 473.481 1168.7 474.477C1168.94 474.569 1169.38 476.422 1165.41 475.48ZM246.786 706.635C247.795 706.988 272.677 706.18 271.078 703.849C269.08 704.48 240.778 705.16 246.786 706.635ZM414.293 654.832C409.301 657.489 413.735 652.605 416.759 651.953C417.873 651.712 415.567 654.154 414.293 654.832ZM1282.88 495.039C1289.1 495.428 1286.54 499.105 1281.93 496.359C1281.75 496.253 1282.63 495.023 1282.88 495.039ZM376.752 675.35C377.811 674.562 378.812 673.886 379.728 673.328C387.154 668.799 388.399 671.375 381.687 676.485C379.431 678.259 376.231 680.231 372.259 681.789C372.557 681.265 372.861 680.735 373.16 680.205C356.61 688.004 371.521 680.77 375.739 677.673C377.301 676.565 375.324 676.399 376.737 675.35C376.742 675.35 376.747 675.35 376.752 675.35ZM439.935 642.115C457.672 639.191 426.451 650.297 417.527 655.945C425.28 649.568 436.659 644.291 420.432 650.131C442.563 638.559 434.01 645.151 435.031 644.778C436.105 644.458 439.202 642.227 439.935 642.115ZM397.011 664.7C396.125 665.371 388.755 668.62 386.564 670.171C388.78 666.773 402.731 660.204 397.011 664.7ZM40.9592 686.199C40.1147 687.419 38.5967 688.2 33.6979 687.085C33.5622 687.053 33.4236 687.019 33.2822 686.983C33.4259 686.943 33.5816 686.905 33.7474 686.87C35.6693 686.526 38.8167 686.432 40.9592 686.199ZM1645.75 631.819C1651.58 635.127 1656.5 638.865 1655.65 636.584C1655.57 636.464 1653.89 635.457 1651.56 634.219C1649.22 632.968 1645.95 631.448 1645.75 631.819ZM317.018 699.401C317.839 699.525 334.58 695.743 328.549 695.644C326.88 695.704 311.311 699.08 317.018 699.401ZM220.416 708.619C222.018 708.602 228.622 708.148 228.756 707.818C229.26 706.705 221.165 707.554 220.416 708.619ZM1661.96 642.976C1662.19 643.302 1671.33 648.207 1670.78 647.097C1669.48 644.899 1660.99 641.841 1661.96 642.976ZM1147.95 476.339C1146.98 476.263 1146 474.635 1145.66 474.576C1144.91 474.434 1126.92 472.762 1134.13 471.74C1135.38 471.529 1160.81 475.611 1164.04 476.295C1164.87 478.467 1154.42 475.065 1151.72 474.925C1151.24 474.902 1150.57 476.532 1147.96 476.332C1147.95 476.334 1147.95 476.337 1147.95 476.339ZM14.9192 683.579C13.9065 684.796 -4.52702 682.02 -3.8529 680.478C2.40573 681.617 8.66232 682.653 14.9192 683.579ZM24.0907 685.366C27.7481 686.89 18.5801 685.715 16.0009 684.823C16.2003 683.981 23.5548 685.156 24.0907 685.366ZM256.785 711.695C258.706 711.247 252.802 709.794 254.127 709.338C254.969 709.058 259.253 709.45 260.61 708.757C260.991 708.545 256.641 707.118 255.379 707.277C253.591 707.501 255.322 708.764 253.366 708.906C246.85 709.368 241.069 708.686 234.929 708.967C234.371 708.995 238.644 709.791 233.909 709.975C233.161 710.005 228.84 708.731 223.131 709.101C219.657 710.421 216.415 711.054 213.278 711.309C208.97 711.921 201.165 709.45 189.912 709.577C190.433 710.085 201.61 712.17 202.088 712.203C205.658 712.679 210.474 713.072 213.167 713.141C225.596 713.23 240.022 712.679 249.603 712.079C253.155 711.861 251.438 711.016 252.97 710.881C254.184 710.773 252.731 712.641 256.785 711.695ZM1642.49 631.25C1643.17 632.625 1646.03 634.336 1648.68 635.833C1651.32 637.31 1653.51 638.335 1655.03 639.297C1654.93 638.267 1653.51 637.307 1651.18 635.997C1648.95 634.733 1645 632.751 1642.49 631.25ZM113.174 699.469C115.163 699.673 121.061 701.02 121.691 700.562C122.469 699.961 113.865 698.341 113.174 699.469ZM1027.48 472.661C1027.35 472.718 1025.71 473.139 1024.78 473.357C1023.8 473.589 1023.4 473.645 1023.35 473.629C1022.94 473.37 1022.95 473.115 1023.12 472.922C1023.31 472.721 1023.75 472.557 1024.77 472.312C1025.74 472.082 1027.36 471.763 1028.27 471.713C1029.2 471.661 1029.12 471.928 1027.48 472.661ZM917.153 473.986C912.671 474.962 908.44 476.348 906.868 475.219C909.513 474.889 917.555 472.899 917.153 473.986ZM751.24 512.273C752.515 513.765 739.826 516.601 737.546 517.264C738.072 516.172 750.216 511.151 751.24 512.273ZM40.394 692.137C35.03 691.275 34.5345 693.135 32.3831 692.807C31.9514 692.741 31.4473 692.569 30.8089 692.237C30.3131 691.972 29.7857 687.419 33.4618 688.113C34.1435 688.237 34.9571 688.508 35.9224 688.969C37.1352 689.55 31.7209 690.211 40.394 692.137ZM369.916 683.026C369.352 684.726 365.696 686.247 363.345 687.257C363.49 686.211 368.249 684.066 369.916 683.026ZM1677.66 653.55C1679.37 656.581 1692.45 662.325 1690.05 659.607C1689.74 659.25 1679.38 654.58 1677.66 653.55ZM1223.41 486.655C1217.01 486.991 1229.42 489.526 1233.78 488.922C1231.95 488.683 1223.82 486.626 1223.41 486.655ZM795.286 502.277C795.23 502.3 794.918 502.366 794.456 502.456C792.423 502.846 787.882 503.702 787.62 503.709C783.716 503.63 790.542 501.96 794.324 501.514C796.21 501.308 797.269 501.428 795.286 502.277ZM969.684 474.306C968.648 474.74 965.244 474.544 961.239 474.017C951.815 472.953 943.485 472.924 940.659 472.475C943.043 471.545 951.699 470.8 961.604 471.933C966.98 472.664 971.142 473.681 969.684 474.306ZM67.7228 695.215C63.0477 694.61 58.6103 693.62 54.4253 692.52C55.5428 691.704 67.4108 694.442 67.7228 695.215ZM768.723 508.443C768.324 508.539 767.916 508.537 767.534 508.626C767.938 508.56 768.336 508.503 768.723 508.443ZM171.898 709.813C175.577 710.614 175.193 708.788 174.949 708.708C172.23 707.828 167.637 708.889 171.898 709.813ZM1647.06 636.822C1648.24 639.385 1654.34 641.601 1657.02 643.623C1656.78 641.99 1651.22 639.037 1647.06 636.822ZM457.92 637.217C463.509 636.483 444.258 647.483 439.418 648.689C438.7 647.827 457.165 637.261 457.92 637.217ZM1241.7 492.319C1241.77 493.602 1251 493.795 1249.28 492.869C1248.2 492.271 1241.65 491.513 1241.7 492.319ZM428.737 653.147C426.984 654.432 421.813 655.742 423.125 654.252C424.78 652.351 429.205 652.793 428.737 653.147ZM283.985 710.253C284.79 710.373 294.956 707.784 290.646 707.083C287.667 706.594 287.3 708.42 286.607 708.512C285.852 708.639 269.133 708.288 283.985 710.253ZM567.31 589.946C563.443 592.157 558.356 593.807 554.135 595.705C555.585 594.246 565.204 589.785 567.31 589.946ZM1207.94 486.875C1208.85 487.484 1237.4 492.637 1221.53 488.354C1220.58 488.087 1205.13 484.857 1207.94 486.875ZM40.394 692.137C41.2143 692.269 42.1654 692.465 43.2611 692.747C42.1565 692.54 41.2087 692.318 40.394 692.137ZM115.147 702.87C113.453 703.56 120.958 704.831 123.339 704.661C124.263 703.664 115.397 702.778 115.147 702.87ZM554.283 596.984C552.049 598.52 547.402 599.982 544.436 601.356C544.614 600.381 552.917 596.676 554.283 596.984ZM729.903 523.986C724.293 525.493 717.891 528.183 718.117 529.172C717.958 529.065 717.651 529.004 717.176 529.007C716.696 529.009 711.231 531.625 708.748 532.24C692.882 535.831 766.193 509.744 724.523 527.934C726.277 526.622 728.106 525.292 729.903 523.986ZM988.322 478.12C991.035 479.558 998.398 478.336 996.599 477.755C995.307 477.381 985.837 476.709 988.322 478.12ZM860.563 491.97C861.47 491.977 869.236 489.219 869.324 488.533C864.586 488.971 856.458 491.912 860.563 491.97ZM1007.95 480.372C1009.47 480.578 1011.35 478.557 1011.23 478.47C1009.93 477.752 1005.47 479.219 1007.95 480.372ZM52.8502 699.46C55.3673 700.409 64.2427 700.186 66.3519 699.127C66.6386 699.43 67.5048 699.896 69.1204 700.536C69.1152 700.536 69.11 700.535 69.1048 700.534C71.3144 701.444 139.665 711.535 94.3115 702.623C92.8927 702.341 94.5816 703.797 88.7694 702.766C88.3879 702.697 88.4169 701.706 87.2353 701.492C84.4616 700.999 70.0106 698.327 66.8269 698.674C66.8435 698.491 66.6846 698.293 66.3212 698.081C63.0605 696.182 50.876 698.724 52.8502 699.46ZM845.14 495.845C846.765 495.827 851.645 494.314 852.013 493.355C849.441 493.548 841.374 495.886 845.14 495.845ZM1207.96 490.499C1211.07 491.72 1219.72 491.801 1217.38 490.691C1215.95 489.999 1204.37 489.082 1207.96 490.499ZM896.407 483.266C876.372 486.759 891.663 484.412 888.83 486.324C891.292 485.307 893.831 484.283 896.407 483.266ZM-25.6655 681.76C-23.1059 682.696 -27.0418 684.346 -29.5295 682.293C-30.3051 681.646 -27.0937 681.242 -25.6655 681.76ZM-145.339 643.326C-143.826 646.332 -155.362 640.503 -149.962 640.889C-149.707 640.925 -145.46 643.182 -145.339 643.326ZM-62.3857 673.419C-60.0139 672.522 -58.7801 672.713 -53.8405 674.547C-61.5125 672.75 -55.0325 676.083 -62.3857 673.419ZM718.225 529.3C718.172 529.257 718.129 529.226 718.117 529.172C718.172 529.209 718.205 529.251 718.225 529.3ZM1020.23 479.632C1020.82 480.214 1021.85 480.39 1022.39 480.282C1022.96 480.169 1023.18 479.779 1022.86 479.196C1022.83 479.141 1022.4 479.009 1021.83 479.007C1021.26 479.008 1020.46 479.142 1020.23 479.632ZM66.3519 699.127C66.1032 698.859 66.2818 698.734 66.8269 698.674C66.8127 698.845 66.6423 698.985 66.3519 699.127ZM992.419 480.477C992.809 479.56 983.633 478.627 983.233 478.696C977.608 479.963 988.586 480.353 992.419 480.477ZM1275.98 504.806C1276.57 504.866 1274.15 502.33 1271.63 501.864C1271.29 501.802 1270.94 501.794 1270.59 501.858C1269.69 502.024 1270.21 502.618 1271.21 503.206C1272.56 503.912 1274.63 504.671 1275.98 504.806ZM-79.9099 668.62C-82.7366 667.712 -86.7208 666.409 -86.9894 665.062C-85.1644 665.86 -79.5154 667.83 -79.9099 668.62ZM-141.417 646.622C-137.226 646.744 -129.262 649.932 -124.329 652.195C-125.041 653.901 -137.841 647.533 -141.417 646.622ZM44.5749 697.59C44.8161 697.7 52.4686 699.343 51.6876 698C50.4949 696.023 42.5406 696.629 44.5749 697.59ZM1259.38 499.762C1255.44 499.82 1263.19 504.036 1267.73 502.995C1270.02 502.432 1260.04 499.731 1259.38 499.762ZM1034.25 478.206C1038.53 476.968 1034.94 477.153 1030.91 477.898C1026.65 478.722 1024.74 479.264 1024.59 479.924C1025.08 479.858 1026.12 479.822 1028.12 479.487C1030.07 479.16 1032.85 478.63 1034.25 478.206ZM874.305 491.975C889.94 491.938 880.588 487.449 878.037 488.642C877.665 488.813 873.917 491.981 874.305 491.975ZM1704.58 677.279C1706.62 677.825 1701.14 672.55 1699.54 673.094C1698.59 673.458 1703.31 676.946 1704.58 677.279ZM648.358 559.056C648.951 558.79 649.538 558.527 650.118 558.269C649.702 558.509 649.132 558.773 648.358 559.056ZM1091.24 481.578C1080.75 475.559 1081.23 479.674 1080.23 479.569C1078.03 479.377 1073.03 477.711 1068.46 477.844C1073.69 477.385 1078.56 477.06 1083.47 476.806C1081.45 476.505 1073.03 475.271 1062.53 474.888C1052.71 474.265 1038.17 476.123 1037.68 476.795C1036.96 477.533 1040.78 476.97 1044.79 476.548C1048.61 476.129 1052.32 475.836 1052.53 475.874C1053.2 475.975 1055.23 479.151 1056.39 479.236C1059.68 478.858 1087.66 480.212 1091.24 481.578ZM906.768 484.088C904.018 484.249 903.141 483.121 901.957 483.683C901.558 483.875 901.678 485.103 900.31 485.72C902.471 485.161 904.543 484.632 906.768 484.088ZM1111.74 478.902C1113.3 479.947 1109.61 479.73 1106.08 479.337C1103.18 479.014 1100.52 478.606 1100.34 478.514C1099.04 477.753 1102.6 477.466 1106.38 477.758C1108.59 477.922 1110.91 478.32 1111.74 478.902ZM996.791 481.802C997.257 481.938 1006.12 482.693 1005.96 481.815C1004.05 481.193 991.732 480.463 996.791 481.802ZM898.621 486.169C894.698 486.864 887.481 487.253 888.605 488.892C888.611 488.891 888.616 488.889 888.622 488.888C891.869 487.981 895.21 487.069 898.621 486.169ZM1245.81 501.196C1251.69 505.412 1249.56 501.086 1243.87 499.021C1241.7 500.001 1244.85 500.51 1245.81 501.196ZM1266.91 507.793C1267.24 507.97 1268.21 508.247 1269.51 508.567C1276.71 510.237 1289.31 513.364 1287.35 511.404C1286.67 510.548 1274.22 508.613 1273.41 508.372C1272.53 508 1277.27 507.318 1270.33 505.993C1270.27 505.983 1270.21 505.972 1270.14 505.962C1270.32 506.618 1266.3 507.471 1266.91 507.793ZM1250.84 504.141C1256.91 507.69 1259.57 503.903 1254.55 502.876C1252.54 502.467 1249.99 503.637 1250.84 504.141ZM1223.88 498.851C1226.14 499.646 1232.31 501.319 1237.04 500.746C1231.21 499.563 1225.44 498.436 1219.65 497.334C1218.78 498 1221.87 498.146 1223.9 498.854C1223.89 498.853 1223.89 498.852 1223.88 498.851ZM-175.06 646.785C-176.892 646.367 -176.163 647.231 -175.061 648.394C-174.514 648.982 -173.97 649.627 -173.65 650.033C-173.321 650.445 -173.16 650.635 -173.071 650.623C-172.535 650.501 -172.241 649.988 -172.618 649.094C-172.96 648.212 -174.209 647.005 -175.06 646.785ZM1716.89 729.953C1717.79 731.044 1717.72 732.882 1720.83 733.704C1718.83 731.154 1716.85 728.622 1714.8 726.058C1711.19 727.154 1715.87 728.737 1716.89 729.953ZM1721.45 744.217C1721.05 744.062 1720.67 748.731 1717.45 743.589C1715.26 740.094 1734.08 748.95 1736.26 752.478C1732.25 751.086 1724.95 745.629 1721.45 744.217ZM1741.51 777.695C1741.55 778.104 1734.93 774.532 1734.25 773.851C1731.05 770.409 1741.68 775.607 1741.51 777.695ZM1721.14 764.329C1723.8 766.856 1716.59 763.2 1714.76 761.583C1715.02 760.821 1720.76 763.957 1721.14 764.329ZM-160.969 715.933C-158.557 719.974 -152.498 715.833 -158.735 714.632C-159.04 714.571 -161.066 715.744 -160.969 715.933ZM1732.84 777.298C1730.24 774.733 1737.32 778.465 1738.9 780.061C1738.61 780.793 1733.24 777.676 1732.84 777.298ZM-161.409 723.06C-157.436 726.884 -156.082 720.024 -156.56 719.53C-158.593 717.514 -168.437 716.456 -170.482 716.373C-157.11 720.61 -163.255 721.281 -161.409 723.06ZM-135.052 728.254C-129.978 729.232 -141.63 723.739 -144.715 724.664C-142.315 725.412 -136.501 727.981 -135.052 728.254ZM-106.607 740.013C-104.085 741.083 -96.4676 744.066 -94.7448 743.463C-97.7103 742.769 -105.082 739.347 -106.607 740.013ZM-101.871 744.88C-98.287 747.522 -95.7117 743.872 -100.939 743.574C-101.142 743.562 -101.992 744.757 -101.871 744.88ZM-79.0353 753.304C-76.8703 755.672 -72.2842 752.692 -76.7089 751.334C-78.0226 750.936 -79.2582 753.039 -79.0353 753.304ZM-157.015 732.716C-153.547 734.717 -147.487 733.721 -155.391 730.584C-152.386 731.17 -149.377 731.751 -146.361 732.328C-152.875 728.888 -155.464 729.456 -157.333 729.896L-158.756 729.353C-159.72 729.541 -160.483 729.703 -161.423 729.258C-165.335 727.405 -163.457 724.507 -162.197 723.867C-166.427 724.386 -180.399 718.809 -188.401 716.266C-181.893 719.612 -171.075 725.538 -164.362 728.867C-162.722 729.679 -160.81 729.757 -159.213 730.263L-157.749 730.822C-157.456 730.9 -157.175 730.991 -156.909 731.102C-154.104 732.279 -157.206 732.596 -157.03 732.71C-157.025 732.712 -157.02 732.714 -157.015 732.716ZM-47.685 761.626C-39.9884 765.412 -43.9648 760.26 -48.8485 759.828C-49.0668 759.833 -47.876 761.532 -47.685 761.626ZM1733.33 792.769C1726.73 786.464 1734.1 788.174 1713.69 780.025C1722.92 782.619 1715.15 778.801 1717.25 778.874C1718.93 778.944 1723.11 782.239 1721.39 779.32C1722.58 781.062 1727.14 784.183 1731.09 786.822C1735.08 789.428 1738.4 791.844 1736.27 790.386C1736.28 790.396 1736.29 790.406 1736.3 790.415C1736.08 790.286 1735.85 790.456 1735.76 790.887C1735.65 791.307 1735.66 791.951 1735.48 792.406C1735.13 793.326 1734.21 793.694 1733.33 792.769ZM-110.696 750.056C-109.936 755.56 -105.884 748.501 -102.187 753.997C-92.9492 750.58 -121.492 747.93 -122.576 742.103C-94.6483 751.882 -139.166 731.299 -122.538 744.836C-137.595 736.886 -128.207 743.941 -131.088 744.006C-134.173 744.07 -142.8 739.915 -143.09 741.79C-143.085 741.792 -143.08 741.794 -143.075 741.795C-137.477 743.591 -131.849 745.366 -126.189 747.11C-130.079 741.562 -119.137 746.487 -116.473 750.784C-114.546 750.546 -112.622 750.303 -110.696 750.056ZM-140.842 736.024C-140.345 736.306 -128.051 739.899 -128.503 738.88C-129.934 737.88 -147.237 732.566 -140.842 736.024ZM-192.936 717.23C-189.072 718.641 -183.239 721.73 -180.395 721.203C-184.413 719.618 -190.208 716.591 -192.936 717.23ZM37.0065 780.205C43.0254 779.822 25.4064 776.937 30.1962 779.093C30.4269 779.195 36.7269 780.223 37.0065 780.205ZM-97.54 753.364C-92.3178 756.544 -93.2679 751.172 -98.0026 751.055C-98.2781 751.049 -97.7811 753.218 -97.54 753.364ZM1726.6 789.199C1725.68 790.013 1713.5 781.641 1711.11 780.271C1713.12 780.106 1727.89 788.302 1726.6 789.199ZM-201.379 719.005C-196.013 725.34 -183.029 725.063 -181.895 725.622C-180.761 726.185 -183.441 727.166 -183.191 727.318C-182.653 727.619 -169.981 732.491 -169.293 732.644C-168.809 732.729 -169.906 729.421 -166.922 729.724C-172.752 728.911 -195.249 719.194 -196.271 719.279C-197.208 719.206 -191.941 723.986 -201.366 719.009C-201.37 719.008 -201.374 719.006 -201.379 719.005ZM-179.177 727.31C-181.847 725.059 -172.957 728.419 -170.987 729.664C-166.635 732.4 -178.849 727.563 -179.177 727.31ZM-156.394 737.368C-155.427 737.981 -145.759 741.607 -144.419 740.757C-148.413 737.685 -158.598 735.975 -156.394 737.368ZM-43.764 771.17C-40.9853 771.665 -33.6848 774.238 -32.9356 773.297C-35.7517 772.863 -43.0105 770.255 -43.764 771.17ZM1676.98 771.036C1680.13 773.901 1671.41 769.329 1669.13 767.53C1669.42 766.851 1676.72 770.792 1676.98 771.036ZM-100.361 763.256C-99.0118 764.158 -66.2626 772.599 -61.3723 773.134C-65.7438 771.373 -97.8144 762.223 -99.3038 762.039C-99.7673 762.022 -100.542 763.147 -100.361 763.256ZM-169.713 740.253C-173.048 740.621 -173.887 738.222 -174.22 738.062C-177.359 736.529 -184.165 734.227 -182.023 733.424C-176.673 736.18 -163.049 739.541 -169.713 740.253ZM-43.5779 778.524C-32.043 780.544 -53.3291 773.982 -50.9709 776.183C-50.8232 776.327 -44.7781 778.321 -43.5779 778.524ZM-104.104 762.595C-107.076 763.146 -138.164 751.848 -143.021 750.064C-137.618 749.413 -134.74 752.293 -128.648 754.193C-127.001 754.702 -127.052 753.648 -126.876 753.704C-124.032 754.596 -126.592 754.947 -124.853 755.538C-123.8 755.959 -100.107 761.988 -104.104 762.595ZM-171.698 740.641C-173.765 740.754 -191.583 734.125 -192.088 733.724C-196.602 730.008 -173.033 739.684 -171.698 740.641ZM-101.947 765.45C-106.444 766.98 -121.555 760.267 -110.221 762.41C-109.142 762.62 -105.202 765.093 -101.947 765.45ZM-45.5865 780.729C-45.0622 780.958 -33.2825 784.108 -32.8029 783.298C-34.466 782.661 -51.6986 778.431 -45.5865 780.729ZM-52.6539 782.088C-52.3605 782.134 -54.6201 779.885 -49.1201 781.402C-48.6607 781.524 -48.3891 783.55 -41.1281 784.469C-39.654 784.652 -37.0621 783.944 -37.202 783.834C-43.689 779.499 -67.2836 779.53 -52.6539 782.088ZM-172.72 741.893C-172.125 743.001 -175.477 744.218 -177.048 742.285C-177.712 741.456 -175.382 740.846 -172.72 741.893ZM-7.59052 789.134C-15.071 789.333 7.23643 793.3 8.507 793.018C7.95814 792.09 -6.86677 789.161 -7.59052 789.134ZM1662.04 775.503C1662.05 775.505 1662.05 775.508 1662.06 775.51C1657.63 772.611 1661.16 773.217 1660.96 773.065C1652.03 765.94 1653.09 769.711 1651.37 769.114C1647.71 767.853 1649.98 765.282 1643.65 763.312C1654.07 766.832 1645.13 762.779 1645.53 761.639C1647.14 756.961 1656.69 770.544 1661.87 772.325C1662.61 772.581 1658.66 768.555 1660.57 769.134C1666.75 770.99 1679.21 786.77 1662.04 775.503ZM-178.743 741.832C-181.706 742.12 -198.057 734.324 -193.059 735.013C-192.345 735.033 -174.511 741.282 -178.743 741.832ZM749.612 625.286C745.762 628.012 755.99 625.538 757.454 624.052C758.221 623.28 751.294 624.082 749.612 625.286ZM816.591 611.037C822.563 609.566 827.978 603.421 820.771 605.718C820.018 605.963 815.798 610.51 816.591 611.037ZM478.519 746.027C484.199 745.174 482.57 742.406 478.915 744.234C477.649 744.871 478.347 746.052 478.519 746.027ZM687.185 653.185C687.76 653.06 694.063 650.155 693.544 649.574C691.046 650.151 683.342 653.989 687.185 653.185ZM477.146 747.214C479.826 745.249 473.754 745.64 471.332 749.429C473.001 748.363 476.876 747.41 477.146 747.214ZM-92.5107 776.009C-89.076 775.578 -80.8654 778.333 -75.9275 779.407C-76.0248 781.253 -89.0014 776.723 -92.5107 776.009ZM794.775 613.73C798.9 611.466 789.384 612.802 790.58 614.175C790.713 614.223 794.61 613.817 794.775 613.73ZM275.289 818.432C279.547 816.994 265.912 816.863 269.691 818.34C269.875 818.403 275.05 818.518 275.289 818.432ZM216.576 821.315C219.723 821.612 233.315 820.993 228.066 820.175C227.247 820.065 216.882 820.367 216.576 821.315ZM1650.38 770.057C1650.69 772.38 1643.22 767.653 1642.34 766.783C1641.97 766.416 1650.04 767.066 1650.38 770.057ZM512.263 730.637C514.957 729.187 522.35 726.37 523.268 724.964C519.957 726.623 510.605 729.366 512.263 730.637ZM775.218 619.323C779.534 619.912 785.741 617.913 783.604 615.931C776.578 618.213 785.084 617.762 775.218 619.323ZM462.583 757.084C464.483 756.207 464.825 753.319 464.557 753.334C461.998 753.485 460.32 757.269 462.583 757.084ZM628.584 679.627C629.106 680.513 636.284 676.865 635.054 676.686C634.649 676.621 628.164 678.907 628.584 679.627ZM14.5113 799.672C16.8867 800.713 11.9044 800.689 7.75012 800.004C5.96929 799.714 4.3481 799.318 3.43248 798.859C2.80566 797.988 5.26067 798.118 8.09713 798.494C11.0077 798.877 14.2899 799.581 14.5113 799.672ZM394.226 793.567C394.332 795.287 409.457 787.635 402.885 789.193C401.268 789.614 394.224 793.047 394.226 793.567ZM257.148 823.119C266.109 820.745 228.444 821.7 238.296 823.407C238.973 823.58 256.337 823.379 257.148 823.119ZM192.777 823.886C194.587 824.159 192.78 829.379 185.98 826.935C185.089 826.618 189.65 825.51 188.926 825.147C188.247 824.986 173.888 823.147 173.326 823.176C172.595 823.25 173.14 824.989 172.388 825.111C171.585 825.261 163.252 822.976 159.005 822.494C150.863 821.589 149.755 822.853 149.09 822.786C147.134 822.572 144.167 821.225 140.264 820.757C120.841 818.458 91.6292 815.683 77.3844 810.684C90.3769 813.697 103.418 814.195 116.839 815.553C112.295 817.933 137.115 815.874 122.49 817.418C128.725 817.677 185.153 823.519 192.757 823.885C192.763 823.886 192.77 823.886 192.777 823.886ZM840.213 607.436C836.897 609.992 855.367 605.397 856.497 603.023C854.085 603.313 840.634 607.152 840.213 607.436ZM767.967 629.844C766.648 630.64 766.514 634.26 758.534 635.404C758.527 635.407 758.521 635.409 758.514 635.412C756.182 635.753 758.388 634.032 757.895 633.902C757.744 633.823 750.265 634.864 755.919 632.416C764.43 628.774 757.567 634.496 762.135 632.836C762.727 632.599 770.578 627.839 769.952 627.648C769.877 627.622 767.507 628.866 767.019 628.863C765.252 628.82 765.696 627.532 765.458 627.563C764.748 627.628 751.554 634.506 748.884 633.892C748.203 633.511 770.469 623.965 771.146 624.172C771.721 624.153 772.346 627.065 772.973 627.16C773.321 627.166 781.424 623.383 782.532 623.369C782.863 623.351 783.121 623.362 783.312 623.378C781.844 622.841 789.313 620.751 789.302 621.854C789.263 622.273 784.12 623.495 783.915 623.495C783.828 623.489 783.748 623.47 783.676 623.461C785.113 624.07 767.36 629.842 771.652 630.198C766.645 632.903 771.697 627.598 767.967 629.844ZM741.597 641.834C742.099 641.299 742.596 640.766 743.087 640.236C734.656 644.288 724.39 647.445 713.95 651.467C712.171 652.15 710.336 652.882 708.519 653.647C705.495 654.917 709.683 655.215 705.493 656.416C702.131 657.38 697.934 657.249 699.541 656.141C699.939 655.865 706.89 654.173 710.098 652.705C711.628 652.004 712.811 651.415 713.735 650.911C718.796 648.182 716.678 647.815 717.151 647.577C717.741 647.281 724.295 645.805 727.532 644.425C735.781 640.914 739.238 638.402 750.623 635.358C744.665 638.839 748.935 639.661 741.597 641.834ZM331.563 816.443C331.19 817.587 322.402 818.294 319.325 818.946C319.694 817.847 328.406 817.239 331.563 816.443ZM1357 653.78C1359.82 652.935 1344.42 646.769 1347.91 649.63C1348.69 650.269 1355.02 653.032 1357 653.78ZM1288.08 627.524C1285.84 627.25 1293.54 631.32 1294.08 630.065C1294.25 629.658 1288.37 627.557 1288.08 627.524ZM605.121 698.441C604.727 698.671 598.722 700.909 598.493 700.917C593.92 700.981 613.671 693.407 605.121 698.441ZM1209.17 607.851C1216.83 608.068 1194.81 603.619 1201.21 606.243C1201.54 606.367 1208.82 607.838 1209.17 607.851ZM1178.01 602.862C1179.84 603.087 1187.67 604.947 1187.9 604.45C1188.28 603.638 1179.28 601.571 1178.01 602.862ZM464.381 763.331C465.918 764.615 457.259 767.867 454.392 769.909C452.793 768.64 461.71 765.036 464.381 763.331ZM524.161 736.267C482.692 756.604 490.097 748.7 526.338 734.298C526.854 735.398 526.798 734.999 524.161 736.267ZM472.499 760.297C473.235 758.54 477.564 756.723 480.54 755.362C480.364 756.38 474.343 759.072 472.499 760.297ZM1374.51 663.172C1371.11 663.64 1359.93 657.382 1362.34 657.566C1362.91 657.622 1375.85 662.724 1374.51 663.172ZM602.043 701.568C603.791 702.808 590.219 707.973 589.069 708.035C584.35 708.319 601.123 702.415 602.043 701.568ZM396.647 801.838C393.887 804.558 384.287 807.39 378.388 809.269C380.729 807.245 391.553 803.949 396.647 801.838ZM437.909 782.374C437.688 782.596 430.373 786.693 429.952 786.825C423.354 789.019 443.864 777.52 437.909 782.374ZM1660.3 791.509C1660.06 791.432 1656.22 789.121 1656.09 788.985C1653.37 785.732 1665.09 792.775 1660.3 791.509Z" fill="#F3EDE9"/>
</g>
</svg>
