<svg width="61" height="36" viewBox="0 0 61 36" fill="none" xmlns="http://www.w3.org/2000/svg">
<path d="M33.0516 9.86939C28.5854 7.908 21.9635 6.4953 13.6916 7.64181C7.5 8.5 3.80152 12.4698 2.70826 13.9849C1.615 15.5 0.818485 18.4997 1.615 20.6956C2.21383 22.3465 3.43263 24.8081 6.80688 27.3138C10.1811 29.8195 15.5122 32.345 21.1677 33.7019C26.8232 35.0588 32.6415 35.1705 37.8201 34.5889C42.9986 34.0073 47.3611 32.729 50.9865 31.0307C54.6119 29.3325 57.368 27.2531 58.718 24.8852C60.0681 22.5173 59.9286 19.9239 57.7827 17.2881C55.6369 14.6522 51.4889 12.0526 46.8673 9.80638C42.2457 7.56021 37.2762 5.74634 29.8384 4.10656C22.4007 2.46679 22.4029 2.55017 16 2" stroke="#5DCDF1" stroke-width="2" stroke-linecap="square"/>
</svg>
