<svg width="237" height="121" viewBox="0 0 237 121" fill="none" xmlns="http://www.w3.org/2000/svg">
<path d="M212.918 109.776L110.639 26.5542C107.975 24.3867 97.1921 30.2942 95.981 33.5572C91.003 46.9693 72.647 64.6026 16.6859 78.3684C13.4221 79.1713 13.3728 84.0409 16.6666 84.5593L210.445 115.053C213.481 115.531 215.278 111.696 212.918 109.776Z" fill="#CEAFFD"/>
<path d="M62.7137 81.6916C63.1944 81.1724 63.9133 80.9454 64.6044 81.0944L175.097 104.926C177.478 105.439 177.043 108.956 174.608 108.88L45.7933 104.834C44.0795 104.78 43.2261 102.736 44.3918 101.477L62.7137 81.6916Z" fill="#CEAFFD"/>
<path d="M45.5136 25.8841C37.5556 24.5267 31.768 29.9566 48.7692 41.8345C51.7791 43.9374 59.5573 47.2081 61.7914 48.9613" stroke="black" stroke-width="4" stroke-linecap="round"/>
<path d="M57.2913 35.8618C62.7172 40.2736 70.1534 43.1562 73.5115 44.2108" stroke="black" stroke-width="4" stroke-linecap="round"/>
<path d="M35.5876 39.2554C35.5876 39.2554 35.5876 42.9884 39.5414 46.26L41.8455 48.079C45.6402 49.8214 53.343 54.7206 55.9529 55.5451" stroke="black" stroke-width="4" stroke-linecap="round"/>
<path d="M81.8652 64.3687C96.3207 69.0929 209.121 112.472 211.337 112.868" stroke="black" stroke-width="5" stroke-linecap="round"/>
<path d="M87.319 50.1152C101.544 56.428 211.859 113.173 214.074 113.764" stroke="black" stroke-width="5" stroke-linecap="round"/>
<path d="M58.9782 90.8398C60.1071 91.2016 144.673 104.582 159.803 106.894" stroke="black" stroke-width="4" stroke-linecap="round"/>
<path d="M58.9782 90.8398C60.1071 91.2016 144.673 104.582 159.803 106.894" stroke="black" stroke-opacity="0.2" stroke-width="4" stroke-linecap="round"/>
</svg>
