<svg width="1418" height="1192" viewBox="0 0 1418 1192" fill="none" xmlns="http://www.w3.org/2000/svg">
<path d="M1 15C1 6.71575 7.71573 0 16 0H1403C1411.28 0 1418 6.71573 1418 15V1177C1418 1185.28 1411.28 1192 1403 1192H16C7.7157 1192 1 1185.28 1 1177V15Z" fill="#F7F3F0"/>
<mask id="mask0_60_2" style="mask-type:alpha" maskUnits="userSpaceOnUse" x="0" y="227" width="1417" height="906">
<path d="M0 242.278C0 233.994 6.71573 227.278 15 227.278H1402C1410.28 227.278 1417 233.994 1417 242.278V1117.76C1417 1126.05 1410.28 1132.76 1402 1132.76H15C6.7157 1132.76 0 1126.05 0 1117.76V242.278Z" fill="#F7F3F0"/>
</mask>
<g mask="url(#mask0_60_2)">
<path d="M-315.676 706.453C-314.658 706.165 -311.817 703.696 -309.083 702.2C-313.947 701.835 -319.148 707.392 -315.676 706.453ZM-19.704 804.276C-21.6694 804.265 -23.5446 804.219 -25.5652 804.224C-20.9863 802.085 -14.4617 800.224 -10.4278 798.04C-9.7728 797.681 -12.4246 796.542 -10.8027 795.849C-9.17321 795.154 -8.36118 797.748 -5.78928 797.107C-2.9732 796.406 8.58503 790.101 12.8373 788.571C28.7411 782.866 45.2103 778.419 60.1964 771.808C43.3551 775.781 58.6557 768.044 63.4832 767.243C64.5283 767.096 66.5432 771.669 81.7676 764.98C91.2934 760.844 79.4507 757.233 97.0785 755.12C86.6369 763.94 98.9744 759.337 108.029 756.683C109.079 756.347 118.954 752.845 120.56 752.532C121.58 752.293 122.597 752.079 123.468 751.924C125.319 751.597 129.065 753.477 131.746 753.007C133.611 752.677 134.598 751.025 137.484 750.541C150.791 748.31 164.749 746.05 178.824 743.328C168.908 738.134 184.69 739.511 185.291 739.109C188.272 736.803 172.75 738.713 178.569 736.649C187.131 735.508 195.743 734.42 204.356 733.389C197.517 735.201 214.902 737.554 217.41 735.024C217.346 740.401 248.86 727.513 258.606 726.519C259.63 726.403 260.424 726.395 260.971 726.516C262.059 726.857 255.547 730.289 272.192 727.497C273.956 727.214 273.002 725.511 273.927 725.608C274.441 725.67 278.544 731.017 280.847 727.819C281.296 727.233 279.747 726.094 279.927 725.207C280.011 724.764 280.642 724.374 281.863 724.18C282.468 724.083 283.339 724.035 284.057 724.07C284.845 724.1 285.616 724.229 285.485 724.41C285.547 725.124 285.516 725.703 285.547 726.174C285.558 726.644 285.623 727.009 285.343 727.257C285.08 727.501 284.407 727.64 282.843 727.515C281.47 727.445 278.59 726.818 279.137 726.906C279.521 726.952 285.327 728.512 291.936 729.731C298.63 730.98 304.833 731.658 309.912 731.993C319.938 732.618 326.031 732.218 328.998 731.942C326.845 732.668 324.114 733.35 321.692 733.999C334.112 732.409 335.424 734.119 337.887 734.043C347.464 733.549 358.331 731.04 365.817 730.735C374.167 730.387 374.76 733.919 384.265 731.757C382.033 732.732 379.861 733.695 377.743 734.646C383.949 733.993 389.733 733.319 395.952 732.569C395.562 732.591 395.199 732.605 394.862 732.614C395.2 732.427 395.538 732.246 395.865 732.072C387.72 730.384 391.337 730.69 395.709 731.169C393.714 731.908 392.689 732.537 392.548 732.581C391.976 732.75 392.557 730.836 391.814 731.066C391.785 731.085 391.809 731.546 391.743 732.026C391.698 732.507 391.458 732.996 391.528 733.101C391.642 733.213 392.077 733.19 392.434 733.077C392.797 732.965 393.125 732.763 393.397 732.542C393.943 732.103 394.247 731.581 395.24 731.744C395.505 731.807 394.343 733.212 398.442 734.311C413.839 738.563 398.095 732.929 398.016 732.757C397.686 732.55 398.899 730.982 398.694 729.504C398.592 728.766 398.105 728.04 397 727.553C395.927 727.071 394.089 726.813 392.551 727.247C394.755 726.736 395.903 723.925 396.183 723.888C396.263 723.797 403.574 725.547 404.2 725.808C408.184 727.648 404.254 728.92 405.007 729.445C405.375 729.783 416.886 729.598 418.793 736.33C425.609 732.156 415.986 730.367 407.623 727.712C406.464 726.267 416.388 727.287 417.06 727.465C430.722 730.643 422.348 733.458 424.828 737.074C426.179 738.983 432.529 737.254 426.445 740.068C439.391 743.612 431.945 739.362 432.837 739.208C434.207 738.999 438.683 741.298 439.314 741.286C440.231 741.266 437.454 739.121 441.001 739.453C441.589 739.519 446.679 743.283 439.303 742.726C448.955 744.683 447.826 746.575 451.936 743.189C457.23 752.704 457.735 739.681 460.468 739.862C467.888 740.379 464.667 746.101 465 746.496C467.249 749.074 487.964 751.505 492.988 753.458C491.663 748.546 476.702 749.872 473.724 748.273C463.711 743.004 488.965 749.36 482.245 741.998C485.166 744.252 488.196 746.52 491.149 748.758C497.677 746.377 489.454 743.05 505.293 747.688C507.461 751.38 494.016 744.85 496.455 747.903C497.851 749.706 507.169 751.933 507.255 752.731C507.29 753.695 499.011 750.878 500.124 752.564C500.944 753.754 504.695 754.904 508.77 755.698C514.748 756.87 521.095 756.508 510.251 753.046C514.897 754.047 518.172 748.487 521.564 751.265C523.515 753.076 509.422 758.117 528.554 761.537C529.624 758.8 521.236 758.664 521.043 758.429C520.798 758.038 523.544 751.984 523.879 751.738C525.052 750.705 544.061 760.122 550.506 759.225C547.18 761.93 568.445 766.717 570.703 768.936C571.222 769.484 568.083 770.709 568.671 771.206C572.266 774.184 585.179 775.014 590.714 777.201C593.771 778.401 594.963 779.41 595.408 780.12C595.815 780.807 595.537 781.222 595.702 781.288C598.363 782.278 596.749 780.145 598.364 780.823C600.759 781.812 617.917 788.777 618.651 789.408C618.87 789.597 615.238 790.515 618.813 792.508C619.446 792.862 619.991 790.155 630.645 795.998C643.457 803.036 620.139 795.121 624.634 800.122C634.691 800.078 632.926 803.652 635.374 804.367C636.21 804.604 643.478 804.063 649.933 807.101C645.457 804.558 640.962 802.013 636.509 799.493C641.312 800.919 649.991 805.482 654.05 806.519C656.028 807.025 655.541 803.785 659.545 805.611C660.394 806.015 661.225 813.75 651.82 806.349C650.067 808.22 655.679 808.945 657.752 810.594C658.065 810.847 657.932 815.189 661.854 814.165C662.805 813.91 659.461 799.596 676.34 816.278C676.884 816.815 674.073 817.193 674.59 817.753C674.943 818.133 680.306 819.833 680.795 820.276C681.29 820.738 678.197 821.139 678.768 821.735C681.689 824.797 688.767 820.934 681.277 818.179C684.016 818.519 686.765 818.864 689.508 819.208C685.06 822.507 692.838 822.148 696.159 823.771C717.515 834.205 701.777 830.695 704.892 833.835C709.912 838.886 708.455 829.249 716.444 835.474C717.187 836.055 705.038 834.513 726.891 842C723.809 840.491 720.776 839.004 717.699 837.498C721.281 833.994 728.833 842.759 729.52 843.133C737.582 847.389 732.618 843.366 744.03 851.019C745.05 851.704 747.919 851.715 750.044 853.277C758.989 859.798 736.548 848.891 735.256 850.377C734.562 851.082 759.135 861.663 760.183 861.638C764.516 861.423 749.338 855.931 753.091 854.948C753.611 854.786 759.973 857.699 767.68 861.262C777.977 866.017 790.221 871.959 794.069 873.145C801.709 875.466 807.358 871.205 804.482 877.674C809.294 872.267 809.003 877.395 809.884 877.771C820.249 882.164 820.188 882.074 827.338 886.722C828.872 887.738 831.274 886.685 831.678 887.328C831.907 887.709 830.16 889.301 831.454 890.856C832.532 892.146 838.767 895.11 845.265 898.108C849.982 900.391 854.534 902.341 855.49 902.347C857.821 902.318 845.529 895.735 848.799 895.301C857 900.107 866.288 906.096 877.023 911.148C881.501 913.23 879.817 910.808 881.755 911.706C882.511 912.187 897.673 920.146 896.854 920.271C894.12 921.701 848.54 896.849 859.461 905.36C861.364 907.044 871.043 908.487 867.921 911.364C889.624 922.4 913.608 930.628 934.779 935.62C954.468 940.307 972.796 943.138 990.514 945.169C973.996 940.393 955.07 938.343 935.206 933.602C930.161 932.393 925.066 931.001 920.006 929.36C916.543 928.323 904.367 924.449 906.459 922.996C915.785 926.175 925.803 929.343 935.558 931.943C948.701 935.461 961.398 938.064 972.064 939.135C972.651 939.192 970.728 936.982 972.935 937.069C977.069 937.279 989.824 942.222 992.042 941.71C992.424 941.591 985.264 938.102 987.63 936.875C993.639 933.719 994.426 942.712 999.355 943.232C1003.28 943.759 1028.27 941.97 1034.26 945.004C1040.79 948.428 1016.06 945.201 1017.78 947.642C1034.71 951.652 1051.52 950.11 1066.93 950.949C1067.2 950.966 1064.89 952.738 1068.37 953.119C1074.39 953.768 1075.85 951.165 1078.71 950.813C1080.16 950.64 1083.3 950.675 1086.37 950.652C1092.89 950.659 1097.29 950.315 1098.35 949.768C1098.58 949.636 1095.32 947.126 1094.83 947.06C1090.87 946.544 1087.99 947.378 1086.23 948.197C1085.49 948.816 1085.11 949.436 1084.92 949.452C1083.29 949.553 1081.61 948.224 1080.12 948.27C1077.65 948.345 1076.35 949.515 1073.1 949.529C1070.84 949.54 1072.93 947.3 1070.75 947.339C1070 947.374 1061.49 952.319 1060.53 946.903C1060.39 946.204 1072.05 945.972 1086.07 945.594C1117.92 944.531 1137.91 940.563 1143.06 941.052C1137.48 942.351 1131.83 943.625 1125.94 944.858C1137.85 942.104 1152.29 944.699 1152.02 938.27C1193.85 932.589 1233.64 926.182 1273.62 919.917C1275.76 919.438 1276.81 918.781 1277.57 918.084C1279.57 916.446 1279.86 914.697 1289.31 914.017C1286.19 915.864 1283.04 917.69 1279.86 919.49C1286.67 917.754 1316.2 910.473 1321.12 910.116C1321.77 910.086 1323.74 913.543 1331.21 912.19C1337.84 910.968 1337.99 908.011 1341.27 906.666C1344.02 905.538 1347.48 905.431 1348.29 905.065C1348.9 904.781 1348.6 903.076 1350.06 902.389C1354.69 900.23 1352.32 905.878 1355.34 899.305C1354.08 899.417 1352.82 899.526 1351.56 899.634C1357.24 897.326 1364.36 892.739 1355.3 893.892C1353.74 894.084 1355.58 895.326 1354.47 895.618C1310.35 906.293 1344.67 894.715 1360.6 892.963C1363.71 889.623 1385.65 884.741 1386.13 884.02C1386.84 883.058 1382.49 882.316 1386.59 879.26C1387.54 878.683 1415.77 870.949 1404.52 871.14C1402.23 871.196 1389.19 876.134 1385.88 877.029C1391.56 869.801 1411.99 871.031 1413.87 870.163C1421.45 866.748 1396.9 871.033 1414.44 864.492C1427.83 859.421 1416.49 867.027 1422.32 866.624C1425.63 866.4 1439.23 857.492 1440.86 862.247C1441.95 861.975 1442.65 861.702 1443.08 861.437L1445.88 860.368C1447.44 859.272 1444.95 858.415 1445.36 858.081C1445.87 857.683 1455.89 855.243 1458.42 853.099C1458.73 852.834 1456.42 850.928 1456.7 850.583C1457.29 849.941 1466.37 846.938 1466.78 847.034C1467.07 847.088 1465.98 849.969 1467.07 850.146C1468.4 850.305 1476.28 846.759 1476.88 847.262C1478 847.879 1467.78 851.027 1470.5 852.753C1475 850.313 1482.81 849.317 1485.74 850.559C1485.02 850.164 1481.23 851.374 1479.83 852.112C1482.35 855.154 1489.71 852.647 1486.05 850.736C1488.19 851.72 1487.47 852.838 1488.87 853.973C1489.11 854.169 1490.14 853.977 1491.08 853.974L1497.23 851.869C1499.11 851.263 1500.89 850.651 1501.73 850.495C1501.9 850.483 1499.76 851.753 1497.75 852.93L1491.5 855.067C1491.06 855.716 1490.73 856.503 1491.13 856.841C1491.36 857.034 1491.75 857.121 1492.28 857.118L1498.71 854.921C1504.05 853.293 1515.77 847.876 1524.71 840.357C1533.73 832.978 1538.68 825.85 1539.44 824.665C1541.91 820.3 1538.21 825.1 1531.57 831.186C1525.02 837.414 1514.88 843.443 1513.05 843.523C1512.71 843.593 1519.72 838.291 1525.22 831.809C1530.83 825.383 1534.25 818.957 1534.25 818.743C1533.47 817.189 1529.22 823.069 1523.05 828.678C1517 834.345 1509.84 838.599 1510.83 836.366C1517.94 830.972 1524.1 824.174 1528.27 817.863C1521.29 826.051 1504.5 838.301 1492.46 841.993L1487.17 843.801C1483.02 844.48 1478.15 846.032 1475.43 845.022C1480.03 843.786 1483.6 842.808 1486.27 841.446L1491.36 839.706C1498.45 836.684 1506.38 831.294 1510.42 826.733C1514.62 822.139 1515.76 818.716 1514.35 817.469C1512.51 815.931 1496.93 825.701 1496.99 824.174C1497.3 822.473 1503.12 818.951 1508.03 814.73C1513.01 810.58 1516.71 806.497 1516.88 806.17C1517.11 805.563 1517.15 805.237 1517.02 805.148C1517.02 805.148 1517.02 805.148 1517.02 805.148C1516.36 804.639 1511.77 810.43 1504.63 815.748C1497.5 821.204 1489.58 824.241 1488.93 824.163C1486.17 824.287 1495.05 813.601 1494.07 812.444C1493.87 812.474 1490.82 814.294 1487.61 815.516C1484.38 816.784 1481.33 817.401 1480.41 817.049L1477.32 818.108C1477.17 817.947 1477.09 817.756 1477.09 817.527L1480.14 816.486C1480.23 816.28 1480.43 816.021 1480.78 815.691C1485.12 812.702 1499.01 801.656 1498.53 800.879C1498.99 799.544 1495.86 802.586 1491 805.667C1486.12 808.847 1480.14 811.058 1477.77 811.571L1475.15 812.465C1474.76 812.457 1474.5 812.422 1474.42 812.337C1474.36 812.269 1474.54 812.02 1474.85 811.674L1477.4 810.803C1479.87 809.197 1486.38 803.836 1486.23 803.149C1486.19 802.645 1478.89 805.805 1474.84 805.511L1472.76 806.223C1472.36 806.059 1471.97 805.878 1471.65 805.665C1470.72 805.074 1471.2 804.174 1471.71 803.487L1473.56 802.854C1474.37 802.102 1475.19 801.435 1474.66 801.555C1474.52 801.586 1473.97 801.8 1473.19 802.089L1471.4 802.698C1469.11 803.236 1462.82 805.325 1462.3 805.293C1461.48 805.17 1462.89 802.795 1462.41 802.493C1461.72 802.049 1459 803.689 1459.12 802.95C1459.2 802.438 1465.85 795.324 1467.49 792.501L1468.4 792.19C1468.78 791.634 1468.94 791.217 1468.82 791.018C1468.63 790.7 1468.23 790.646 1467.7 790.733L1466.92 791.001C1464.28 791 1457.3 797.001 1464.1 784.865C1464.11 784.845 1464.28 784.821 1464.54 784.798L1464.79 784.711C1465.76 784.545 1467.95 784.004 1467.99 783.901C1468.4 782.525 1465.73 782.477 1464.62 781.868C1463.41 781.162 1464.05 780.96 1468.79 777.759C1466.26 779.234 1464.09 779.678 1462.47 779.911L1462.64 779.854C1454.52 780.478 1459.07 777.978 1460.94 775.43L1460.4 775.616C1460.83 774.605 1460.7 773.628 1459.65 772.798C1459.45 772.637 1459.18 772.519 1458.86 772.434L1459.69 772.152C1456.61 771.608 1449.55 773.322 1449.45 773.126C1449.38 770.723 1452.92 771.413 1453.46 770.067C1453.74 769.285 1444.82 769.747 1445.98 767.699C1446.49 766.614 1455.39 764.039 1455.71 763.832C1455.95 763.631 1456.14 763.447 1456.28 763.278L1454.7 763.818C1454.73 762.985 1454.19 762.366 1453.72 761.79L1455.48 761.189C1454.78 760.793 1454.02 760.465 1454.18 759.96C1454.23 759.805 1454.47 759.62 1454.8 759.426L1452.89 760.079C1453.01 759.82 1453.07 759.66 1452.95 759.634C1452.84 759.601 1452.66 759.667 1452.63 759.628C1452.44 759.523 1452.4 758.14 1451.54 757.285L1453.7 756.548C1452.02 756.372 1450.42 756.226 1449.71 756.064C1448.21 755.712 1452.29 753.196 1451.33 753.14C1445.35 752.774 1437.05 761.155 1444.29 751.056C1444.74 750.431 1448.83 749.341 1448.92 749.231C1450.68 746.552 1443.12 748.684 1441.21 747.59C1437.79 745.665 1449.11 743.663 1439.44 744.691C1442.28 742.752 1444.9 741.463 1447.55 740.521L1444.03 741.726C1443.26 741.829 1440.12 743.413 1437.63 746.269C1439.86 743.64 1443.11 741.594 1443.62 740.882L1447.22 739.652C1433.47 741.444 1428.69 738.235 1444.52 732.63L1440.33 734.065C1439.66 734.273 1438.35 734.789 1436.63 735.819C1438.76 734.615 1439.67 734.025 1440.03 733.445L1444.28 731.992C1440.71 731.851 1439.8 729.687 1437.95 730.208C1436.17 730.669 1426.97 738.338 1428.15 727.93C1428.23 726.628 1435.98 725.63 1432.8 724.146C1416.43 730.411 1431.63 722.871 1431.73 722.551C1427.6 717.671 1394.41 735.34 1388.98 737.044C1387.46 737.49 1386.01 737.734 1384.49 737.911L1387.34 736.82C1382.12 737.072 1377.35 735.874 1376.28 736.245C1371.81 737.808 1376.41 738.551 1375.75 739.652C1375.04 740.773 1360.67 741.209 1360.16 741.613C1358.09 743.302 1361.61 744.895 1361.41 745.102C1358.99 747.657 1341.32 751.265 1336.89 753.231C1336.4 751.61 1345.76 748.513 1338.85 747.821C1330.85 746.983 1333.24 754.08 1333.18 754.45C1303.44 763.464 1274.18 770.454 1244.8 774.615C1242.94 774.879 1241.1 775.142 1239.27 775.403C1239.13 774.198 1241.27 773.325 1244.36 772.669C1250.34 771.359 1260.45 770.95 1260.68 770.527C1261.66 768.718 1252.99 769.554 1243.9 770.692C1234.19 771.946 1224.04 773.772 1221.89 774.757C1225.34 773.401 1228.79 772.042 1232.24 770.683C1225.04 767.138 1212.58 774.886 1203.19 774.203C1200.13 773.982 1205.31 771.475 1205.16 771.375C1201.56 770.11 1196.57 772.191 1201.02 773.947C1192.61 772.855 1194.26 775.146 1188.27 776.184C1187.95 776.237 1190.18 774.073 1185.17 774.014C1182.85 773.987 1170.85 775.66 1168.89 774.311C1168.07 773.745 1172.64 765.943 1174.7 771.824C1187.1 767.078 1179.47 773.967 1184.51 773.116C1185.29 772.973 1182.74 769.895 1195.9 769.648C1192.07 763.984 1178.44 770.553 1175.71 770.179C1170.18 769.411 1190.88 763.295 1195.9 767.416C1193.01 762.978 1197.26 766.57 1202.04 765.688C1207.22 764.732 1204.62 763.659 1207.48 763.243C1215.22 762.097 1212.78 765.87 1218.5 761.961C1214.37 772.11 1229.75 761.605 1234.26 758.45C1225.93 759.166 1217.7 759.867 1209.4 760.571C1209.76 760.019 1210.11 759.467 1210.46 758.914C1208.35 759.288 1206.2 759.668 1204.06 760.044C1204.51 760.461 1204.96 760.877 1205.41 761.293C1193.65 759.85 1191.75 763.628 1190.84 763.797C1179.31 765.841 1165.97 767.679 1154.36 769.268C1152.64 769.499 1153.11 766.331 1141.04 770.379C1137.21 771.66 1141.48 773.527 1136.85 773.768C1129.84 768.087 1131 773.189 1129.35 773.409C1124.51 774.025 1121.31 772.784 1120.84 772.825C1114.91 773.304 1106.44 774.568 1100.29 774.966C1100.17 774.953 1102.96 772.645 1099.13 773.643C1098.04 773.975 1085.82 783.838 1078.4 781.281C1080.03 780.653 1082.2 779.958 1084.52 779.216C1083.32 779.736 1076.66 779.723 1076.2 778.923C1070.59 778.121 1066.2 776.902 1069 775.853C1070.62 775.245 1073.46 776.151 1076.07 776.741C1076.17 777.382 1078.06 777.582 1077.97 774.768C1077.35 775.046 1076.01 775.219 1075.99 775.294C1061.28 775.711 1030.73 772.304 1028.15 772.942C1027.7 773.078 1030.44 775.012 1029.81 775.176C1029.31 775.321 1019.81 774.038 1018.56 774.537C1017.8 774.848 1021.94 776.316 1021.58 776.89C1021.25 777.329 1009.45 776.747 1008.97 774.511C1011.73 775.736 1019.86 775.872 1015.7 773.616C1015.17 773.335 1012.3 774.383 1011.66 774.02C1005.73 770.719 1023.84 773.434 1026.83 773.585C1015.19 769.89 997.475 770.855 985.956 766.755C980.919 767.575 992.768 770.781 987.098 771.194C975.391 771.951 984.455 768.202 984.108 767.909C981.616 765.656 970.975 772.895 972.428 765.783C971.707 765.81 971.164 765.871 970.719 765.94C968.891 766.256 968.705 766.713 965.266 764.892C965.971 764.585 966.669 764.271 967.376 763.956C963.423 758.611 951.709 765.175 951.854 766.047C952.853 768.844 958.964 767.548 959.382 767.748C959.965 768.034 959.722 775.793 969.476 771.809C969.52 771.791 969.564 771.774 969.608 771.756C970.162 772.974 969.827 773.66 969.005 774.029C965.946 775.467 957.385 772.326 962.457 776.653C957.021 774.894 938.984 770.544 936.73 766.35C936.477 765.869 940.67 762.744 934.288 761.823C931.156 761.315 937.161 764.974 935.444 765.23C934.546 765.389 932.499 764.683 929.099 762.925C920.114 758.062 898.811 745.284 881.041 736.482C863.204 727.435 847.842 720.215 842.203 717.593C841.317 717.192 841.06 718.729 840.186 718.325C838.305 717.454 833.611 714.197 829.11 711.744C827.266 710.717 825.295 709.775 823.849 709.376C834.398 710.961 816.048 702.66 811.23 700.867C803.881 698.138 803.336 700.798 800.018 699.952C787.253 696.697 771.145 682.7 759.572 684.046C762.32 678.865 742.357 679.605 734.758 676.335C728.806 673.773 721.635 666.417 730.56 667.745C720.185 663.501 709.769 657.776 700.188 653.245C698.606 652.496 700.165 655.054 697.49 653.728C697.247 653.594 697.559 651.882 695.256 650.696C676.353 640.952 684.454 648.366 680.423 647.786C678.171 647.467 676.543 647.093 675.393 646.708C686.698 651.888 699.451 658.133 702.916 659.689C698.562 661.868 678.115 648.199 671.185 646.365C670.943 646.302 670.98 648.56 670.743 648.475C670.738 648.473 670.733 648.47 670.728 648.468C668.223 647.56 652.802 640.24 656.927 639.31C658.022 639.056 665.312 642.115 673.723 645.944C671.604 644.54 674.164 643.118 673.797 642.854C669.275 639.68 656.309 636.661 651.793 635.12C651.591 635.051 651.454 634.941 651.363 634.809C650.988 634.279 651.348 633.402 651.218 633.345C647.127 632.01 647.322 636.669 644.779 630.897C639.124 632.142 645.728 634.282 650.763 636.366C653.727 637.592 656.234 638.836 655.222 639.794C654.822 640.178 652.779 639.709 649.854 638.726C637.807 634.593 607.61 620.87 608.504 617.744C608.199 618.104 607.319 618.357 605.712 618.42C602.248 618.551 588.048 612.965 585.551 611.37C585.153 611.076 586.478 607.26 585.937 607.039C584.704 606.429 564.741 603.446 557.78 599.309C561.88 599.794 566.003 600.352 570.098 600.968C546.031 594.192 549.911 594.373 558.26 595.14C558.668 595.235 559.095 595.188 559.486 595.274C565.98 596.036 574.192 597.607 574.389 597.342C575.261 595.792 533.822 584.876 541.313 590.693C542.188 591.308 561.492 594.274 551.585 594.619C549.814 594.624 538.014 591.207 537.417 591.422C532.882 592.349 558.439 600.895 554.716 602.997C548.882 598.751 540.489 598.281 533.698 596.207C532.718 595.908 531.997 595.487 531.457 595.047C530.545 594.147 530.328 593.124 530.12 593.055C525.589 591.599 527.868 594.237 526.341 593.872C525.511 593.676 517.111 587.27 517.859 593.825C488.332 582.613 510.38 587.648 528.592 591.709C523.147 588.295 511.6 586.95 506.517 585.261C504.697 584.657 506.152 582.844 503.097 581.727C496.966 579.541 465.067 574.333 455.752 572.696C461.012 574.705 459.045 576.573 454.886 575.424C450.722 574.277 454.788 572.12 454.029 571.605C453.402 571.072 432.528 567.763 428.415 566.615C444.83 571.226 440.826 572.648 426.61 569.934C428.672 571.015 430.55 572.073 432.506 573.157C424.791 570.451 404.913 570.495 397.949 568.937C396.935 568.661 400.671 567.128 400.093 566.974C397.3 566.248 390.954 565.878 384.102 566.009C377.354 566.086 369.984 566.909 369.265 566.651C368.186 566.081 379.506 563.993 375.175 563.354C374.718 563.288 371.61 563.999 366.838 565.008C365.058 565.706 362.831 566.357 360.599 566.238C358.885 566.147 359.59 564.237 359.152 564.167C355.642 563.572 357.925 566.508 351.467 566.517C346.744 566.504 342.826 563.755 336.789 565.09C356.827 559.944 339.313 562.799 331.299 561.932C330.147 561.776 330.395 558.5 323.819 560.244C339.822 565.846 318.749 563.649 317.614 563.417C317.518 563.431 317.432 565.621 316.491 565.598C316.44 565.592 316.439 564.119 315.88 563.961C315.308 563.775 315.566 563.698 315.912 563.706C316.272 563.713 316.596 563.769 316.635 563.793C316.689 563.82 316.536 563.83 316.429 563.875C316.316 563.919 316.255 564.002 316.258 564.122C316.371 564.625 316.521 565.454 316.073 566.085C315.918 566.204 315.687 566.134 314.315 565.661C312.993 565.205 310.077 564.21 306.272 563.156C298.308 560.925 289.975 559.559 287.037 559.317C285.721 559.221 286.119 560.732 281.187 560.42C272.7 559.946 266.708 558.517 262.478 558.521C262.108 558.54 261.893 560.923 254.608 560.539C252.516 560.441 249.984 559.743 252.895 558.852C261.82 556.202 282.983 558.024 307.78 561.288C316.137 562.374 308.114 559.129 293.963 556.942C280.833 555.021 270.883 555.346 269.785 555.294C268.906 555.284 276.905 556.468 269.093 556.738C262.58 556.979 251.815 553.339 244.595 554.85C243.809 554.972 238.848 558.988 239.08 559.182C239.218 559.246 241.569 559.27 243.647 559.445C245.884 559.606 247.992 559.905 247.382 560.469C247.314 560.533 245.781 560.672 244.171 560.908C242.721 561.131 241.165 561.453 240.861 561.866C240.127 562.871 239.179 572.209 238.064 572.547C235.296 573.384 236.802 571.128 234.941 571.455C233.868 571.643 232.088 572.076 229.959 572.568C224.411 573.881 217.183 575.568 216.362 573.304C218.632 572.847 220.805 572.408 223.104 571.962C210.303 573.084 215.526 571.132 213.594 570.748C211.539 570.339 212.626 573.039 208.473 573.811C207.546 573.96 189.925 575.636 190.015 574.451C200.063 575.021 195.739 572.087 196.178 571.964C197.843 571.519 200.399 573.159 202.679 572.833C218.743 570.538 201.829 569.521 205.483 568.272C206.748 567.847 209.714 569.163 210.242 569.014C211.993 568.526 211.615 566.375 212.864 566.405C215.776 566.473 213.082 569.897 213.337 570.029C216.189 571.625 225.821 568.127 218.897 565.53C222.464 563.91 223.603 567.889 226.371 565.952C231.779 562.137 222.896 563.903 220.401 563.653C211.357 562.736 209.149 564.565 197.104 565.555C192.761 565.921 187.291 564.647 185.274 564.81C184.001 564.903 173.759 573.293 171.047 562.765C166.688 564.436 161.157 572.441 156.405 572.823C152.135 573.162 152.59 569.225 152.164 569.139C151.507 569.001 146.488 570.07 144.635 569.811C142.465 569.5 143.135 567.916 139.784 567.837C131.449 567.652 132.574 571.445 131.821 571.821C122.986 576.233 125.831 570.139 123.59 570.054C121.549 569.918 94.2192 576.859 87.6739 576.786C90.3625 577.064 93.007 577.361 95.6301 577.67C91.9433 580.841 86.2018 577.901 87.3142 582.153C84.5391 575.469 76.5944 581.903 73.6462 582.369C72.4965 582.539 72.2582 581.354 70.8088 581.618C69.7178 581.816 68.3939 582.112 66.9578 582.465C58.2483 584.556 49.7705 587.687 47.2407 587.915C36.7982 589.023 51.3146 580.931 65.027 576.339C67.8058 575.281 69.9855 574.534 70.5331 574.354C69.5156 574.59 67.3288 575.012 64.7542 575.474C50.3347 578.295 34.7097 581.802 44.4123 575.936C46.3621 574.802 51.6345 576.622 53.0319 576.375C62.8951 574.601 54.4049 573.896 55.0571 573.441C55.8299 572.879 60.8088 573.233 64.0071 573.103C64.6827 573.119 65.2288 573.079 65.5288 572.936C65.9615 572.739 62.1677 570.915 69.9746 569.161C68.7228 568.714 66.0811 568.929 62.8746 569.51C51.0287 571.835 40.2679 576.249 37.9999 576.482C37.062 576.585 40.6913 569.692 25.3954 580.119C25.3964 579.593 25.3976 579.067 25.3988 578.541C15.863 581.449 6.79316 584.361 -2.13887 587.286C-0.712076 588.005 5.1522 588.4 -1.25489 590.131C-4.95992 591.136 -3.34949 587.845 -3.70666 587.892C-7.60296 588.364 -62.4849 609.396 -72.8089 612.988C-76.3946 614.22 -87.1511 616.004 -87.879 616.231C-92.5001 617.728 -107.521 624.679 -110.635 625.481C-112.607 625.995 -111.689 623.379 -113.36 624.09C-114.9 624.747 -112.408 626.056 -112.841 626.304C-114.45 627.283 -123.764 630.121 -130.645 632.012C-140.637 634.91 -150.939 638.241 -154.492 640.498C-151.194 638.899 -137.064 636.204 -129.212 635.453C-127.112 635.491 -125.183 635.511 -125.183 635.956C-125.125 636.075 -126.932 637.44 -128.107 638.105C-129.168 638.603 -130.155 638.944 -130.683 638.836C-131.99 641.147 -141.022 638.39 -144.362 640.658C-144.737 640.916 -141.859 643.165 -148.318 645.96C-150.541 646.921 -157.541 646.808 -162.491 651.414C-171.914 653.136 -215.588 674.224 -219.995 672.662C-220.173 672.543 -214.338 668.958 -219.231 669.47C-225.708 670.152 -217.917 673.54 -224.262 676.703C-225.24 677.155 -243.732 684.241 -244.482 684.185C-251.564 683.488 -236.308 675.494 -236.699 675.251C-237.714 674.575 -251.23 679.658 -251.646 680.112C-252.044 680.549 -239.204 679.958 -252.897 683.98C-251.667 682.858 -250.459 681.749 -249.22 680.628C-255.779 682.301 -254.889 685.342 -256.262 686.146C-256.816 686.473 -257.42 686.723 -258.061 686.93C-262.193 688.245 -267.851 687.506 -271.547 694.715C-272.75 696.948 -268.768 697.091 -268.92 697.413C-270.182 700.262 -275.671 696.534 -277.337 701.869C-277.406 702.07 -275.061 701.798 -274.491 702.276C-274.148 702.874 -274.561 703.658 -283.308 707.706C-282.193 706.738 -281.211 705.844 -280.314 704.993C-281.688 705.163 -286.477 706.776 -294.349 710.751C-302.25 714.876 -304.564 716.376 -305.434 716.975C-309.383 720.052 -304.023 720.262 -308.519 722.501C-307.822 717.516 -321.802 724.945 -319.179 727.362C-320.666 726.554 -322.674 727.008 -325.182 728.239C-330.455 730.842 -336.803 736.102 -340.999 738.532C-344.86 740.762 -353.982 743.74 -355.083 744.616C-356.433 745.686 -354.38 747.898 -356.784 750.007C-357.438 750.591 -366.855 753.443 -372.364 760.095C-373.414 761.369 -373.598 767.216 -370.304 766.765C-364.699 766.009 -358.553 757.904 -357.038 760.43C-355.406 763.119 -367.745 767.984 -370.544 770.069C-383.517 779.715 -373.531 777.842 -373.352 778.906C-372.868 781.466 -380.644 785.877 -380.81 786.234C-381.601 787.83 -375.026 786.269 -374.15 787.501C-372.923 789.049 -378.349 796.287 -376.302 795.862C-373.418 795.263 -368.25 788.875 -367.758 788.756C-361.147 787.141 -366.258 795.299 -367.117 798.367C-367.368 799.302 -364.222 798.78 -364.634 799.25C-370.995 806.449 -369.884 794.941 -374.897 798.58C-379.397 801.851 -371.531 800.706 -371.629 800.954C-371.773 801.244 -377.425 804.729 -377.724 806.128C-377.839 806.788 -359.774 802.973 -358.946 805.503C-363.97 807.744 -369.043 810.031 -374.102 812.338C-372.591 815.367 -367.184 809.324 -366.254 809.19C-364.447 808.948 -367.466 812.683 -366.69 813.47C-366.233 813.989 -360.176 813.27 -363.853 816.567C-365.084 817.686 -369.421 817.466 -373.299 822.568C-353.389 814.469 -364.89 823.419 -364.778 824.737C-364.65 826.05 -354.336 823.274 -365.174 829.05C-361.941 834.783 -363.73 830.611 -360.149 829.853C-355.679 828.891 -362.911 835.603 -350.496 826.48C-349.557 829.485 -360.343 835.529 -360.797 836.092C-361.169 836.569 -357.904 836.407 -358.477 837.34C-365.144 848.183 -359.803 841.877 -360.519 846.716C-360.634 847.17 -369.174 853.924 -361.724 850.113C-348.12 843.199 -345.095 836.461 -337.658 842.923C-345.084 851.888 -360.108 853.792 -363.06 855.463C-367.608 858.032 -361.918 856.825 -362.152 857.59C-362.258 857.852 -366.17 860.036 -366.112 860.182C-364.79 867.666 -348.994 850.033 -341.968 847.435C-343.081 849.317 -344.134 851.166 -345.236 853.047C-342.899 851.728 -340.617 850.445 -338.305 849.151C-347.962 857.26 -338.222 850.033 -332.295 853.263C-330.98 853.997 -339.36 856.29 -329.194 854.555C-334.752 858.737 -332.177 858.602 -338.499 860.412C-337.086 862.251 -323.375 857.292 -317.883 855.517C-333.474 867.511 -328.567 854.865 -340.688 867.155C-344.999 866.374 -337.709 862.73 -338.551 862.68C-341.534 862.462 -344.803 867.501 -353.931 866.031C-355.422 865.787 -353.18 860.929 -358.947 864.567C-359.548 864.95 -361.812 869.338 -361.647 869.459C-359.98 870.796 -356.758 867.958 -356.148 868.574C-355.542 869.134 -359.866 871.199 -359.782 871.41C-358.431 873.539 -355.85 870.147 -355.885 871.093C-356.054 873.198 -367.352 886.455 -349.356 873.645C-366.76 880.873 -353.045 872.565 -346.142 869.758C-344.349 869.013 -343.17 870.063 -340.557 869.127C-337.281 867.979 -334.17 865.323 -332.541 864.693C-330.723 863.989 -338.061 872.372 -325.154 863.638C-330.087 870.575 -344.242 874.513 -349.35 880.532C-359.487 892.591 -336.796 880.044 -333.968 879.025C-333.258 878.759 -334.249 881.705 -333.753 881.558C-332.995 881.313 -320.508 872.922 -318.248 873.572C-316.041 874.234 -323.062 876.276 -322.51 877.986C-322.124 879.111 -305.157 871.719 -313.287 877.349C-318.835 881.183 -332.255 883.562 -331.153 888.85C-322.428 884.169 -313.601 879.535 -304.652 874.881C-308.347 879.239 -311.991 883.584 -315.596 887.93C-305.625 882.834 -298.431 876.189 -287.574 873.207C-306.421 891.104 -277.637 873.24 -276.859 873.698C-276.478 873.999 -282.501 883.209 -283.406 884.789C-274.542 881.949 -250.37 869.458 -260.804 882.463C-259.055 879.864 -251.024 879.335 -250.99 879.617C-250.264 882.355 -264.538 888.344 -260.985 889.195C-256.925 890.213 -255.553 884.953 -251.491 883.033C-238.964 877.135 -233.189 880.343 -226.368 880.893C-221.553 881.071 -216.586 880.315 -208.029 874.32C-208.228 875.028 -208.359 875.694 -208.518 876.377C-204.344 873.804 -199.078 870.482 -195.98 868.448C-195.273 867.982 -194.879 867.712 -194.83 867.642C-194.767 867.566 -194.979 867.639 -194.98 867.597C-195.044 867.543 -194.041 866.968 -192.586 866.224C-186.295 863.039 -177.438 858.884 -169.206 854.96C-163.298 852.137 -157.384 849.359 -151.466 846.629C-140.889 846.835 -116.949 840.042 -105.899 835.425C-103.685 834.47 -93.4757 828.275 -92.7819 827.615C-91.5327 826.343 -100.265 829.227 -96.9714 826.496C-96.2965 825.889 -77.5946 818.228 -77.976 820.961C-80.0054 821.957 -87.1912 823.206 -88.0514 824.126C-91.7007 828.082 -71.7733 820.614 -54.4963 814.828C-39.8153 809.844 -30.0106 806.041 -28.2564 806.114C-29.3348 807.342 -30.5976 808.634 -31.7341 809.878C-27.5876 807.977 -23.6098 806.118 -19.704 804.276ZM-290.338 700.307C-292.685 700.077 -296.753 701.895 -300.969 704.337C-305.196 706.791 -307.415 708.518 -309.124 709.129C-313.672 710.751 -325.203 706.449 -317.197 712.799C-314.083 711.428 -311.486 710.322 -307.986 708.656C-305.069 707.279 -295.963 702.494 -290.338 700.307ZM-181.13 650.944C-185.744 654.048 -179.538 657.33 -176.228 653.796C-175.866 653.401 -174.866 646.766 -181.13 650.944ZM-233.476 674.193C-233.244 674.17 -228.946 672.239 -228.838 672.108C-225.896 668.604 -238.799 674.418 -233.476 674.193ZM17.3627 585.427C11.4589 587.195 13.768 581.379 18.186 581.958C18.4624 581.995 17.7518 585.306 17.3627 585.427ZM13.3079 586.939C10.51 592.392 -1.72113 587.52 5.63879 585.875C6.31386 585.73 13.4488 586.669 13.3079 586.939ZM-198.575 659.758C-197.29 661.015 -192.353 658.275 -190.256 657.067C-190.962 655.733 -196.286 659.067 -198.575 659.758ZM-71.0049 614.528C-70.2567 615.623 -87.4469 621.922 -89.2908 620.792C-86.3359 620.471 -71.6855 613.548 -71.0049 614.528ZM-25.4485 599.662C-25.807 600.028 -32.0498 601.945 -32.3459 600.847C-29.9848 598.398 -23.8422 598.008 -25.4485 599.662ZM77.2646 567.806C77.7275 568.011 74.4369 575.907 85.6379 568.915C87.2745 567.895 80.2658 567.368 80.8206 567.002C82.0608 566.247 83.0515 565.816 83.9127 565.606C77.9689 566.155 71.6237 567.203 71.131 567.753C68.8594 570.32 77.0922 567.708 77.2646 567.806ZM131.496 563.512C132.917 564.455 140.019 562.706 141.554 561.989C141.817 561.858 139.867 559.076 143.19 558.794C145.858 558.574 142.667 562.218 147.653 560.951C152.696 559.68 145.291 558.555 145.703 558.333C146.261 558.033 154.569 558.2 153.906 556.469C153.416 555.18 145.059 557.356 142.876 557.409C140.077 557.47 142.844 554.775 138.42 555.949C135.637 556.688 138.146 560.281 137.591 560.569C137.128 560.798 126.62 560.183 131.508 563.498C131.504 563.503 131.5 563.507 131.496 563.512ZM85.5411 565.468C85.0638 565.424 84.5273 565.456 83.9127 565.606C84.4559 565.555 85.001 565.512 85.5411 565.468ZM-273.309 694.52C-271.368 692.312 -279.553 694.168 -282.051 697.082C-281.343 698.189 -273.481 694.799 -273.309 694.52ZM91.726 567.564C99.8722 565.052 93.4132 564.836 85.5411 565.468C88.1504 565.723 88.9399 568.424 91.726 567.564ZM-130.683 638.836C-130.465 638.451 -130.433 637.952 -130.701 637.238C-131.256 638.297 -131.16 638.737 -130.683 638.836ZM-116.122 632.424C-109.686 632.605 -120.828 636.463 -121.294 634.846C-121.574 634.283 -116.383 632.423 -116.122 632.424ZM24.8066 582.699C24.3108 583.107 36.2735 586.528 20.8012 586.117C27.6146 582.972 19.7521 584.787 19.6566 584.175C19.1242 582.473 32.0661 579.992 34.6454 578.411C37.9934 580.651 26.3734 581.372 24.822 582.694C24.8168 582.696 24.8117 582.698 24.8066 582.699ZM225.485 549.068C223.43 547.451 217.945 548.632 214.343 549.157C216.354 550.756 221.769 549.559 225.485 549.068ZM1095.23 773.453C1084.87 773.625 1080.8 775.214 1080.35 776.519C1079.93 777.794 1082.64 778.87 1091.41 776.622C1091.75 776.535 1096.58 774.078 1095.23 773.453ZM948.576 757.111C946.134 759.376 949.414 761.637 952.133 761.41C952.772 761.379 955.743 759.208 953.941 757.746C952.595 761.314 948.642 761.102 948.576 757.111ZM97.039 568.694C100.014 570.346 107.135 567.508 110.932 566.528C108.117 565.2 100.344 567.392 97.039 568.694ZM1034.19 776.81C1032.03 776.888 1030.63 773.993 1031 773.792C1032.64 772.869 1036.65 775.412 1034.19 776.81ZM72.187 573.922C72.3058 575.205 82.966 574.286 82.8051 571.07C80.6645 571.716 72.3014 573.053 72.187 573.922ZM218.655 550.776C217.481 551.434 222.665 551.714 226.012 551.357C226.904 551.261 227.662 551.126 228.162 550.945C228.015 550.523 227.075 550.296 225.798 550.207C223.241 549.995 219.294 550.412 218.655 550.776ZM1000.7 772.231C998.881 772.214 994.483 771.587 994.131 770.393C993.67 768.918 999.998 770.405 1000.7 772.231ZM1363 727.791C1363.03 727.235 1354.07 726.35 1351.16 728.316C1345.59 732.099 1362.85 728.258 1363 727.791ZM1054.88 779.461C1061.03 777.072 1054.19 779.351 1054.38 776.573C1058.55 776.674 1069.02 776.848 1061.93 779.364C1060.53 779.848 1056.83 779.367 1054.88 779.461ZM1049.16 780.12C1048.47 779.186 1043.97 776.096 1047.82 776.511C1049.6 776.705 1052.55 780.007 1049.16 780.12ZM1316.85 741.235C1312.42 745.218 1336.37 736.62 1336.95 735.873C1337.23 735.537 1337.4 735.254 1337.46 735.036C1338.67 735.497 1343.39 734.123 1343.15 732.064C1341.82 732.678 1337.94 733.739 1337.58 734.086C1337.43 734.236 1337.32 734.364 1337.26 734.48C1334.93 733.43 1317.69 740.551 1316.85 741.235ZM1277.72 753.967C1284.83 756.184 1283.99 749.873 1283.4 749.808C1276.12 748.834 1281.76 752.309 1281.63 752.564C1281.28 753.021 1276.01 751.983 1277.73 753.963C1277.73 753.964 1277.72 753.965 1277.72 753.967ZM1308.98 744.557C1309.25 744.571 1314.27 742.952 1314.44 742.793C1317.85 739.62 1303.69 744.176 1308.98 744.557ZM171.398 561.938C175.672 560.709 170.843 559.059 168.084 560.289C167.859 560.405 167.63 563.027 171.398 561.938ZM1046.09 779.342C1045.16 779.821 1022.77 779.728 1024.27 776.34C1026.01 777.053 1051.48 776.973 1046.09 779.342ZM900.785 734.467C905.844 737.15 901.786 731.36 898.571 731.02C897.388 730.896 899.496 733.783 900.785 734.467ZM56.6151 580.679C49.9827 580.605 53.2272 586.042 57.8063 582.632C57.988 582.499 56.8823 580.681 56.6151 580.679ZM938.163 754.203C937.306 753.471 936.453 752.859 935.643 752.372C928.526 748.071 926.62 751.71 932.815 756.933C934.707 758.657 937.442 760.346 940.749 761.214C940.617 760.625 940.478 760.03 940.341 759.435C953.141 764.665 942.011 759.72 938.542 756.907C937.296 755.912 939.305 755.162 938.178 754.198C938.173 754.2 938.168 754.201 938.163 754.203ZM875.227 721.867C856.934 721.124 888.02 730.559 897.022 736.561C889.628 729.35 878.246 724.231 894.859 729.217C872.851 717.516 881.075 724.917 879.997 724.598C878.902 724.359 875.986 721.886 875.227 721.867ZM918.279 744.533C919.153 745.271 926.763 748.142 928.844 749.71C927.152 745.752 912.705 739.619 918.279 744.533ZM1234.77 759.832C1235.71 761.63 1237.25 762.849 1241.83 761.599C1241.95 761.562 1242.08 761.522 1242.21 761.48C1242.07 761.409 1241.91 761.341 1241.75 761.276C1239.87 760.658 1236.84 760.31 1234.77 759.832ZM-292.66 713.476C-299.504 717.408 -303.578 720.942 -303.271 718.216C-303.204 718.071 -301.706 717.17 -299.232 715.911C-296.766 714.644 -292.944 712.94 -292.66 713.476ZM983.916 773.653C983.137 773.84 969.146 770.762 974.341 769.791C975.704 769.555 988.876 772.515 983.916 773.653ZM1070.04 781.614C1068.58 781.608 1062.56 781.064 1062.44 780.593C1061.95 778.99 1069.32 780.079 1070.04 781.614ZM-308.285 725.028C-308.432 725.377 -316.872 729.759 -316.57 728.443C-315.736 725.843 -307.551 723.77 -308.285 725.028ZM188.487 564.267C189.42 564.217 190.214 561.948 190.531 561.882C191.247 561.737 208.618 560.379 201.488 558.501C200.241 558.15 175.888 562.445 172.818 563.193C172.236 566.246 182.058 562.05 184.672 562.012C185.134 562.008 185.955 564.383 188.476 564.256C188.48 564.26 188.483 564.264 188.487 564.267ZM1258.55 758.196C1259.62 759.981 1276.32 757.923 1275.47 755.708C1269.81 756.636 1264.17 757.466 1258.55 758.196ZM1250.38 759.917C1247.23 761.776 1255.47 760.88 1257.73 759.862C1257.42 758.642 1250.84 759.657 1250.38 759.917ZM1037.07 787.011C1035.33 786.438 1040.67 784.11 1039.47 783.503C1038.71 783.129 1034.84 783.866 1033.62 782.925C1033.28 782.633 1037.2 780.39 1038.34 780.573C1039.95 780.829 1038.39 782.719 1040.16 782.85C1046.05 783.278 1051.28 782.124 1056.85 782.385C1057.36 782.413 1053.49 783.664 1057.8 783.82C1058.48 783.845 1062.38 781.904 1067.58 782.351C1070.76 784.198 1073.73 785.074 1076.59 785.416C1078.4 786.272 1085.4 782.999 1095.57 783.735C1095.1 784.428 1085.28 786.921 1084.94 786.968C1081.95 787.52 1077.73 787.928 1076.74 788.066C1065.39 788.301 1052.25 787.833 1043.57 787.302C1040.35 787.109 1041.91 785.829 1040.52 785.69C1039.42 785.579 1040.74 788.22 1037.07 787.011ZM-288.809 713.098C-289.408 714.888 -292.689 716.913 -295.57 718.523C-298.43 720.112 -300.539 720.951 -301.923 721.855C-302.062 720.542 -300.846 719.652 -298.451 718.335C-296.181 717.079 -291.603 714.845 -288.809 713.098ZM1166.94 773.918C1165.06 774.079 1159.57 775.617 1158.92 774.921C1158.11 774.01 1166.16 772.259 1166.94 773.918ZM313.519 561.101C313.661 561.171 315.441 561.621 316.179 561.779C316.997 561.956 316.976 561.89 316.998 561.856C317.088 561.359 317.116 561.004 317.196 560.799C317.251 560.588 317.205 560.496 316.317 560.3C315.502 560.122 313.73 559.813 312.701 559.816C311.643 559.812 311.75 560.197 313.519 561.101ZM415.398 561.553C420.05 562.65 424.305 564.284 425.985 562.533C423.318 562.299 415.04 560.028 415.398 561.553ZM576.223 598.571C574.74 600.857 587.727 603.22 590.021 603.81C589.623 602.377 577.429 596.886 576.223 598.571ZM1235.96 768.353C1241 767.491 1241.7 770.164 1243.71 769.861C1244.1 769.802 1244.55 769.594 1245.1 769.164C1245.53 768.824 1245.44 762.35 1242.17 763.081C1241.53 763.215 1240.78 763.546 1239.91 764.132C1238.81 764.88 1244.09 766.194 1235.96 768.353ZM942.574 762.132C942.622 764.162 945.475 765.076 947.204 765.74C947.374 764.394 943.837 762.985 942.574 762.132ZM-322.332 735.427C-323.466 739.066 -336.263 743.976 -334.307 740.891C-334.051 740.485 -323.945 736.436 -322.332 735.427ZM115.955 573.771C122.281 574.743 110.391 577.398 106.013 576.185C107.79 575.994 115.552 573.7 115.955 573.771ZM531.493 588.894C531.545 588.923 531.851 588.989 532.301 589.074C534.352 589.46 538.831 590.259 539.099 590.242C543.072 589.772 536.29 588.031 532.494 587.707C530.72 587.599 529.687 587.877 531.493 588.894ZM358.548 562.743C359.551 563.413 362.721 563.274 366.436 562.693C377.618 561.376 386.903 561.184 390.049 560.47C387.395 559.188 377.72 558.282 365.913 559.682C360.937 560.486 357.139 561.779 358.548 562.743ZM1210.04 770.89C1214.46 770.344 1218.61 769.231 1222.51 767.945C1221.35 766.702 1210.25 769.807 1210.04 770.89ZM558.26 595.14C558.668 595.235 559.095 595.188 559.486 595.274C559.069 595.223 558.659 595.184 558.26 595.14ZM1112.28 785.041C1108.91 785.98 1109.1 783.387 1109.32 783.284C1111.77 782.176 1116.18 783.961 1112.28 785.041ZM-293.471 720.094C-294.586 723.468 -300.657 725.008 -302.904 726.978C-303.03 724.892 -298.173 722.54 -293.471 720.094ZM857.116 718.474C851.389 718.501 869.64 729.983 874.632 730.724C875.507 729.428 857.863 718.402 857.116 718.474ZM98.5946 580.376C98.6847 582.197 89.5348 581.698 91.1241 580.526C92.1345 579.77 98.5423 579.235 98.5946 580.376ZM885.3 734.821C886.961 736.243 892.358 737.07 891.194 735.292C889.72 733.018 884.854 734.426 885.3 734.821ZM1012.57 786.338C1011.84 786.548 1002.84 783.556 1006.72 782.233C1009.39 781.311 1009.66 783.921 1010.28 784.005C1010.94 784.113 1025.95 782.587 1012.57 786.338ZM753.072 674.141C756.647 676.448 761.568 677.759 765.559 679.569C764.329 677.844 755.256 673.53 753.072 674.141ZM131.15 575.255C130.351 576.077 102.917 581.207 118.008 576.337C118.914 576.037 133.67 572.588 131.15 575.255ZM1235.96 768.353C1235.18 768.486 1234.29 768.702 1233.27 769.03C1234.31 768.809 1235.19 768.557 1235.96 768.353ZM1165.42 778.651C1167.11 779.747 1160.07 781.071 1157.78 780.674C1156.79 779.187 1165.17 778.501 1165.42 778.651ZM765.184 681.347C767.204 683.033 771.705 684.166 774.502 685.492C774.49 684.191 766.637 680.671 765.184 681.347ZM597.138 612.128C602.776 613.41 609.007 616.137 608.634 617.549C608.813 617.375 609.138 617.241 609.628 617.17C610.126 617.099 615.383 619.853 617.844 620.295C633.879 622.97 561.344 597.63 602.184 616.826C600.551 615.268 598.834 613.688 597.138 612.128ZM341.707 567.522C339.334 569.499 332.661 567.551 334.233 566.76C335.339 566.241 343.845 565.568 341.707 567.522ZM470.474 581.556C469.604 581.673 462.323 578.644 462.292 577.675C466.865 577.759 474.445 580.996 470.474 581.556ZM324.545 570.348C323.276 570.637 321.662 567.724 321.763 567.597C322.75 566.549 326.557 568.701 324.545 570.348ZM1224.78 777.967C1222.47 779.151 1213.92 778.229 1211.78 776.573C1211.54 776.987 1210.75 777.594 1209.27 778.399C1209.28 778.398 1209.28 778.398 1209.29 778.397C1207.23 779.528 1142.86 789.399 1185.33 779.682C1186.66 779.374 1185.2 781.341 1190.66 780.259C1191.02 780.185 1190.88 778.768 1191.99 778.54C1194.6 778.022 1208.18 775.182 1211.27 775.893C1211.24 775.632 1211.37 775.359 1211.69 775.08C1214.62 772.589 1226.6 777.05 1224.78 777.967ZM484.946 585.272C483.396 585.434 478.851 583.851 478.584 582.529C481.041 582.503 488.544 584.891 484.946 585.272ZM131.54 580.419C128.645 581.932 120.182 581.388 122.343 579.984C123.669 579.11 134.894 578.668 131.54 580.419ZM436.038 573.089C455.7 576.023 440.678 574.244 443.347 576.683C440.986 575.491 438.546 574.29 436.038 573.089ZM1296.2 760.028C1293.93 761.032 1297.94 763.82 1299.97 761.249C1300.6 760.437 1297.47 759.474 1296.2 760.028ZM1406.7 724.833C1405.67 728.735 1416.68 722.462 1411.09 722.186C1410.82 722.201 1406.79 724.658 1406.7 724.833ZM1330.09 753.22C1327.62 751.644 1326.45 751.73 1321.99 753.604C1329.11 752.162 1323.42 755.898 1330.09 753.22ZM608.504 617.744C608.565 617.675 608.613 617.626 608.634 617.549C608.572 617.609 608.532 617.673 608.504 617.744ZM315.631 569.572C315.343 570.463 314.998 570.844 315.055 570.816C315.09 570.785 315.308 570.326 315.31 569.398C315.319 569.313 315.164 568.986 315.209 568.881C315.234 568.774 315.537 568.887 315.631 569.572ZM1211.78 776.573C1211.99 776.207 1211.8 776.016 1211.27 775.893C1211.31 776.139 1211.48 776.35 1211.78 776.573ZM338.172 570.793C337.737 569.453 346.013 568.402 346.398 568.523C351.661 570.548 341.593 570.712 338.172 570.793ZM65.2792 595.11C64.6471 595.142 66.9629 591.745 69.7416 591.297C70.0774 591.249 70.4244 591.272 70.7747 591.39C71.7089 591.706 71.277 592.485 70.3467 593.217C68.9215 594.129 66.7293 595.044 65.2792 595.11ZM1346.38 749.083C1348.99 748.241 1352.68 747.03 1352.69 745.209C1351.04 746.039 1345.84 747.931 1346.38 749.083ZM1403.23 728.741C1398.87 728.258 1391.21 731.337 1386.53 733.61C1387.61 736.056 1399.66 729.445 1403.23 728.741ZM1232.53 775.86C1232.31 776 1225.14 777.826 1225.74 775.96C1226.67 773.217 1234.38 774.625 1232.53 775.86ZM81.8812 589.438C85.8458 589.871 78.6218 595.163 73.8499 593.265C71.4469 592.261 81.2387 589.341 81.8812 589.438ZM305.427 569.531C300.421 567.996 304.712 568.091 309.326 568.864C311.576 569.238 313.478 569.663 314.303 569.951C315.187 570.255 315.269 570.504 315.269 570.966C315.096 571 314.405 571.163 312.309 570.888C310.286 570.629 307.052 570.056 305.427 569.531ZM457.138 583.144C441.847 584.839 451.376 577.398 453.779 578.816C454.131 579.02 457.519 583.109 457.138 583.144ZM-345.898 761.145C-347.983 761.45 -343.282 755.639 -341.426 756.675C-340.308 757.345 -344.597 760.966 -345.898 761.145ZM675.393 646.708C674.83 646.45 674.273 646.194 673.723 645.944C674.109 646.199 674.648 646.459 675.393 646.708ZM244.386 574.712C254.371 566.419 254.238 572.28 255.223 572.166C257.415 571.948 262.395 569.656 267.147 569.879C261.701 569.175 256.739 568.605 251.791 568.099C253.818 567.717 262.086 566.21 273.31 565.624C283.65 564.748 300.892 566.789 301.434 567.697C302.274 568.72 297.747 568.118 293.102 567.659C288.652 567.199 284.509 566.86 284.27 566.918C283.504 567.08 281.287 571.712 280.025 571.85C276.007 571.54 247.643 573.002 244.386 574.712ZM425.55 575.233C428.323 575.22 429.283 573.523 430.438 574.218C430.826 574.455 430.624 576.225 431.952 576.976C429.825 576.383 427.769 575.816 425.55 575.233ZM224.011 569.968C222.573 571.396 226.195 571.264 229.641 570.86C232.444 570.532 234.996 570.066 235.161 569.942C236.381 568.909 232.888 568.349 229.217 568.582C227.038 568.711 224.777 569.169 224.011 569.968ZM334.337 572.589C333.9 572.76 326.176 573.698 326.309 572.448C327.828 571.539 338.755 570.778 334.337 572.589ZM433.614 577.456C437.499 578.074 444.609 577.868 443.363 580.323C443.358 580.322 443.353 580.321 443.347 580.32C440.209 579.37 436.961 578.409 433.614 577.456ZM95.6035 592.649C90.2883 598.135 91.878 592.179 97.2625 589.723C99.5329 591.297 96.4728 591.757 95.6035 592.649ZM75.3077 600.132C74.9976 600.35 74.0654 600.649 72.7915 600.974C65.0549 602.831 52.5037 605.674 54.2268 603.166C54.7563 602.086 67.585 600.699 68.4948 600.383C69.4085 599.925 64.1253 598.569 71.621 597.26C71.6697 597.253 71.719 597.246 71.7691 597.239C71.6772 598.15 75.8831 599.732 75.3077 600.132ZM90.9781 596.401C85.3837 600.907 82.2215 595.293 87.1155 594.282C89.0748 593.877 91.7594 595.758 90.9781 596.401ZM116.929 591.103C114.806 592.058 108.957 593.947 104.215 592.742C109.828 591.539 115.353 590.393 120.901 589.273C121.824 590.288 118.813 590.258 116.913 591.106C116.918 591.105 116.923 591.104 116.929 591.103ZM1433.96 735.696C1437.66 734.429 1435.88 736.06 1433.39 738.447C1430.76 740.955 1428.89 743.676 1428.64 743.651C1427.66 743.767 1427.56 742.532 1428.64 740.628C1429.66 738.737 1432.27 736.319 1433.96 735.696ZM-346.823 827.573C-347.542 828.813 -347.033 831.226 -350.218 831.656C-348.649 828.742 -347.096 825.844 -345.48 822.915C-341.31 825.088 -346.011 826.195 -346.823 827.573ZM-348.377 845.238C-347.981 845.118 -346.45 851.284 -344.186 845.249C-342.636 841.15 -360.979 848.784 -362.514 852.896C-358.473 851.934 -351.846 846.354 -348.377 845.238ZM-361.977 884.307C-361.935 884.838 -355.667 881.743 -355.087 881.001C-352.466 877.26 -362.746 881.648 -361.977 884.307ZM-343.194 871.475C-345.458 874.196 -338.527 870.972 -336.931 869.249C-337.398 868.204 -342.864 871.075 -343.194 871.475ZM1437.31 826.447C1435.67 831.534 1428.6 824.88 1434.75 824.3C1435.05 824.269 1437.37 826.206 1437.31 826.447ZM-352.689 885.752C-350.512 883.018 -357.275 886.28 -358.545 887.925C-358.046 888.941 -353.039 886.161 -352.689 885.752ZM1439.23 836.212C1435.96 840.732 1433.15 831.181 1433.53 830.591C1435.21 828.198 1445.05 828.418 1447.11 828.647C1434.35 832.162 1440.75 834.104 1439.23 836.212ZM1412.77 839.536C1407.79 840.144 1418.63 834.268 1421.94 836.007C1419.64 836.681 1414.2 839.37 1412.77 839.536ZM1385.99 851.791C1383.62 852.928 1376.42 856.062 1374.58 855C1377.46 854.418 1384.33 850.656 1385.99 851.791ZM1382.04 857.914C1378.85 861.112 1375.62 855.694 1380.87 855.973C1381.07 855.984 1382.14 857.759 1382.04 857.914ZM1360.33 866.731C1358.52 869.779 1353.42 865.055 1357.66 863.692C1358.92 863.296 1360.51 866.389 1360.33 866.731ZM1435.98 848.931C1432.82 851.17 1426.45 848.897 1433.93 845.752C1430.97 846.11 1428.01 846.465 1425.04 846.815C1431.04 843.039 1433.78 844.209 1435.77 845.094L1437.82 844.309C1438.85 844.729 1439.67 845.081 1440.54 844.635C1444.15 842.785 1441.63 838.526 1440.21 837.442C1444.65 838.868 1457.76 833.644 1465.17 831.501C1459.4 834.988 1449.63 841.227 1443.46 844.606C1441.96 845.43 1440.01 845.21 1438.48 845.625L1436.37 846.433C1436.09 846.497 1435.82 846.581 1435.57 846.693C1432.93 847.895 1436.15 848.795 1436 848.926C1435.99 848.927 1435.99 848.929 1435.98 848.931ZM1330.06 874.828C1322.88 879.366 1326.13 872.507 1330.96 872.418C1331.18 872.449 1330.23 874.716 1330.06 874.828ZM-349.01 905.291C-343.921 899.025 -351.276 899.513 -331.272 893.431C-340.613 894.805 -333.162 891.53 -335.407 891.174C-337.212 890.906 -340.922 894.261 -339.78 890.859C-340.639 892.852 -344.81 895.906 -348.35 898.363C-351.939 900.78 -354.789 902.917 -351.585 900.665C-351.604 900.682 -351.624 900.698 -351.643 900.714C-351.285 900.494 -350.945 900.735 -350.844 901.385C-350.721 902.016 -350.817 903.014 -350.696 903.776C-350.453 905.301 -349.586 906.159 -349.01 905.291ZM1391.89 866.289C1392.07 873.832 1386.73 863.477 1383.91 870.636C1373.94 864.65 1402.52 864.77 1402.59 856.894C1375.91 866.568 1417.55 844.251 1403.04 860.674C1416.96 851.793 1408.66 860.233 1411.61 860.728C1414.77 861.25 1422.81 856.756 1423.45 859.39C1423.45 859.391 1423.44 859.393 1423.44 859.395C1418.05 861.061 1412.63 862.711 1407.16 864.333C1410.14 857.199 1399.87 862.475 1397.91 868.082C1395.9 867.489 1393.9 866.891 1391.89 866.289ZM1420.1 851.104C1419.64 851.415 1407.77 854.611 1408.05 853.272C1409.32 852.08 1425.98 847.263 1420.1 851.104ZM1469.85 833.577C1466.36 834.859 1461.15 838.09 1458.17 836.893C1461.9 835.411 1467.05 832.246 1469.85 833.577ZM1248.79 894.404C1242.96 893.449 1259.6 890.523 1255.22 893.278C1255.01 893.408 1249.06 894.449 1248.79 894.404ZM1379.08 869.149C1374.31 872.908 1374.38 865.541 1379.16 865.995C1379.44 866.022 1379.3 868.976 1379.08 869.149ZM-342.911 902.435C-341.736 903.732 -330.683 895.592 -328.428 894.301C-330.645 893.684 -344.567 901.043 -342.911 902.435ZM1478.34 837.438C1474.78 845.179 1461.63 842.593 1460.6 843.166C1459.57 843.74 1462.48 845.53 1462.26 845.695C1461.8 846.017 1449.97 850.491 1449.28 850.578C1448.81 850.611 1449.24 846.301 1446.26 846.205C1452.11 846.107 1472.71 836.66 1473.54 836.94C1474.4 837.002 1470.44 842.637 1478.33 837.441C1478.33 837.44 1478.34 837.439 1478.34 837.438ZM1458.21 845.004C1460.44 842.392 1452.14 845.46 1450.39 846.816C1446.53 849.796 1457.94 845.296 1458.21 845.004ZM1436.22 855.247C1435.35 855.943 1426.14 859.521 1424.62 858.157C1428.13 854.496 1438.21 853.654 1436.22 855.247ZM1327.47 887.886C1324.74 888.3 1317.76 891.239 1316.88 889.841C1319.65 889.485 1326.58 886.515 1327.47 887.886ZM-293.806 889.468C-296.521 892.549 -288.21 888.401 -286.186 886.522C-286.659 885.577 -293.583 889.206 -293.806 889.468ZM1383.6 883.292C1382.37 884.307 1350.39 892.187 1345.52 892.496C1349.69 890.407 1380.83 881.459 1382.32 881.461C1382.79 881.498 1383.77 883.164 1383.6 883.292ZM1451.31 860.988C1454.78 862.061 1455.13 858.944 1455.43 858.784C1458.31 857.238 1464.69 855.268 1462.36 853.809C1457.56 856.649 1444.36 858.88 1451.31 860.988ZM1328.29 898.255C1316.93 899.982 1337.51 892.804 1335.44 895.692C1335.31 895.877 1329.48 898.082 1328.29 898.255ZM1387.31 882.853C1390.44 883.942 1420.26 872.512 1424.89 870.805C1419.25 869.131 1416.83 872.701 1410.93 874.483C1409.34 874.96 1409.21 873.507 1409.04 873.561C1406.29 874.402 1408.97 875.244 1407.29 875.823C1406.29 876.23 1383.13 881.466 1387.31 882.853ZM1453.41 861.856C1455.58 862.367 1472.16 856.399 1472.5 855.939C1476.28 851.65 1454.64 860.792 1453.41 861.856ZM1385.59 886.552C1390.43 889.243 1404.75 881.912 1393.53 883.393C1392.46 883.542 1388.85 886.469 1385.59 886.552ZM1330.62 901.567C1330.12 901.827 1318.64 905.172 1318.05 903.992C1319.65 903.214 1336.49 898.918 1330.62 901.567ZM1337.97 904.193C1337.68 904.23 1339.65 901.282 1334.29 902.869C1333.84 902.997 1333.85 905.817 1326.62 906.424C1325.15 906.543 1322.43 905.298 1322.56 905.156C1328.53 899.586 1352.45 902.101 1337.97 904.193ZM1454.71 863.731C1454.34 865.135 1458.01 867.364 1459.19 865.007C1459.69 863.994 1457.2 862.766 1454.71 863.731ZM1293.38 910.204C1300.92 911.026 1278.94 915.082 1277.64 914.643C1278.1 913.331 1292.65 910.169 1293.38 910.204ZM-276.636 898.407C-276.64 898.41 -276.644 898.412 -276.648 898.414C-272.579 895.546 -276.229 895.606 -276.061 895.447C-268.154 887.987 -268.382 892.694 -266.683 892.268C-263.044 891.375 -266.094 887.546 -259.754 886.271C-270.133 888.73 -261.477 885.27 -262.181 883.694C-265.03 877.243 -272.065 893.046 -277.212 894.293C-277.944 894.475 -274.661 890.031 -276.583 890.391C-282.8 891.544 -292.414 909.538 -276.636 898.407ZM1460.82 864.682C1463.94 865.584 1478.58 857.785 1473.74 857.861C1473.11 857.766 1456.44 863.212 1460.82 864.682ZM562.256 756.14C565.535 759.197 556.034 757.661 554.91 755.871C554.295 754.942 560.806 754.784 562.256 756.14ZM503.313 746.592C497.523 745.056 492.641 736.81 499.567 739.387C500.287 739.662 504.129 745.763 503.313 746.592ZM815.568 870.184C810.09 870.287 812.28 866.201 815.552 867.864C816.681 868.441 815.734 870.177 815.568 870.184ZM619.885 783.026C619.325 782.962 613.457 780.146 614.081 779.253C616.502 779.581 623.634 783.414 619.885 783.026ZM816.681 871.468C814.43 869.428 820.414 868.623 821.96 873.098C820.551 872.073 816.908 871.673 816.681 871.468ZM1377.66 900.114C1374.08 899.09 1366.13 901.972 1361.25 902.925C1361.63 905.516 1374.19 900.67 1377.66 900.114ZM522.913 747.885C519.6 745.269 527.683 745.787 526.475 747.889C526.354 747.982 523.047 747.989 522.913 747.885ZM1018.67 941.933C1014.47 940.044 1027.96 939.262 1024.21 941.559C1024.02 941.655 1018.9 942.044 1018.67 941.933ZM1076.34 944.432C1073.28 944.889 1059.97 944.247 1065.1 942.968C1065.9 942.787 1076.02 943.06 1076.34 944.432ZM-265.387 893.708C-265.165 896.681 -258.261 892.041 -257.519 891.083C-257.205 890.68 -265.733 889.868 -265.387 893.708ZM784.662 856.268C782.209 854.82 775.243 852.4 774.565 850.652C777.62 852.289 786.571 854.214 784.662 856.268ZM539.196 752.534C535.222 754.136 530.161 752.388 532.285 749.24C538.128 751.24 530.669 752.087 539.196 752.534ZM828.754 881.065C827.112 880.404 827.475 876.686 827.735 876.639C830.223 876.212 830.931 880.73 828.754 881.065ZM674.84 808.318C674.152 809.629 667.474 805.979 668.76 805.503C669.183 805.338 675.393 807.254 674.84 808.318ZM1272.55 923.746C1270.38 925.07 1275.16 925.376 1279.08 924.684C1280.85 924.379 1282.45 923.915 1283.33 923.316C1283.88 922.11 1281.4 922.137 1278.58 922.502C1275.82 922.852 1272.76 923.631 1272.55 923.746ZM896.966 916.905C896.658 919.281 880.573 910.797 887.797 912.028C889.572 912.368 897.037 916.17 896.966 916.905ZM1036.56 947.987C1027.76 944.812 1064.78 945.106 1055.12 947.857C1054.46 948.104 1037.37 948.314 1036.56 947.987ZM1101.2 948.117C1099.29 948.488 1101.53 956.016 1108.42 952.657C1109.33 952.223 1104.55 950.516 1105.28 950.01C1106.06 949.764 1120.46 947.576 1120.97 947.662C1121.71 947.797 1121.3 950.277 1122.06 950.481C1122.88 950.722 1130.98 947.79 1135.1 947.31C1143.03 946.407 1144.21 948.29 1144.86 948.227C1146.76 948.021 1149.53 946.247 1153.29 945.793C1172.02 943.562 1199.95 941.464 1213.17 935.258C1200.95 938.714 1188.4 938.588 1175.54 939.711C1180.19 943.387 1155.9 938.957 1170.25 942.039C1164.32 941.922 1109.83 947.374 1101.22 948.116C1101.22 948.116 1101.21 948.117 1101.2 948.117ZM480.3 743.797C483.363 747.094 465.541 742.48 464.648 739.237C466.98 739.376 479.903 743.428 480.3 743.797ZM544.096 765.838C545.199 766.698 544.635 771.687 551.994 771.77C551.999 771.772 552.005 771.775 552.011 771.777C554.172 771.811 552.362 769.847 552.853 769.575C552.997 769.436 560.004 769.484 554.988 767.153C547.499 763.702 553.06 770.336 549.021 768.893C548.481 768.68 542.016 763.548 542.637 763.161C542.708 763.111 544.677 764.397 545.131 764.302C546.773 763.914 546.576 762.211 546.791 762.21C547.382 762.176 558.774 769.231 561.527 767.886C562.132 767.242 542.576 758.163 542.111 758.551C541.591 758.63 540.558 762.793 539.978 763.041C539.637 763.123 533.073 759.325 532.145 759.487C531.862 759.52 531.638 759.582 531.471 759.637C532.808 758.637 526.707 756.979 526.58 758.517C526.554 759.108 530.752 759.948 530.936 759.906C531.011 759.883 531.083 759.842 531.146 759.817C529.716 760.969 544.536 765.743 540.677 767.019C544.786 769.836 541.052 763.418 544.096 765.838ZM567.312 777.484C566.909 776.84 566.512 776.198 566.119 775.559C573.714 779.583 583.438 782.034 593.276 785.655C594.927 786.258 596.626 786.917 598.308 787.625C601.123 788.806 596.869 789.995 600.869 790.863C604.081 791.562 608.331 790.599 606.904 789.379C606.549 789.074 599.847 788.045 596.886 786.626C595.49 785.956 594.416 785.372 593.583 784.857C588.914 782.019 591.119 781.122 590.682 780.881C590.136 780.582 583.81 779.756 580.819 778.454C573.199 775.141 570.148 772.32 559.594 770.232C564.8 773.929 560.485 775.851 567.312 777.484ZM962.039 942.613C962.365 944.216 971.356 944.537 974.454 945.258C974.135 943.699 965.257 943.487 962.039 942.613ZM10.1032 788.939C7.07227 787.339 21.5414 781.297 18.5521 784.674C17.8773 785.427 11.9785 788.224 10.1032 788.939ZM74.6472 763.709C76.8358 763.683 69.9277 768.077 69.1347 766.267C68.8866 765.681 74.3645 763.71 74.6472 763.709ZM695.484 829.667C695.845 829.908 701.585 831.844 701.818 831.811C706.475 831.043 687.637 824.383 695.484 829.667ZM144.777 747.332C137.589 746.956 157.751 742.595 152.06 745.755C151.764 745.907 145.097 747.35 144.777 747.332ZM173.582 742.858C171.882 743.038 164.693 745.054 164.418 744.326C163.952 743.143 172.224 740.922 173.582 742.858ZM825.413 889.686C823.592 891.781 831.121 893.656 833.567 895.56C835.465 893.492 827.514 891.203 825.413 889.686ZM771.629 866.262C809.527 885.695 803.663 876.525 769.788 863.994C769.068 865.595 769.197 865.041 771.629 866.262ZM818.294 887.783C818.004 885.651 814.192 884.281 811.555 883.136C811.515 884.467 816.807 886.638 818.294 887.783ZM-5.93454 799.1C-2.364 800.265 7.82888 793.422 5.39792 793.299C4.84152 793.285 -7.3888 798.274 -5.93454 799.1ZM698.079 833.367C696.075 835.392 709.031 839.913 710.198 839.782C714.969 839.286 698.867 834.354 698.079 833.367ZM893.25 928.77C896.055 932.203 906.52 934.997 912.821 936.99C910.455 934.384 898.776 931.044 893.25 928.77ZM848.725 908.28C848.922 908.519 856.665 912.794 857.141 912.92C860.94 913.872 856.996 911.272 853.249 909.193C849.488 907.112 845.892 905.578 848.725 908.28ZM-270.89 919.665C-270.659 919.614 -267.078 917.403 -266.979 917.251C-264.84 913.574 -275.745 920.313 -270.89 919.665Z" fill="#F3EDE9"/>
</g>
</svg>
